SplineFontDB: 3.0
FontName: Alice-Regular
FullName: Alice
FamilyName: Alice
Weight: Book
Copyright: Copyright (c) 2011, Cyreal (www.cyreal.org)\nwith Reserved Font Name "Alice" and "Alice Regular".\n\nThis Font Software is licensed under the SIL Open Font License,\nVersion 1.1. This license is available with a FAQ at:\nhttp://scripts.sil.org/OFL
Version: 1.000
ItalicAngle: 0
UnderlinePosition: -50
UnderlineWidth: 50
Ascent: 800
Descent: 200
LayerCount: 2
Layer: 0 1 "Back"  1
Layer: 1 1 "Fore"  0
NeedsXUIDChange: 1
XUID: [1021 230 1610532706 15334528]
FSType: 0
OS2Version: 3
OS2_WeightWidthSlopeOnly: 0
OS2_UseTypoMetrics: 1
CreationTime: 1312466400
ModificationTime: 1312480346
PfmFamily: 17
TTFWeight: 400
TTFWidth: 5
LineGap: 0
VLineGap: 0
Panose: 2 0 5 3 8 0 0 2 0 4
OS2TypoAscent: 909
OS2TypoAOffset: 0
OS2TypoDescent: -234
OS2TypoDOffset: 0
OS2TypoLinegap: 0
OS2WinAscent: 909
OS2WinAOffset: 0
OS2WinDescent: 234
OS2WinDOffset: 0
HheadAscent: 909
HheadAOffset: 0
HheadDescent: -234
HheadDOffset: 0
OS2SubXSize: 700
OS2SubYSize: 650
OS2SubXOff: 0
OS2SubYOff: 140
OS2SupXSize: 700
OS2SupYSize: 650
OS2SupXOff: 0
OS2SupYOff: 477
OS2StrikeYSize: 50
OS2StrikeYPos: 250
OS2Vendor: 'pyrs'
OS2CodePages: 00000003.00000000
OS2UnicodeRanges: 80000027.40000043.00000000.00000000
Lookup: 258 0 0 "'kern' Horizontal Kerning in Latin lookup 0"  {"'kern' Horizontal Kerning in Latin lookup 0 per glyph data 0"  "'kern' Horizontal Kerning in Latin lookup 0 kerning class 1"  } ['kern' ('latn' <'dflt' > ) ]
DEI: 91125
KernClass2: 70+ 55 "'kern' Horizontal Kerning in Latin lookup 0 kerning class 1" 
 40 comma period quotedblbase quotesinglbase
 5 slash
 28 hyphen emdash endash uni00AD
 8 asterisk
 20 quotesingle quotedbl
 9 backslash
 24 quoteright quotedblright
 22 quoteleft quotedblleft
 14 guillemotright
 13 guillemotleft
 4 zero
 3 one
 5 seven
 4 nine
 12 questiondown
 10 exclamdown
 10 registered
 13 guilsinglleft
 14 guilsinglright
 1 G

StartChar: H
Encoding: 72 72 4
Width: 777
Flags: HW
HStem: -3 43<43.6119 122.391 244.059 321.388 455.612 535.391 656.489 734.388> 294 43<232 546> 591 43<43.6119 120.941 242.609 321.388 455.612 533.941 655.227 734.388>
VStem: 133 99<50.6641 294 337 580.336> 546 98<51.3988 294 337 566.492>
CounterMasks: 1 e0
LayerCount: 2
Fore
SplineSet
473 -3 m 0,0,1
 455 -3 455 -3 455.5 16.5 c 128,-1,2
 456 36 456 36 463 38 c 128,-1,3
 470 40 470 40 487.5 40 c 128,-1,4
 505 40 505 40 518 46.5 c 128,-1,5
 531 53 531 53 537 64 c 0,6,7
 546 80.5 546 80.5 546 117 c 2,8,-1
 546 294 l 1,9,-1
 232 294 l 1,10,-1
 232 117 l 2,11,12
 232 60.5 232 60.5 260 46.5 c 0,13,14
 273 40 273 40 290.5 40 c 128,-1,15
 308 40 308 40 314.5 38 c 128,-1,16
 321 36 321 36 321.5 16.5 c 128,-1,17
 322 -3 322 -3 304 -3 c 0,18,19
 239 0 239 0 174 0 c 128,-1,20
 109 0 109 0 61 -3 c 1,21,22
 43 -3 43 -3 43.5 16.5 c 128,-1,23
 44 36 44 36 50.5 38 c 128,-1,24
 57 40 57 40 74.5 40 c 128,-1,25
 92 40 92 40 105 46.5 c 128,-1,26
 118 53 118 53 124 64 c 0,27,28
 133 80.5 133 80.5 133 117 c 2,29,-1
 133 514 l 2,30,31
 133 570.5 133 570.5 105 584.5 c 0,32,33
 92 591 92 591 74.5 591 c 128,-1,34
 57 591 57 591 50.5 593 c 128,-1,35
 44 595 44 595 43.5 614.5 c 128,-1,36
 43 634 43 634 61 634 c 1,37,38
 109 631 109 631 174 631 c 128,-1,39
 239 631 239 631 304 634 c 0,40,41
 322 634 322 634 321.5 614.5 c 128,-1,42
 321 595 321 595 314.5 593 c 128,-1,43
 308 591 308 591 290.5 591 c 128,-1,44
 273 591 273 591 260 584.5 c 128,-1,45
 247 578 247 578 241 567 c 0,46,47
 232 550.5 232 550.5 232 514 c 2,48,-1
 232 337 l 1,49,-1
 546 337 l 1,50,-1
 546 514 l 2,51,52
 546 570.5 546 570.5 518 584.5 c 0,53,54
 505 591 505 591 487.5 591 c 128,-1,55
 470 591 470 591 463 593 c 128,-1,56
 456 595 456 595 455.5 614.5 c 128,-1,57
 455 634 455 634 473 634 c 0,58,59
 537 631 537 631 603 631 c 128,-1,60
 669 631 669 631 717 634 c 1,61,62
 735 634 735 634 734.5 614.5 c 128,-1,63
 734 595 734 595 727 593 c 128,-1,64
 720 591 720 591 703 591 c 128,-1,65
 686 591 686 591 673 584.5 c 128,-1,66
 660 578 660 578 653.5 567 c 0,67,68
 644 550.923 644 550.923 644 514 c 2,69,-1
 644 117 l 2,70,71
 644 61 644 61 673 46.5 c 0,72,73
 686 40 686 40 703 40 c 128,-1,74
 720 40 720 40 727 38 c 128,-1,75
 734 36 734 36 734.5 16.5 c 128,-1,76
 735 -3 735 -3 717 -3 c 1,77,78
 669 0 669 0 603 0 c 128,-1,79
 537 0 537 0 473 -3 c 0,0,1
EndSplineSet
Validated: 540673
EndChar

StartChar: I
Encoding: 73 73 5
Width: 364
Flags: HW
HStem: -3 43<42.6119 121.391 243.059 320.849> 591 43<42.6119 121.261 241.609 320.849>
VStem: 133 98<64.4162 579.69>
LayerCount: 2
Fore
SplineSet
60 634 m 1,0,1
 108 631 108 631 173.5 631 c 128,-1,2
 239 631 239 631 304 634 c 0,3,4
 322 634 322 634 321 614.5 c 128,-1,5
 320 595 320 595 313.5 593 c 128,-1,6
 307 591 307 591 289.5 591 c 128,-1,7
 272 591 272 591 259 584.5 c 128,-1,8
 246 578 246 578 240 567 c 0,9,10
 231 550.5 231 550.5 231 514 c 2,11,-1
 231 117 l 2,12,13
 231 60.5 231 60.5 259 46.5 c 0,14,15
 272 40 272 40 289.5 40 c 128,-1,16
 307 40 307 40 313.5 38 c 128,-1,17
 320 36 320 36 321 16.5 c 128,-1,18
 322 -3 322 -3 304 -3 c 0,19,20
 239 0 239 0 173.5 0 c 128,-1,21
 108 0 108 0 60 -3 c 1,22,23
 42 -3 42 -3 42.5 16.5 c 128,-1,24
 43 36 43 36 50 38 c 128,-1,25
 57 40 57 40 74 40 c 128,-1,26
 91 40 91 40 104 46.5 c 128,-1,27
 117 53 117 53 123 64 c 0,28,29
 130.151 77.1096 130.151 77.1096 133 117 c 1,30,-1
 133 514 l 1,31,32
 130.151 553.891 130.151 553.891 123.575 565.945 c 0,33,34
 109.909 591 109.909 591 67 591 c 0,35,36
 57 591 57 591 50 593 c 128,-1,37
 43 595 43 595 42.5 614.5 c 128,-1,38
 42 634 42 634 60 634 c 1,0,1
EndSplineSet
Validated: 540673
EndChar

StartChar: J
Encoding: 74 74 6
Width: 345
Flags: HW
HStem: -192 42<2.67468 43.0359> 591 43<33.6119 111.941 232.609 312.388>
VStem: 124 98<-27.3828 580.336>
LayerCount: 2
Fore
SplineSet
295 634 m 0,0,1
 313 634 313 634 312.5 614.5 c 128,-1,2
 312 595 312 595 305 593 c 128,-1,3
 298 591 298 591 280.5 591 c 128,-1,4
 263 591 263 591 250 584.5 c 128,-1,5
 237 578 237 578 231 567 c 0,6,7
 222 550.5 222 550.5 222 514 c 2,8,-1
 222 128 l 2,9,10
 222 -146.268 222 -146.268 25 -192 c 0,11,12
 8 -195 8 -195 2.5 -175.5 c 128,-1,13
 -3 -156 -3 -156 12 -150 c 0,14,15
 111.758 -109.074 111.758 -109.074 121 46.5 c 0,16,17
 124 97 124 97 124 162 c 2,18,-1
 124 514 l 2,19,20
 124 570.5 124 570.5 96 584.5 c 0,21,22
 83 591 83 591 65.5 591 c 128,-1,23
 48 591 48 591 41 593 c 128,-1,24
 34 595 34 595 33.5 614.5 c 128,-1,25
 33 634 33 634 51 634 c 1,26,27
 99 631 99 631 164.5 631 c 128,-1,28
 230 631 230 631 295 634 c 0,0,1
EndSplineSet
Validated: 540673
EndChar

StartChar: K
Encoding: 75 75 7
Width: 700
Flags: HW
HStem: -3 41<43.5371 120.319 246.465 321.463 628.001 699.461> 590 37<630.086 671.949> 591 43<43.6119 120.941 242.609 321.388 436.549 475.576 564.403 668.352>
VStem: 133 99<50.6641 307 333 580.336>
LayerCount: 2
Fore
SplineSet
304 634 m 0,0,1
 322 634 322 634 321.5 614.5 c 128,-1,2
 321 595 321 595 314.5 593 c 128,-1,3
 308 591 308 591 290.5 591 c 128,-1,4
 273 591 273 591 260 584.5 c 128,-1,5
 247 578 247 578 241 567 c 0,6,7
 232 550.5 232 550.5 232 514 c 2,8,-1
 232 333 l 1,9,10
 260.242 339.645 260.242 339.645 307.621 381.823 c 128,-1,11
 355 424 355 424 391 464.5 c 2,12,-1
 458 542 l 1,13,14
 498.196 586.216 498.196 586.216 449 590 c 0,15,16
 438 591 438 591 436.5 612.5 c 128,-1,17
 435 634 435 634 453 634 c 1,18,19
 492 631 492 631 543 631 c 128,-1,20
 594 631 594 631 629 632.5 c 128,-1,21
 664 634 664 634 668.5 627 c 128,-1,22
 673 620 673 620 672 608 c 0,23,24
 670.5 590 670.5 590 653 590 c 0,25,26
 574.15 594.15 574.15 594.15 503 523 c 1,27,-1
 341 354 l 1,28,29
 400 282 400 282 460.5 222.5 c 1,30,-1
 594 86.5 l 2,31,32
 634.15 44.8059 634.15 44.8059 675 40 c 0,33,34
 683 39 683 39 691 37.5 c 128,-1,35
 699 36 699 36 699.5 16.5 c 128,-1,36
 700 -3 700 -3 682 -3 c 1,37,38
 634 0 634 0 623 0 c 2,39,-1
 533 0 l 1,40,-1
 297 267 l 2,41,42
 266.4 302.7 266.4 302.7 232 307 c 1,43,-1
 232 117 l 2,44,45
 232 60.5 232 60.5 260 46.5 c 0,46,47
 273 40 273 40 290.5 40 c 128,-1,48
 308 40 308 40 314.5 38 c 128,-1,49
 321 36 321 36 321.5 16.5 c 128,-1,50
 322 -3 322 -3 304 -3 c 0,51,52
 239 0 239 0 174 0 c 128,-1,53
 109 0 109 0 61 -3 c 1,54,55
 43 -3 43 -3 43.5 16.5 c 128,-1,56
 44 36 44 36 50.5 38 c 128,-1,57
 57 40 57 40 74.5 40 c 128,-1,58
 92 40 92 40 105 46.5 c 128,-1,59
 118 53 118 53 124 64 c 0,60,61
 133 80.5 133 80.5 133 117 c 2,62,-1
 133 514 l 2,63,64
 133 570.5 133 570.5 105 584.5 c 0,65,66
 92 591 92 591 74.5 591 c 128,-1,67
 57 591 57 591 50.5 593 c 128,-1,68
 44 595 44 595 43.5 614.5 c 128,-1,69
 43 634 43 634 61 634 c 1,70,71
 109 631 109 631 174 631 c 128,-1,72
 239 631 239 631 304 634 c 0,0,1
EndSplineSet
Validated: 540705
EndChar

StartChar: L
Encoding: 76 76 8
Width: 571
Flags: HW
HStem: 0 40<43.6484 121.274 241.643 457.427> 591 43<43.6 120.941 242.609 321.388>
VStem: 133 99<81 580.336> 499 58<102.9 170.007>
LayerCount: 2
Fore
SplineSet
304 634 m 0,0,1
 322 634 322 634 321.5 614.5 c 128,-1,2
 321 595 321 595 314 593 c 128,-1,3
 307 591 307 591 290 591 c 128,-1,4
 273 591 273 591 260 584.5 c 128,-1,5
 247 578 247 578 241 567 c 0,6,7
 232 550.5 232 550.5 232 514 c 2,8,-1
 232 102 l 1,9,-1
 234 81 l 2,10,11
 237.951 37.5366 237.951 37.5366 302 40 c 1,12,-1
 392 40 l 1,13,14
 442.815 41.9544 442.815 41.9544 457.907 60.4772 c 0,15,16
 477.246 84.2105 477.246 84.2105 499 156 c 1,17,18
 511.449 187.122 511.449 187.122 549.5 162.5 c 0,19,20
 558 157 558 157 557 147 c 2,21,-1
 537 21 l 1,22,23
 532.5 2.38419e-07 532.5 2.38419e-07 508 0 c 2,24,-1
 180 0 l 2,25,26
 109.5 0 109.5 0 60 -3 c 1,27,28
 43 -3 43 -3 43.5 16.5 c 128,-1,29
 44 36 44 36 50.5 38 c 128,-1,30
 57 40 57 40 74.5 40 c 128,-1,31
 92 40 92 40 105 46.5 c 128,-1,32
 118 53 118 53 124 64 c 0,33,34
 133 80.5 133 80.5 133 117 c 2,35,-1
 133 514 l 2,36,37
 133 570.5 133 570.5 105 584.5 c 0,38,39
 92 591 92 591 74.5 591 c 128,-1,40
 57 591 57 591 50.5 593 c 128,-1,41
 44 595 44 595 43.5 614.5 c 128,-1,42
 43 634 43 634 60 634 c 1,43,44
 109.5 631 109.5 631 174.25 631 c 128,-1,45
 239 631 239 631 304 634 c 0,0,1
EndSplineSet
Validated: 540705
EndChar

StartChar: M
Encoding: 77 77 9
Width: 889
Flags: HW
HStem: -3 43<44.6119 122.398 192.413 268.849 567.612 646.391 768.059 845.388> 591 43<766.609 845.388> 599 36.5<42.0028 91.16>
VStem: 132 49<64.4641 514> 657 99<50.6641 514>
LayerCount: 2
Fore
SplineSet
585 -3 m 0,0,1
 567 -3 567 -3 567.5 16.5 c 128,-1,2
 568 36 568 36 574.5 38 c 128,-1,3
 581 40 581 40 598.5 40 c 128,-1,4
 616 40 616 40 629 46.5 c 128,-1,5
 642 53 642 53 648 64 c 0,6,7
 657 80.5 657 80.5 657 117 c 2,8,-1
 657 514 l 1,9,-1
 654 514 l 1,10,-1
 448 5 l 2,11,12
 444 -5 444 -5 428 -5 c 256,13,14
 413 -5 413 -5 407 5 c 1,15,-1
 182 514 l 1,16,-1
 179 514 l 1,17,-1
 181 117 l 2,18,19
 181 60.28 181 60.28 207.5 46.5 c 0,20,21
 220 40 220 40 237.5 40 c 128,-1,22
 255 40 255 40 261.5 38 c 128,-1,23
 268 36 268 36 269 16.5 c 128,-1,24
 270 -3 270 -3 252 -3 c 1,25,26
 204 0 204 0 190 0 c 0,27,28
 162.25 0 162.25 0 136.125 0 c 128,-1,29
 110 0 110 0 62 -3 c 1,30,31
 44 -3 44 -3 44.5 16.5 c 128,-1,32
 45 36 45 36 51.5 38 c 128,-1,33
 58 40 58 40 75.5 40 c 128,-1,34
 93 40 93 40 105.5 46.5 c 128,-1,35
 118 53 118 53 124 64 c 0,36,37
 132 78.6667 132 78.6667 132 117 c 2,38,-1
 134 514 l 2,39,40
 134 558.471 134 558.471 121.5 570.235 c 0,41,42
 103 587.647 103 587.647 78 592.323 c 128,-1,43
 53 597 53 597 47.5 599 c 128,-1,44
 42 601 42 601 42 617.5 c 128,-1,45
 42 634 42 634 53.5 635.5 c 128,-1,46
 65 637 65 637 92 637 c 128,-1,47
 119 637 119 637 149 632.5 c 128,-1,48
 179 628 179 628 203.5 617 c 0,49,50
 252.93 594.807 252.93 594.807 280 531 c 1,51,-1
 452 145 l 1,52,-1
 455 145 l 1,53,-1
 652 631 l 1,54,-1
 709 631 l 2,55,56
 780 631 780 631 828 634 c 1,57,58
 846 634 846 634 845.5 614.5 c 128,-1,59
 845 595 845 595 838 593 c 128,-1,60
 831 591 831 591 814 591 c 128,-1,61
 797 591 797 591 784 584.5 c 128,-1,62
 771 578 771 578 765 567 c 0,63,64
 756 550.5 756 550.5 756 514 c 2,65,-1
 756 117 l 2,66,67
 756 60.5 756 60.5 784 46.5 c 0,68,69
 797 40 797 40 814 40 c 128,-1,70
 831 40 831 40 838 38 c 128,-1,71
 845 36 845 36 845.5 16.5 c 128,-1,72
 846 -3 846 -3 828 -3 c 1,73,74
 780 0 780 0 714.5 0 c 128,-1,75
 649 0 649 0 585 -3 c 0,0,1
EndSplineSet
Validated: 540673
EndChar

StartChar: N
Encoding: 78 78 10
Width: 737
Flags: HW
HStem: -3 43<44.6119 122.398 192.413 269.388> 593 41<478.094 552.899 626.646 702.463>
VStem: 132 49<64.4641 514> 568 45<171 566.536>
LayerCount: 2
Fore
SplineSet
685 634 m 1,0,1
 703 634 703 634 702.5 614.5 c 128,-1,2
 702 595 702 595 695.5 593 c 128,-1,3
 689 591 689 591 671.5 591 c 128,-1,4
 654 591 654 591 641.5 584.5 c 128,-1,5
 629 578 629 578 623 567 c 0,6,7
 615 552.333 615 552.333 615 514 c 2,8,-1
 613 10 l 1,9,10
 611.375 -3 611.375 -3 590.188 -3 c 128,-1,11
 569 -3 569 -3 559 10 c 2,12,-1
 182 514 l 1,13,-1
 179 514 l 1,14,-1
 181 117 l 2,15,16
 181 60.28 181 60.28 207.5 46.5 c 0,17,18
 220 40 220 40 237.5 40 c 128,-1,19
 255 40 255 40 262 38 c 128,-1,20
 269 36 269 36 269.5 16.5 c 128,-1,21
 270 -3 270 -3 252 -3 c 1,22,23
 236 -2 236 -2 224.5 -1.5 c 2,24,-1
 202.5 -0.5 l 2,25,26
 192 0 192 0 181 0 c 0,27,28
 155.25 0 155.25 0 132.625 0 c 128,-1,29
 110 0 110 0 62 -3 c 1,30,31
 44 -3 44 -3 44.5 16.5 c 128,-1,32
 45 36 45 36 51.5 38 c 128,-1,33
 58 40 58 40 75.5 40 c 128,-1,34
 93 40 93 40 105.5 46.5 c 128,-1,35
 118 53 118 53 124 64 c 0,36,37
 132 78.6667 132 78.6667 132 117 c 2,38,-1
 134 514 l 2,39,40
 134 558 134 558 122 570 c 0,41,42
 104.2 587.8 104.2 587.8 78.1 592.4 c 128,-1,43
 52 597 52 597 47 599.5 c 128,-1,44
 42 602 42 602 42 618 c 128,-1,45
 42 634 42 634 53.5 635.5 c 128,-1,46
 65 637 65 637 94.5 637 c 128,-1,47
 124 637 124 637 153 632 c 128,-1,48
 182 627 182 627 205 615 c 0,49,50
 243.632 594.844 243.632 594.844 291 531 c 2,51,-1
 565 171 l 1,52,-1
 568 171 l 1,53,-1
 566 514 l 2,54,55
 566 570.72 566 570.72 539.5 584.5 c 0,56,57
 527 591 527 591 509.5 591 c 128,-1,58
 492 591 492 591 485.5 593 c 128,-1,59
 479 595 479 595 478 614.5 c 128,-1,60
 477 634 477 634 495 634 c 1,61,62
 543 631 543 631 559.5 631 c 0,63,64
 588 631 588 631 607.5 631 c 128,-1,65
 627 631 627 631 637 631.5 c 2,66,-1
 658 632.5 l 2,67,68
 669 633 669 633 685 634 c 1,0,1
EndSplineSet
Validated: 540673
EndChar

StartChar: O
Encoding: 79 79 11
Width: 735
Flags: HW
HStem: -20 44<281.654 449.853> 608 43<278.826 451.055>
VStem: 47 117<185.608 436.563> 569 119<195.282 447.128>
LayerCount: 2
Fore
SplineSet
376 651 m 0,0,1
 441 651 441 651 500.5 624 c 128,-1,2
 560 597 560 597 601.5 551.5 c 0,3,4
 688 456.663 688 456.663 688 325 c 0,5,6
 688 169.828 688 169.828 582.5 70 c 0,7,8
 487.386 -20 487.386 -20 366 -20 c 0,9,10
 222.659 -20 222.659 -20 133 79.5 c 0,11,12
 47 174.939 47 174.939 47 307 c 0,13,14
 47 462.522 47 462.522 151 562 c 0,15,16
 244.045 651 244.045 651 376 651 c 0,0,1
276 47.5 m 0,17,18
 314 24 314 24 366 24 c 128,-1,19
 418 24 418 24 456.5 48.5 c 128,-1,20
 495 73 495 73 520 114.5 c 0,21,22
 569 195.84 569 195.84 569 325 c 0,23,24
 569 516.597 569 516.597 454.5 585 c 0,25,26
 416 608 416 608 364 608 c 128,-1,27
 312 608 312 608 274 584 c 128,-1,28
 236 560 236 560 211.5 519 c 0,29,30
 164 439.51 164 439.51 164 310 c 0,31,32
 164 116.763 164 116.763 276 47.5 c 0,17,18
EndSplineSet
Validated: 540673
EndChar

StartChar: P
Encoding: 80 80 12
Width: 604
Flags: HW
HStem: -3 43<42.6119 122.391 243.059 321.388> 245 45<232.001 393.47> 591 43<42.6119 120.941 246.482 399.468>
VStem: 133 98<50.6641 261 294.085 580.336> 469 111<365.777 529.487>
LayerCount: 2
Fore
SplineSet
60 634 m 1,0,1
 108 631 108 631 180 631 c 2,2,-1
 330 631 l 2,3,4
 514.508 631 514.508 631 566 522.5 c 0,5,6
 580 493 580 493 580 448.5 c 128,-1,7
 580 404 580 404 558.5 366 c 128,-1,8
 537 328 537 328 501.5 301 c 0,9,10
 427.87 245 427.87 245 350.235 245 c 128,-1,11
 272.6 245 272.6 245 231 261 c 1,12,-1
 231 117 l 2,13,14
 231 60.5 231 60.5 259 46.5 c 0,15,16
 272 40 272 40 289.5 40 c 128,-1,17
 307 40 307 40 314 38 c 128,-1,18
 321 36 321 36 321.5 16.5 c 128,-1,19
 322 -3 322 -3 304 -3 c 0,20,21
 239 0 239 0 173.5 0 c 128,-1,22
 108 0 108 0 60 -3 c 1,23,24
 42 -3 42 -3 42.5 16.5 c 128,-1,25
 43 36 43 36 50 38 c 128,-1,26
 57 40 57 40 74.5 40 c 128,-1,27
 92 40 92 40 105 46.5 c 128,-1,28
 118 53 118 53 124 64 c 0,29,30
 133 80.5 133 80.5 133 117 c 2,31,-1
 133 514 l 2,32,33
 133 570.5 133 570.5 105 584.5 c 0,34,35
 92 591 92 591 74.5 591 c 128,-1,36
 57 591 57 591 50 593 c 128,-1,37
 43 595 43 595 42.5 614.5 c 128,-1,38
 42 634 42 634 60 634 c 1,0,1
231 301 m 1,39,40
 253 290 253 290 302 290 c 256,41,42
 405.311 290 405.311 290 451.5 370.5 c 0,43,44
 469 401 469 401 469 450 c 128,-1,45
 469 499 469 499 448.5 528 c 128,-1,46
 428 557 428 557 399.5 572 c 0,47,48
 357.7 594 357.7 594 294 594 c 256,49,50
 255.375 594 255.375 594 246.188 583.5 c 0,51,52
 231 566.143 231 566.143 231 517 c 2,53,-1
 231 301 l 1,39,40
EndSplineSet
Validated: 540673
EndChar

StartChar: Q
Encoding: 81 81 13
Width: 737
Flags: HW
HStem: -198.955 48.9547<667.731 767.619> -49 46<710.348 752.076> 608 43<279.703 452.791>
VStem: 48 118<185.336 435.984> 571 119<194.018 447.128> 770 62<-140.661 -66.6138>
LayerCount: 2
Fore
SplineSet
735 -150 m 1,0,1
 770 -146.316 770 -146.316 770 -115 c 0,2,3
 770 -92 770 -92 752.5 -71 c 128,-1,4
 735 -50 735 -50 704 -49 c 1,5,6
 701 -35 701 -35 715 -19 c 128,-1,7
 729 -3 729 -3 749 -3 c 128,-1,8
 769 -3 769 -3 781 -7.5 c 128,-1,9
 793 -12 793 -12 804.5 -21.5 c 0,10,11
 832 -44.2174 832 -44.2174 832 -75.1087 c 128,-1,12
 832 -106 832 -106 819.5 -127 c 128,-1,13
 807 -148 807 -148 787.5 -164 c 0,14,15
 746.173 -197.909 746.173 -197.909 695.586 -198.955 c 128,-1,16
 645 -200 645 -200 608.5 -183.5 c 128,-1,17
 572 -167 572 -167 540.5 -143 c 128,-1,18
 509 -119 509 -119 476.5 -91.5 c 128,-1,19
 444 -64 444 -64 413.5 -48.5 c 0,20,21
 367.9 -25.326 367.9 -25.326 324.45 -15.663 c 0,22,23
 219.502 7.67675 219.502 7.67675 165.751 49.3384 c 128,-1,24
 112 91 112 91 80 160 c 128,-1,25
 48 229 48 229 48 309.5 c 128,-1,26
 48 390 48 390 77 454 c 128,-1,27
 106 518 106 518 152 562 c 0,28,29
 245.045 651 245.045 651 367 651 c 0,30,31
 512.747 651 512.747 651 603.5 551.5 c 0,32,33
 690 456.663 690 456.663 690 325 c 0,34,35
 690 154.105 690 154.105 567 57 c 0,36,37
 500.339 4.37288 500.339 4.37288 443 1 c 1,38,-1
 443 -1 l 1,39,40
 492.324 -6.48045 492.324 -6.48045 543.162 -43.2402 c 2,41,-1
 623.5 -101 l 2,42,43
 692.333 -150 692.333 -150 735 -150 c 1,0,1
277.5 45 m 0,44,45
 315 21 315 21 367 21 c 128,-1,46
 419 21 419 21 458 46 c 128,-1,47
 497 71 497 71 522 113 c 0,48,49
 571 195.32 571 195.32 571 325 c 0,50,51
 571 516.597 571 516.597 456.5 585 c 0,52,53
 418 608 418 608 365.5 608 c 128,-1,54
 313 608 313 608 275 584 c 128,-1,55
 237 560 237 560 213 519 c 0,56,57
 166 438.708 166 438.708 166 310 c 0,58,59
 166 116.36 166 116.36 277.5 45 c 0,44,45
EndSplineSet
Validated: 540705
EndChar

StartChar: R
Encoding: 82 82 14
Width: 671
Flags: HW
HStem: -3 41<43.5371 120.319 246.465 321.462 596.871 669.461> 280 39<232 322.816> 591 43<43.6119 120.36 245.736 408.237>
VStem: 133 99<50.6641 280 319 576.958> 469 111<394.966 534.717>
LayerCount: 2
Fore
SplineSet
383 582 m 128,-1,1
 351 594 351 594 316 594 c 128,-1,2
 281 594 281 594 267 590.5 c 128,-1,3
 253 587 253 587 245.5 577.5 c 0,4,5
 232 560.4 232 560.4 232 511 c 2,6,-1
 232 319 l 1,7,-1
 320 319 l 2,8,9
 446.959 319 446.959 319 464.5 414.5 c 0,10,11
 469 439 469 439 469 461 c 128,-1,12
 469 483 469 483 461 507.5 c 128,-1,13
 453 532 453 532 434 551 c 128,-1,0
 415 570 415 570 383 582 c 128,-1,1
61 634 m 1,14,15
 109 631 109 631 180 631 c 2,16,-1
 352 631 l 1,17,18
 464.589 629.154 464.589 629.154 526.5 578.5 c 0,19,20
 580 534.727 580 534.727 580 468 c 0,21,22
 580 383.333 580 383.333 486 328.5 c 0,23,24
 456 311 456 311 418 301 c 1,25,-1
 495 180.5 l 2,26,27
 534 120 534 120 585 67 c 1,28,29
 615.398 43.116 615.398 43.116 634.199 41.058 c 128,-1,30
 653 39 653 39 661 37.5 c 128,-1,31
 669 36 669 36 669.5 16.5 c 128,-1,32
 670 -3 670 -3 652 -3 c 1,33,34
 604 0 604 0 590.5 0 c 2,35,-1
 562 0 l 1,36,37
 488.926 13.9188 488.926 13.9188 437 87 c 0,38,39
 409 125 409 125 385 163.5 c 2,40,-1
 338 240 l 1,41,-1
 325 258 l 2,42,43
 308.5 280 308.5 280 261 280 c 2,44,-1
 232 280 l 1,45,-1
 232 117 l 2,46,47
 232 60.5 232 60.5 260 46.5 c 0,48,49
 273 40 273 40 290 40 c 128,-1,50
 307 40 307 40 314 38 c 128,-1,51
 321 36 321 36 321.5 16.5 c 128,-1,52
 322 -3 322 -3 304 -3 c 0,53,54
 239 0 239 0 174 0 c 128,-1,55
 109 0 109 0 61 -3 c 1,56,57
 43 -3 43 -3 43.5 16.5 c 128,-1,58
 44 36 44 36 50.5 38 c 128,-1,59
 57 40 57 40 74.5 40 c 128,-1,60
 92 40 92 40 105 46.5 c 128,-1,61
 118 53 118 53 124 64 c 0,62,63
 133 80.5 133 80.5 133 117 c 2,64,-1
 133 513 l 2,65,66
 133 568.923 133 568.923 105 584 c 0,67,68
 92 591 92 591 74.5 591 c 128,-1,69
 57 591 57 591 50.5 593 c 128,-1,70
 44 595 44 595 43.5 614.5 c 128,-1,71
 43 634 43 634 61 634 c 1,14,15
EndSplineSet
Validated: 540673
EndChar

StartChar: S
Encoding: 83 83 15
Width: 545
Flags: HW
HStem: -20 40<186.162 342.166> 610 41<197.919 350.181>
VStem: 49 99<53.5725 165.982> 62 93<450.311 567.172> 380 87<487.546 583.643> 401 98<79.7287 197.233>
LayerCount: 2
Fore
SplineSet
148 118 m 0,0,1
 148 20 148 20 265 20 c 0,2,3
 326.125 20 326.125 20 365.5 56 c 0,4,5
 401 88.4571 401 88.4571 401 131.729 c 128,-1,6
 401 175 401 175 376 202 c 128,-1,7
 351 229 351 229 314 249 c 128,-1,8
 277 269 277 269 233.5 287 c 128,-1,9
 190 305 190 305 152 328.5 c 0,10,11
 63.7096 383.101 63.7096 383.101 62 472 c 0,12,13
 59.1568 605.629 59.1568 605.629 192 640.5 c 0,14,15
 232 651 232 651 271.5 651 c 128,-1,16
 311 651 311 651 345 644 c 128,-1,17
 379 637 379 637 406 622 c 0,18,19
 467 588.111 467 588.111 467 525 c 0,20,21
 467 489 467 489 442.5 465.5 c 128,-1,22
 418 442 418 442 385.5 443 c 128,-1,23
 353 444 353 444 342.5 455.5 c 128,-1,24
 332 467 332 467 332 471 c 128,-1,25
 332 475 332 475 339.5 477.5 c 128,-1,26
 347 480 347 480 356 486 c 0,27,28
 380 502 380 502 380 535.5 c 128,-1,29
 380 569 380 569 351 589.5 c 128,-1,30
 322 610 322 610 284 610 c 128,-1,31
 246 610 246 610 222.5 601.5 c 128,-1,32
 199 593 199 593 184 579.5 c 0,33,34
 155 553.4 155 553.4 155 513.7 c 128,-1,35
 155 474 155 474 175 451 c 128,-1,36
 195 428 195 428 237.5 405 c 128,-1,37
 280 382 280 382 326.5 362 c 128,-1,38
 373 342 373 342 411.5 316 c 0,39,40
 499 256.909 499 256.909 499 157 c 0,41,42
 499 81.6032 499 81.6032 430.5 30.5 c 0,43,44
 362.809 -20 362.809 -20 265 -20 c 0,45,46
 49 -20 49 -20 49 124 c 0,47,48
 49 160 49 160 73.5 183.5 c 128,-1,49
 98 207 98 207 130.5 206 c 128,-1,50
 163 205 163 205 173.5 193.5 c 128,-1,51
 184 182 184 182 184 178 c 128,-1,52
 184 174 184 174 178.5 171.5 c 128,-1,53
 173 169 173 169 166 163 c 0,54,55
 148 147.571 148 147.571 148 118 c 0,0,1
EndSplineSet
Validated: 540705
EndChar

StartChar: T
Encoding: 84 84 16
Width: 600
Flags: HW
HStem: -3 43<161.612 240.391 362.059 439.388> 594 37<122.693 251 350 473.04>
VStem: 26 59<446.743 548.856> 251 99<50.6641 594> 516 59<446.989 550.81>
CounterMasks: 1 38
LayerCount: 2
Fore
SplineSet
29 607 m 2,0,1
 29 631 29 631 56 631 c 2,2,-1
 545 631 l 2,3,4
 571 631 571 631 571 607 c 2,5,-1
 575 466 l 2,6,7
 575 446 575 446 550 446 c 0,8,9
 520 446 520 446 516 464 c 1,10,11
 505.657 534.332 505.657 534.332 491.329 556.166 c 0,12,13
 467.756 592.086 467.756 592.086 418 594 c 1,14,-1
 350 594 l 1,15,-1
 350 117 l 2,16,17
 350 60.5 350 60.5 378 46.5 c 0,18,19
 391 40 391 40 408 40 c 128,-1,20
 425 40 425 40 432 38 c 128,-1,21
 439 36 439 36 439.5 16.5 c 128,-1,22
 440 -3 440 -3 422 -3 c 1,23,24
 374 0 374 0 308.5 0 c 128,-1,25
 243 0 243 0 179 -3 c 0,26,27
 161 -3 161 -3 161.5 16.5 c 128,-1,28
 162 36 162 36 168.5 38 c 128,-1,29
 175 40 175 40 192.5 40 c 128,-1,30
 210 40 210 40 223 46.5 c 128,-1,31
 236 53 236 53 242 64 c 0,32,33
 251 80.5 251 80.5 251 117 c 2,34,-1
 251 594 l 1,35,-1
 182 594 l 1,36,37
 132.244 592.086 132.244 592.086 117.122 569.043 c 0,38,39
 95.6318 536.296 95.6318 536.296 85 464 c 1,40,41
 81 446 81 446 53.5 446 c 128,-1,42
 26 446 26 446 26 466 c 2,43,-1
 29 607 l 2,0,1
EndSplineSet
Validated: 540673
EndChar

StartChar: U
Encoding: 85 85 17
Width: 720
Flags: HW
HStem: -20 59<281.254 474.804> 591 43<27.6119 104.941 227.609 305.336 442.612 530.797 613.768 701.336>
VStem: 117 99<105.895 567.026> 544 56<102.045 565.032>
LayerCount: 2
Fore
SplineSet
684 634 m 1,0,1
 702 634 702 634 701.5 615.5 c 128,-1,2
 701 597 701 597 696 594 c 128,-1,3
 691 591 691 591 673 591 c 128,-1,4
 655 591 655 591 638.5 588 c 128,-1,5
 622 585 622 585 613.5 572 c 0,6,7
 600 551.353 600 551.353 600 457 c 2,8,-1
 600 178 l 2,9,10
 600 81.0986 600 81.0986 518.5 26 c 0,11,12
 450.458 -20 450.458 -20 374.729 -20 c 128,-1,13
 299 -20 299 -20 253.5 -3.5 c 128,-1,14
 208 13 208 13 178 40 c 0,15,16
 117 94.9 117 94.9 117 173 c 2,17,-1
 117 514 l 2,18,19
 117 570.5 117 570.5 89 584.5 c 0,20,21
 76 591 76 591 58.5 591 c 128,-1,22
 41 591 41 591 34.5 593 c 128,-1,23
 28 595 28 595 27.5 614.5 c 128,-1,24
 27 634 27 634 45 634 c 1,25,26
 93 631 93 631 158 631 c 128,-1,27
 223 631 223 631 288 634 c 0,28,29
 306 634 306 634 305.5 615.5 c 128,-1,30
 305 597 305 597 300 594 c 128,-1,31
 295 591 295 591 277.5 591 c 128,-1,32
 260 591 260 591 246.5 584.5 c 128,-1,33
 233 578 233 578 226 567.5 c 0,34,35
 216 552.5 216 552.5 216 514 c 2,36,-1
 216 202 l 2,37,38
 216 39 216 39 375 39 c 0,39,40
 509.472 39 509.472 39 536.5 134.5 c 0,41,42
 544 161 544 161 544 188 c 2,43,-1
 544 451 l 2,44,45
 544 547.25 544 547.25 533.5 565.625 c 128,-1,46
 523 584 523 584 507.5 587.5 c 128,-1,47
 492 591 492 591 474.5 591 c 128,-1,48
 457 591 457 591 450 593 c 128,-1,49
 443 595 443 595 442.5 614.5 c 128,-1,50
 442 634 442 634 460 634 c 1,51,52
 508 631 508 631 572 631 c 256,53,54
 636 631 636 631 684 634 c 1,0,1
EndSplineSet
Validated: 540673
EndChar

StartChar: W
Encoding: 87 87 18
Width: 934
Flags: HW
HStem: 593 41<713.56 781.231 857.406 950.463>
LayerCount: 2
Fore
SplineSet
933 634 m 1,0,1
 951 634 951 634 950.5 614.5 c 128,-1,2
 950 595 950 595 943.5 593 c 128,-1,3
 937 591 937 591 912.5 591 c 0,4,5
 847.18 591 847.18 591 828 523 c 1,6,-1
 664 -10 l 1,7,-1
 617 -10 l 1,8,-1
 455 467 l 1,9,-1
 326 -10 l 1,10,-1
 279 -10 l 1,11,-1
 113 510 l 1,12,13
 89.4396 568.901 89.4396 568.901 60.5 584 c 0,14,15
 49 590 49 590 34 593 c 128,-1,16
 19 596 19 596 13.5 598 c 128,-1,17
 8 600 8 600 8 616.5 c 128,-1,18
 8 633 8 633 19.5 634.5 c 128,-1,19
 31 636 31 636 73 635.5 c 0,20,21
 169.296 634.354 169.296 634.354 211 531 c 1,22,-1
 325 165 l 1,23,-1
 329 165 l 1,24,-1
 451 631 l 1,25,-1
 503 631 l 1,26,-1
 666 165 l 1,27,-1
 669 165 l 1,28,-1
 782 542 l 1,29,30
 790 574 790 574 781.5 582.5 c 128,-1,31
 773 591 773 591 750 591 c 128,-1,32
 727 591 727 591 720.5 593 c 128,-1,33
 714 595 714 595 713.5 614.5 c 128,-1,34
 713 634 713 634 730 634 c 1,35,36
 778 631 778 631 816 631 c 2,37,-1
 864.5 631 l 2,38,39
 875 631 875 631 885 631.5 c 2,40,-1
 906 632.5 l 2,41,42
 917 633 917 633 933 634 c 1,0,1
EndSplineSet
Validated: 540705
EndChar

StartChar: X
Encoding: 88 88 19
Width: 653
Flags: HW
HStem: -3 43<7.61194 98.0935 171.073 251.4 382.612 444.747 581.141 658.4> 593 41<37.8629 98.7812 371.56 453.67 527.262 615.463>
LayerCount: 2
Fore
SplineSet
598 634 m 1,0,1
 616 634 616 634 615.5 614.5 c 128,-1,2
 615 595 615 595 608.5 593 c 128,-1,3
 602 591 602 591 587 591 c 128,-1,4
 572 591 572 591 558 587.5 c 128,-1,5
 544 584 544 584 532.5 576.5 c 0,6,7
 514.632 564.847 514.632 564.847 486 523 c 2,8,-1
 369 357 l 1,9,-1
 543 109 l 2,10,11
 560 84 560 84 580.5 62 c 128,-1,12
 601 40 601 40 623 40 c 128,-1,13
 645 40 645 40 651.5 38 c 128,-1,14
 658 36 658 36 658.5 16.5 c 128,-1,15
 659 -3 659 -3 642 -3 c 1,16,17
 594 0 594 0 529 0 c 128,-1,18
 464 0 464 0 400 -3 c 0,19,20
 382 -3 382 -3 382.5 16.5 c 128,-1,21
 383 36 383 36 390 38 c 128,-1,22
 397 40 397 40 417 40 c 128,-1,23
 437 40 437 40 445 55 c 128,-1,24
 453 70 453 70 439 89 c 2,25,-1
 311 272 l 1,26,-1
 183 89 l 2,27,28
 153.619 46.2645 153.619 46.2645 196.5 41.5 c 0,29,30
 210 40 210 40 224 40 c 128,-1,31
 238 40 238 40 244.5 38 c 128,-1,32
 251 36 251 36 251.5 16.5 c 128,-1,33
 252 -3 252 -3 235 -3 c 1,34,35
 187 0 187 0 149 0 c 2,36,-1
 99.5 0 l 2,37,38
 88 0 88 0 76.5 -0.5 c 2,39,-1
 53 -1.5 l 2,40,41
 41 -2 41 -2 25 -3 c 1,42,43
 7 -3 7 -3 7.5 16.5 c 128,-1,44
 8 36 8 36 14.5 38 c 128,-1,45
 21 40 21 40 36 40 c 128,-1,46
 51 40 51 40 64.5 43.5 c 128,-1,47
 78 47 78 47 89.5 54.5 c 0,48,49
 107.992 66.56 107.992 66.56 137 108 c 2,50,-1
 282 314 l 1,51,-1
 154 515 l 1,52,53
 111.373 579.793 111.373 579.793 51 593 c 0,54,55
 37 596 37 596 31.5 598 c 128,-1,56
 26 600 26 600 26 616.5 c 128,-1,57
 26 633 26 633 37.5 634.5 c 128,-1,58
 49 636 49 636 75 636 c 128,-1,59
 101 636 101 636 128.5 630.5 c 128,-1,60
 156 625 156 625 178.5 612.5 c 0,61,62
 216.632 591.316 216.632 591.316 259 532 c 1,63,-1
 341 398 l 1,64,-1
 440 542 l 2,65,66
 460.88 572.371 460.88 572.371 449.94 580.186 c 0,67,68
 434.8 591 434.8 591 409.9 591 c 128,-1,69
 385 591 385 591 378.5 593 c 128,-1,70
 372 595 372 595 371.5 614.5 c 128,-1,71
 371 634 371 634 388 634 c 1,72,73
 436 631 436 631 474 631 c 2,74,-1
 523.5 631 l 2,75,76
 535 631 535 631 546.5 631.5 c 2,77,-1
 570 632.5 l 2,78,79
 582 633 582 633 598 634 c 1,0,1
EndSplineSet
Validated: 540705
EndChar

StartChar: Y
Encoding: 89 89 20
Width: 621
Flags: HW
HStem: -3 43<172.612 251.391 373.059 450.4> 591 40<15.8629 80.5656 386.648 461.742 539.49 630.336>
VStem: 262 99<50.6641 295.742>
LayerCount: 2
Fore
SplineSet
190 -3 m 0,0,1
 172 -3 172 -3 172.5 16.5 c 128,-1,2
 173 36 173 36 180 38 c 128,-1,3
 187 40 187 40 204 40 c 128,-1,4
 221 40 221 40 234 46.5 c 128,-1,5
 247 53 247 53 253 64 c 0,6,7
 262 80.5 262 80.5 262 117 c 2,8,-1
 262 242 l 2,9,10
 262 253.5 262 253.5 242.5 295.75 c 1,11,12
 170.891 442.045 170.891 442.045 154.946 472.022 c 2,13,-1
 132 515 l 1,14,15
 97.131 578.096 97.131 578.096 29 593 c 0,16,17
 15 596 15 596 9.5 598 c 128,-1,18
 4 600 4 600 4 616.5 c 128,-1,19
 4 633 4 633 15.5 634.5 c 128,-1,20
 27 636 27 636 53 636 c 128,-1,21
 79 636 79 636 107 631 c 128,-1,22
 135 626 135 626 158 614 c 0,23,24
 202.77 590.642 202.77 590.642 233.885 534.321 c 128,-1,25
 265 478 265 478 288.5 427.5 c 128,-1,26
 312 377 312 377 341 323 c 1,27,-1
 344 323 l 1,28,-1
 455 542 l 2,29,30
 471.286 572.762 471.286 572.762 462.143 580.381 c 0,31,32
 449.4 591 449.4 591 424.7 591 c 128,-1,33
 400 591 400 591 393.5 593 c 128,-1,34
 387 595 387 595 386.5 614.5 c 128,-1,35
 386 634 386 634 403 634 c 1,36,37
 451 631 451 631 489 631 c 2,38,-1
 538.5 631 l 2,39,40
 550 631 550 631 561.5 631.5 c 2,41,-1
 585 632.5 l 2,42,43
 597 633 597 633 613 634 c 1,44,45
 631 634 631 634 630.5 614.5 c 128,-1,46
 630 595 630 595 623.5 593 c 128,-1,47
 617 591 617 591 592.5 591 c 0,48,49
 537.914 591 537.914 591 501 523 c 2,50,-1
 388 310 l 1,51,-1
 376 285 l 2,52,53
 361 255 361 255 361 214 c 2,54,-1
 361 117 l 2,55,56
 361 60.5 361 60.5 389 46.5 c 0,57,58
 402 40 402 40 419.5 40 c 128,-1,59
 437 40 437 40 443.5 38 c 128,-1,60
 450 36 450 36 450.5 16.5 c 128,-1,61
 451 -3 451 -3 434 -3 c 1,62,63
 386 0 386 0 320 0 c 128,-1,64
 254 0 254 0 190 -3 c 0,0,1
EndSplineSet
Validated: 540705
EndChar

StartChar: Z
Encoding: 90 90 21
Width: 621
Flags: HW
HStem: 0 40<38.6465 108.088 243.459 477.427> 591 40<145.589 375.192 507.767 581.319>
VStem: 49 54<468.673 528.1> 520 54<102.9 162.327>
LayerCount: 2
Fore
SplineSet
172 0 m 2,0,1
 100 0 100 0 71.5 -1.5 c 128,-1,2
 43 -3 43 -3 38.5 4 c 128,-1,3
 34 11 34 11 35 23.5 c 128,-1,4
 36 36 36 36 42.5 38 c 128,-1,5
 49 40 49 40 60.5 40 c 128,-1,6
 72 40 72 40 81 42 c 128,-1,7
 90 44 90 44 98.5 50 c 0,8,9
 111.577 59.2308 111.577 59.2308 134 100 c 2,10,-1
 358 515 l 1,11,12
 383.018 568.886 383.018 568.886 375.509 578.443 c 0,13,14
 365.643 591 365.643 591 319 591 c 2,15,-1
 210 591 l 1,16,17
 160.218 589.085 160.218 589.085 145.109 570.543 c 0,18,19
 124.162 544.836 124.162 544.836 103 475 c 0,20,21
 97.3103 456.034 97.3103 456.034 79.6552 459.517 c 128,-1,22
 62 463 62 463 55 468.5 c 128,-1,23
 48 474 48 474 49 484 c 2,24,-1
 69 610 l 1,25,26
 73.5 631 73.5 631 98 631 c 2,27,-1
 441 631 l 2,28,29
 499 631 499 631 564 634 c 0,30,31
 582 634 582 634 581.5 614.5 c 128,-1,32
 581 595 581 595 574.5 593.5 c 128,-1,33
 568 592 568 592 553.5 591 c 128,-1,34
 539 590 539 590 525 582.5 c 128,-1,35
 511 575 511 575 500.5 564.5 c 128,-1,36
 490 554 490 554 482.5 541 c 2,37,-1
 249 100 l 1,38,39
 230.929 59.3412 230.929 59.3412 256.5 46 c 0,40,41
 268 40 268 40 294 40 c 2,42,-1
 412 40 l 1,43,44
 462.815 41.9544 462.815 41.9544 477.907 60.4772 c 0,45,46
 498.838 86.1645 498.838 86.1645 520 156 c 0,47,48
 525.69 174.965 525.69 174.965 543.345 171.483 c 128,-1,49
 561 168 561 168 568 162.5 c 128,-1,50
 575 157 575 157 574 147 c 2,51,-1
 554 21 l 1,52,53
 549.5 2.38419e-07 549.5 2.38419e-07 525 0 c 2,54,-1
 172 0 l 2,0,1
EndSplineSet
Validated: 540705
EndChar

StartChar: a
Encoding: 97 97 22
Width: 501
Flags: HW
HStem: -12 54<154.083 257.285> -12 39<441.314 480.596> 436 29<175.187 284.031>
VStem: 34 101<63.53 173.337> 70 76<323.578 416.166> 326 88<97.1274 227 254.908 400.746>
LayerCount: 2
Fore
SplineSet
326 336 m 2,0,1
 326 436 326 436 223 436 c 0,2,3
 194 436 194 436 170 418 c 128,-1,4
 146 400 146 400 146 377 c 128,-1,5
 146 354 146 354 151 344.5 c 128,-1,6
 156 335 156 335 162 329 c 128,-1,7
 168 323 168 323 173 319 c 128,-1,8
 178 315 178 315 178 312 c 128,-1,9
 178 309 178 309 166.5 299 c 128,-1,10
 155 289 155 289 129 289 c 128,-1,11
 103 289 103 289 86.5 312 c 128,-1,12
 70 335 70 335 70 363 c 256,13,14
 70 439.912 70 439.912 171.5 459.5 c 0,15,16
 200 465 200 465 229 465 c 0,17,18
 414 465 414 465 414 319 c 2,19,-1
 414 86 l 2,20,21
 414 51.05 414 51.05 441 33.5 c 0,22,23
 451 27 451 27 466 27 c 128,-1,24
 481 27 481 27 481 11 c 0,25,26
 481 -12 481 -12 435 -12 c 128,-1,27
 389 -12 389 -12 360 9.5 c 128,-1,28
 331 31 331 31 326 69 c 1,29,30
 294.403 11.5517 294.403 11.5517 203.5 -7 c 0,31,32
 179 -12 179 -12 155.5 -12 c 128,-1,33
 132 -12 132 -12 109.5 -2.5 c 128,-1,34
 87 7 87 7 70.5 23 c 0,35,36
 34 58.3939 34 58.3939 34 100.697 c 128,-1,37
 34 143 34 143 51.5 168 c 128,-1,38
 69 193 69 193 96 209 c 128,-1,39
 123 225 123 225 156.5 234 c 128,-1,40
 190 243 190 243 222.5 247.5 c 128,-1,41
 255 252 255 252 282.5 253.5 c 128,-1,42
 310 255 310 255 326 257 c 1,43,-1
 326 336 l 2,0,1
326 227 m 1,44,45
 224.152 214.269 224.152 214.269 191.576 197.634 c 0,46,47
 135 168.745 135 168.745 135 128.372 c 128,-1,48
 135 88 135 88 153 65 c 128,-1,49
 171 42 171 42 198 42 c 128,-1,50
 225 42 225 42 248 52 c 128,-1,51
 271 62 271 62 288.5 79 c 0,52,53
 326 115.429 326 115.429 326 171 c 2,54,-1
 326 227 l 1,44,45
EndSplineSet
Validated: 540673
EndChar

StartChar: b
Encoding: 98 98 23
Width: 561
Flags: HW
HStem: -12 34<220.702 341.626> 415 50<220.56 347.484>
VStem: 78 91<62.6213 389.125 407 652.978> 78 40<-13.9561 36.7499> 418 102<125.878 334.645>
LayerCount: 2
Fore
SplineSet
97 -14 m 0,0,1
 78 -14 78 -14 78 6 c 2,2,-1
 78 615.5 l 2,3,4
 78 658 78 658 27 658 c 0,5,6
 18 658 18 658 10.5 660.5 c 128,-1,7
 3 663 3 663 3 673.5 c 0,8,9
 3 692 3 692 19 696 c 1,10,11
 79.2856 704.865 79.2856 704.865 110.643 715.933 c 0,12,13
 154.624 731.455 154.624 731.455 161.812 726.228 c 128,-1,14
 169 721 169 721 169 709 c 2,15,-1
 169 407 l 1,16,-1
 172 407 l 1,17,18
 230 465 230 465 310 465 c 0,19,20
 399.742 465 399.742 465 459.5 400 c 0,21,22
 520 334.193 520 334.193 520 230 c 0,23,24
 520 129.206 520 129.206 450.5 57.5 c 0,25,26
 383.138 -12 383.138 -12 292.569 -12 c 128,-1,27
 202 -12 202 -12 137 37 c 1,28,-1
 132 37 l 1,29,30
 128 29 128 29 125 20.5 c 128,-1,31
 122 12 122 12 118 4 c 0,32,33
 109 -14 109 -14 97 -14 c 0,0,1
340 398.5 m 0,34,35
 313 415 313 415 261.909 415 c 128,-1,36
 210.818 415 210.818 415 169 369 c 1,37,-1
 169 105 l 1,38,39
 177.683 57.2426 177.683 57.2426 236 31 c 0,40,41
 256 22 256 22 284 22 c 128,-1,42
 312 22 312 22 337 36 c 128,-1,43
 362 50 362 50 380 76.5 c 0,44,45
 418 132.444 418 132.444 418 226 c 0,46,47
 418 350.833 418 350.833 340 398.5 c 0,34,35
EndSplineSet
Validated: 540705
EndChar

StartChar: c
Encoding: 99 99 24
Width: 475
Flags: HW
HStem: -12 50<213.692 347.829> 428 37<208.939 332.326>
VStem: 42 101<116.709 325.713>
LayerCount: 2
Fore
SplineSet
277 428 m 1,0,1
 143 428 143 428 143 230 c 0,2,3
 143 97.6731 143 97.6731 224 52.5 c 0,4,5
 250 38 250 38 288 38 c 0,6,7
 361.658 38 361.658 38 411 113 c 0,8,9
 418 123 418 123 428.5 117 c 0,10,11
 450.362 104.507 450.362 104.507 440 90 c 0,12,13
 407 42 407 42 358.5 15 c 128,-1,14
 310 -12 310 -12 259 -12 c 256,15,16
 104.068 -12 104.068 -12 56 129 c 0,17,18
 41 173 41 173 42 226 c 128,-1,19
 43 279 43 279 61.5 322 c 128,-1,20
 80 365 80 365 111.5 396.5 c 0,21,22
 175.826 460.826 175.826 460.826 276 465 c 1,23,24
 408.867 465 408.867 465 431 382 c 1,25,26
 439.444 346.111 439.444 346.111 426.222 323.556 c 0,27,28
 402.448 283 402.448 283 372.724 283 c 128,-1,29
 343 283 343 283 331 294 c 128,-1,30
 319 305 319 305 319 308 c 128,-1,31
 319 311 319 311 324 315 c 128,-1,32
 329 319 329 319 335.5 326 c 0,33,34
 352 343.769 352 343.769 352 370.385 c 128,-1,35
 352 397 352 397 329 412 c 128,-1,36
 306 427 306 427 277 428 c 1,0,1
EndSplineSet
Validated: 540705
EndChar

StartChar: d
Encoding: 100 100 25
Width: 580
Flags: HW
HStem: -12 50<213.821 336.522> 0 33<500.3 576.934> 429 36<222.812 344.581>
VStem: 41 103<118.582 328.999> 391 91<46.8425 49 68.5176 390.647 437 652.978>
LayerCount: 2
Fore
SplineSet
222.5 53.5 m 0,0,1
 249 38 249 38 296.316 38 c 128,-1,2
 343.632 38 343.632 38 391 88 c 1,3,-1
 391 352 l 1,4,5
 374.604 401.188 374.604 401.188 324.5 421.5 c 0,6,7
 306 429 306 429 279.5 429 c 128,-1,8
 253 429 253 429 228 415 c 128,-1,9
 203 401 203 401 184 374.5 c 0,10,11
 144 318.711 144 318.711 144 222 c 0,12,13
 144 99.4151 144 99.4151 222.5 53.5 c 0,0,1
391 615.5 m 2,14,15
 391 658 391 658 340 658 c 0,16,17
 331 658 331 658 323.5 660.5 c 128,-1,18
 316 663 316 663 316 673.5 c 0,19,20
 316 692 316 692 332 696 c 1,21,22
 392.286 704.866 392.286 704.866 423.643 715.933 c 0,23,24
 467.624 731.455 467.624 731.455 474.812 726.228 c 128,-1,25
 482 721 482 721 482 709 c 2,26,-1
 482 92 l 2,27,28
 482 33 482 33 560 33 c 0,29,30
 577 33 577 33 577 18 c 128,-1,31
 577 3 577 3 560 0 c 1,32,-1
 401 -11 l 2,33,34
 392 -11 392 -11 392 9 c 2,35,-1
 392 49 l 1,36,-1
 389 49 l 1,37,38
 328 -12 328 -12 251 -12 c 0,39,40
 165.222 -12 165.222 -12 104 54.5 c 0,41,42
 41 122.931 41 122.931 41 227 c 0,43,44
 41 322.806 41 322.806 106 392 c 0,45,46
 174.576 465 174.576 465 256.519 465 c 128,-1,47
 338.462 465 338.462 465 388 437 c 1,48,-1
 391 437 l 1,49,-1
 391 615.5 l 2,14,15
EndSplineSet
Validated: 540705
EndChar

StartChar: e
Encoding: 101 101 26
Width: 502
Flags: HW
HStem: -12 50<218.653 372.722> 240 38<143 352.576> 430 35<203.118 318.003>
VStem: 41 102<122.006 240 278 330.409> 360 94.5<285.049 376.23>
LayerCount: 2
Fore
SplineSet
306 278 m 2,0,1
 356.348 278 356.348 278 360 320 c 1,2,3
 360 394 360 394 306 421 c 0,4,5
 288 430 288 430 250.5 430 c 128,-1,6
 213 430 213 430 180 390 c 128,-1,7
 147 350 147 350 143 278 c 1,8,-1
 306 278 l 2,0,1
461 93 m 0,9,10
 394.571 -12 394.571 -12 275 -12 c 0,11,12
 162.394 -12 162.394 -12 100 59 c 0,13,14
 41 126.138 41 126.138 41 229 c 0,15,16
 41 321.19 41 321.19 101 390.5 c 0,17,18
 165.493 465 165.493 465 264 465 c 0,19,20
 395.516 465 395.516 465 439.5 364 c 0,21,22
 453 333 453 333 454.5 297.5 c 128,-1,23
 456 262 456 262 436.5 251 c 128,-1,24
 417 240 417 240 386 240 c 2,25,-1
 143 240 l 1,26,27
 143 96 143 96 229 53 c 0,28,29
 259 38 259 38 301 38 c 256,30,31
 343 38 343 38 373 56 c 128,-1,32
 403 74 403 74 431 119 c 1,33,34
 439 129 439 129 450 122 c 0,35,36
 471.298 108.447 471.298 108.447 461 93 c 0,9,10
EndSplineSet
Validated: 540705
EndChar

StartChar: f
Encoding: 102 102 27
Width: 343
Flags: HW
HStem: -3 38<42.588 109.974 214.026 281.424> 414 39<22.5601 116 208 330.439>
VStem: 116 92<40.022 414 453 613.847> 352 76<589.089 677.485>
LayerCount: 2
Fore
SplineSet
39 414 m 2,0,1
 22 414 22 414 22.5 432 c 128,-1,2
 23 450 23 450 29.5 451.5 c 128,-1,3
 36 453 36 453 46 453 c 2,4,-1
 116 453 l 1,5,-1
 116 490 l 2,6,7
 116 651 116 651 221 705 c 0,8,9
 281.704 736.219 281.704 736.219 346.5 717.5 c 0,10,11
 392.777 704.131 392.777 704.131 410.389 676.565 c 128,-1,12
 428 649 428 649 428 623.5 c 128,-1,13
 428 598 428 598 411 574.5 c 128,-1,14
 394 551 394 551 367.5 551 c 128,-1,15
 341 551 341 551 329.5 561.5 c 128,-1,16
 318 572 318 572 318 575.5 c 128,-1,17
 318 579 318 579 323.5 583 c 128,-1,18
 329 587 329 587 335 594.5 c 0,19,20
 352 615.75 352 615.75 352 637.875 c 128,-1,21
 352 660 352 660 335.5 675.5 c 128,-1,22
 319 691 319 691 290 691 c 128,-1,23
 261 691 261 691 243.5 670.5 c 128,-1,24
 226 650 226 650 218 621 c 0,25,26
 208 584.75 208 584.75 208 508 c 2,27,-1
 208 453 l 1,28,-1
 306 453 l 2,29,30
 316 453 316 453 323 451.5 c 128,-1,31
 330 450 330 450 330.5 432 c 128,-1,32
 331 414 331 414 314 414 c 2,33,-1
 208 414 l 1,34,-1
 208 77.5 l 2,35,36
 208 35 208 35 259 35 c 0,37,38
 269 35 269 35 275 33.5 c 128,-1,39
 281 32 281 32 281.5 14.5 c 128,-1,40
 282 -3 282 -3 267 -3 c 1,41,42
 162.5 4.2069 162.5 4.2069 58 -3 c 1,43,44
 42 -3 42 -3 42.5 14.5 c 128,-1,45
 43 32 43 32 49 33.5 c 128,-1,46
 55 35 55 35 65 35 c 0,47,48
 116 35 116 35 116 77.5 c 2,49,-1
 116 414 l 1,50,-1
 39 414 l 2,0,1
EndSplineSet
Validated: 540705
EndChar

StartChar: g
Encoding: 103 103 28
Width: 523
Flags: HW
HStem: -218 37<155.865 365.979> -2.5 79.5<117.588 385.15> 159 29<195.672 299.894> 410 62<459.115 510.873> 435 31<192.292 302.306>
VStem: 27 100<-158.852 -53.499> 55 89<238.709 387.201> 56 57<52.0739 145.327> 352 90<239.466 388.694> 417 89<-127.868 -31.0362>
LayerCount: 2
Fore
SplineSet
511 465 m 128,-1,1
 515 457 515 457 515 433.5 c 128,-1,2
 515 410 515 410 500 410 c 2,3,-1
 401 414 l 1,4,-1
 401 412 l 1,5,6
 442 371 442 371 442 324.5 c 128,-1,7
 442 278 442 278 426 249 c 128,-1,8
 410 220 410 220 383.5 200 c 0,9,10
 329.175 159 329.175 159 256 159 c 2,11,-1
 212 159 l 2,12,13
 113 159 113 159 113 116 c 0,14,15
 113 80.5152 113 80.5152 171 77 c 1,16,-1
 308 73 l 1,17,18
 506 73 506 73 506 -51 c 0,19,20
 506 -171.531 506 -171.531 348 -207 c 0,21,22
 299 -218 299 -218 239 -218 c 0,23,24
 27 -218 27 -218 27 -98 c 0,25,26
 27 -65 27 -65 48 -39.5 c 128,-1,27
 69 -14 69 -14 92.5 -14 c 128,-1,28
 116 -14 116 -14 125.5 -17.5 c 128,-1,29
 135 -21 135 -21 142 -26 c 0,30,31
 157 -36.7143 157 -36.7143 157 -41.3571 c 128,-1,32
 157 -46 157 -46 152.5 -50 c 128,-1,33
 148 -54 148 -54 142 -61 c 0,34,35
 127 -78.5 127 -78.5 127 -114.75 c 128,-1,36
 127 -151 127 -151 161.5 -166 c 128,-1,37
 196 -181 196 -181 269 -181 c 0,38,39
 417 -181 417 -181 417 -76 c 0,40,41
 417 -14.1207 417 -14.1207 317 -5.5 c 0,42,43
 288 -3 288 -3 257 -2.5 c 0,44,45
 169.676 -1.09155 169.676 -1.09155 136.338 4.95423 c 0,46,47
 56 19.5233 56 19.5233 56 86 c 0,48,49
 56 123 56 123 82 150.5 c 128,-1,50
 108 178 108 178 162 178 c 1,51,52
 55 218.125 55 218.125 55 313 c 0,53,54
 55 378.49 55 378.49 108.5 421.5 c 0,55,56
 163.854 466 163.854 466 241.427 466 c 128,-1,57
 319 466 319 466 359 446 c 1,58,-1
 496 472 l 1,59,0
 507 473 507 473 511 465 c 128,-1,1
322.5 403 m 128,-1,61
 293 435 293 435 247.5 435 c 128,-1,62
 202 435 202 435 173 404 c 128,-1,63
 144 373 144 373 144 313.5 c 128,-1,64
 144 254 144 254 173.5 221 c 128,-1,65
 203 188 203 188 248.5 188 c 128,-1,66
 294 188 294 188 323 220.5 c 128,-1,67
 352 253 352 253 352 312 c 128,-1,60
 352 371 352 371 322.5 403 c 128,-1,61
EndSplineSet
Validated: 540705
EndChar

StartChar: h
Encoding: 104 104 29
Width: 589
Flags: HW
HStem: -3 38<23.588 91.6035 195.026 262.424 334.588 401.974 506.026 573.424> 410 55<260.536 375.382>
VStem: 98 91<55.8688 369.589 388 653.978> 408 92<40.022 379.667>
LayerCount: 2
Fore
SplineSet
98 616.5 m 2,0,1
 98 659 98 659 47 659 c 0,2,3
 38 659 38 659 30.5 661.5 c 128,-1,4
 23 664 23 664 23 674.5 c 0,5,6
 23 693 23 693 39 697 c 1,7,8
 99.2856 705.865 99.2856 705.865 130.643 716.933 c 0,9,10
 174.624 732.455 174.624 732.455 181.812 727.228 c 128,-1,11
 189 722 189 722 189 710 c 2,12,-1
 189 388 l 1,13,-1
 191 388 l 1,14,-1
 221 415.5 l 2,15,16
 276 465 276 465 348.5 465 c 128,-1,17
 421 465 421 465 460.5 424 c 128,-1,18
 500 383 500 383 500 316 c 2,19,-1
 500 77.5 l 2,20,21
 500 35 500 35 551 35 c 0,22,23
 561 35 561 35 567 33.5 c 128,-1,24
 573 32 573 32 573.5 14.5 c 128,-1,25
 574 -3 574 -3 559 -3 c 1,26,27
 454.5 4.2069 454.5 4.2069 350 -3 c 1,28,29
 334 -3 334 -3 334.5 14.5 c 128,-1,30
 335 32 335 32 341 33.5 c 128,-1,31
 347 35 347 35 357 35 c 0,32,33
 408 35 408 35 408 77.5 c 2,34,-1
 408 315 l 2,35,36
 408 361.519 408 361.519 386 380.259 c 0,37,38
 351.087 410 351.087 410 319.043 410 c 128,-1,39
 287 410 287 410 266 402.5 c 128,-1,40
 245 395 245 395 229 384 c 0,41,42
 198.92 363.32 198.92 363.32 189 341 c 1,43,-1
 189 77.5 l 2,44,45
 189 35 189 35 240 35 c 0,46,47
 250 35 250 35 256 33.5 c 128,-1,48
 262 32 262 32 262.5 14.5 c 128,-1,49
 263 -3 263 -3 248 -3 c 1,50,51
 143.5 4.2069 143.5 4.2069 39 -3 c 1,52,53
 23 -3 23 -3 23.5 14.5 c 128,-1,54
 24 32 24 32 30.5 33.5 c 128,-1,55
 37 35 37 35 52 35 c 128,-1,56
 67 35 67 35 77.5 40.5 c 128,-1,57
 88 46 88 46 92.5 55.5 c 0,58,59
 98 67.1111 98 67.1111 98 103 c 2,60,-1
 98 616.5 l 2,0,1
EndSplineSet
Validated: 540705
EndChar

StartChar: i
Encoding: 105 105 30
Width: 297
Flags: HW
HStem: -3 38<38.1303 102.974 206.145 274.412> 591 120<95.8473 195.552>
VStem: 78 132<605.164 692.635> 109 91<40.4889 394.978>
LayerCount: 2
Fore
SplineSet
193 609.5 m 128,-1,1
 176 591 176 591 154.5 591 c 128,-1,2
 133 591 133 591 121.5 594 c 128,-1,3
 110 597 110 597 100.5 604.5 c 0,4,5
 78 622.263 78 622.263 78 641.132 c 128,-1,6
 78 660 78 660 82.5 670.5 c 128,-1,7
 87 681 87 681 96.5 690 c 0,8,9
 118.667 711 118.667 711 140.333 711 c 128,-1,10
 162 711 162 711 172 707.5 c 128,-1,11
 182 704 182 704 190.5 696.5 c 0,12,13
 210 679.294 210 679.294 210 653.647 c 128,-1,0
 210 628 210 628 193 609.5 c 128,-1,1
109 357.5 m 2,14,15
 109 400 109 400 58 400 c 0,16,17
 49 400 49 400 41.5 402.5 c 128,-1,18
 34 405 34 405 34 415.5 c 0,19,20
 34 434 34 434 50 438 c 1,21,22
 110.286 446.866 110.286 446.866 141.643 457.933 c 0,23,24
 185.624 473.455 185.624 473.455 192.812 468.228 c 128,-1,25
 200 463 200 463 200 451 c 2,26,-1
 200 77.5 l 2,27,28
 200 35 200 35 252 35 c 0,29,30
 261 35 261 35 267.5 33.5 c 128,-1,31
 274 32 274 32 274.5 14.5 c 128,-1,32
 275 -3 275 -3 259 -3 c 1,33,34
 215.5 -3.72529e-09 215.5 -3.72529e-09 154 0 c 256,35,36
 93.5 0 93.5 0 67.75 -1.5 c 128,-1,37
 42 -3 42 -3 38 3 c 128,-1,38
 34 9 34 9 35 20.5 c 128,-1,39
 36 32 36 32 42 33.5 c 128,-1,40
 48 35 48 35 58 35 c 0,41,42
 109 35 109 35 109 77.5 c 2,43,-1
 109 357.5 l 2,14,15
EndSplineSet
Validated: 540705
EndChar

StartChar: j
Encoding: 106 106 31
Width: 266
Flags: HW
HStem: 591 120<68.8473 168.552>
VStem: 51 132<605.164 692.635> 98 91<-60.2892 394.978>
LayerCount: 2
Fore
SplineSet
98 357.5 m 2,0,1
 98 400 98 400 47 400 c 0,2,3
 38 400 38 400 30.5 402.5 c 128,-1,4
 23 405 23 405 23 415.5 c 0,5,6
 23 434 23 434 39 438 c 1,7,8
 99.2857 446.866 99.2857 446.866 130.643 457.933 c 0,9,10
 174.624 473.455 174.624 473.455 181.812 468.228 c 128,-1,11
 189 463 189 463 189 451 c 2,12,-1
 189 99 l 2,13,14
 189 -23.5116 189 -23.5116 158.5 -80.2558 c 128,-1,15
 128 -137 128 -137 92.5 -164.5 c 128,-1,16
 57 -192 57 -192 26.5 -199.5 c 128,-1,17
 -4 -207 -4 -207 -8 -203.5 c 128,-1,18
 -12 -200 -12 -200 -15 -191.5 c 0,19,20
 -21.8182 -172.182 -21.8182 -172.182 -8 -167 c 0,21,22
 60.3525 -138.52 60.3525 -138.52 81.5 -64 c 0,23,24
 98 -5.85714 98 -5.85714 98 131 c 2,25,-1
 98 357.5 l 2,0,1
166 609.5 m 128,-1,27
 149 591 149 591 127.5 591 c 128,-1,28
 106 591 106 591 94.5 594 c 128,-1,29
 83 597 83 597 73.5 604.5 c 0,30,31
 51 622.263 51 622.263 51 641.132 c 128,-1,32
 51 660 51 660 55.5 670.5 c 128,-1,33
 60 681 60 681 69.5 690 c 0,34,35
 91.6667 711 91.6667 711 113.333 711 c 128,-1,36
 135 711 135 711 145 707.5 c 128,-1,37
 155 704 155 704 163.5 696.5 c 0,38,39
 183 679.294 183 679.294 183 653.647 c 128,-1,26
 183 628 183 628 166 609.5 c 128,-1,27
EndSplineSet
Validated: 540705
EndChar

StartChar: k
Encoding: 107 107 32
Width: 567
Flags: HW
HStem: -3 36.5<23.5513 90.2441 196.172 262.933 499.934 567.984> 418 38<309.551 367.081 430.354 517.291>
VStem: 98 91<55.8688 224 252 652.978>
LayerCount: 2
Fore
SplineSet
98 615.5 m 2,0,1
 98 658 98 658 47 658 c 0,2,3
 38 658 38 658 30.5 660.5 c 128,-1,4
 23 663 23 663 23 673.5 c 0,5,6
 23 692 23 692 39 696 c 1,7,8
 99.2856 704.865 99.2856 704.865 130.643 715.933 c 0,9,10
 174.624 731.455 174.624 731.455 181.812 726.228 c 128,-1,11
 189 721 189 721 189 709 c 2,12,-1
 189 252 l 1,13,14
 234.294 262.294 234.294 262.294 261 289 c 2,15,-1
 345 375 l 1,16,17
 366.057 398.396 366.057 398.396 367.028 405.198 c 0,18,19
 369.103 419.718 369.103 419.718 321 418 c 1,20,21
 310 420 310 420 309.5 438 c 128,-1,22
 309 456 309 456 325 456 c 1,23,24
 359.5 453 359.5 453 405.75 453 c 128,-1,25
 452 453 452 453 468.5 454 c 2,26,-1
 502 456 l 2,27,28
 518 456 518 456 517.308 437 c 128,-1,29
 516.615 418 516.615 418 501 418 c 0,30,31
 462 418 462 418 438 404 c 128,-1,32
 414 390 414 390 384 359 c 2,33,-1
 300 273 l 1,34,35
 312 257 312 257 332 233.5 c 2,36,-1
 449 101 l 1,37,38
 478 70 478 70 497.5 53.5 c 128,-1,39
 517 37 517 37 535.5 35.5 c 128,-1,40
 554 34 554 34 561 32.5 c 128,-1,41
 568 31 568 31 568 14 c 128,-1,42
 568 -3 568 -3 552 -3 c 1,43,44
 510 8.9407e-08 510 8.9407e-08 483 4.47035e-08 c 2,45,-1
 419 0 l 1,46,-1
 248 196 l 1,47,48
 216.9 227.1 216.9 227.1 189 224 c 1,49,-1
 189 77.5 l 2,50,51
 189 35 189 35 240 35 c 0,52,53
 250 35 250 35 256 33.5 c 128,-1,54
 262 32 262 32 263 14.5 c 128,-1,55
 264 -3 264 -3 248 -3 c 1,56,57
 143.5 4.2069 143.5 4.2069 39 -3 c 1,58,59
 23 -3 23 -3 23.5 14.5 c 128,-1,60
 24 32 24 32 30.5 33.5 c 128,-1,61
 37 35 37 35 52 35 c 128,-1,62
 67 35 67 35 77.5 40.5 c 128,-1,63
 88 46 88 46 92.5 55.5 c 0,64,65
 98 67.1111 98 67.1111 98 103 c 2,66,-1
 98 615.5 l 2,0,1
EndSplineSet
Validated: 540705
EndChar

StartChar: l
Encoding: 108 108 33
Width: 286
Flags: HW
HStem: -3 36.5<23.5513 90.2441 196.312 263.449>
VStem: 98 91<55.8688 653.978>
LayerCount: 2
Fore
SplineSet
39 -3 m 1,0,1
 23 -3 23 -3 23.5 14.5 c 128,-1,2
 24 32 24 32 30.5 33.5 c 128,-1,3
 37 35 37 35 52 35 c 128,-1,4
 67 35 67 35 77.5 40.5 c 128,-1,5
 88 46 88 46 92.5 55.5 c 0,6,7
 98 67.1111 98 67.1111 98 103 c 2,8,-1
 98 616.5 l 2,9,10
 98 659 98 659 47 659 c 0,11,12
 38 659 38 659 30.5 661.5 c 128,-1,13
 23 664 23 664 23 674.5 c 0,14,15
 23 693 23 693 39 697 c 1,16,17
 99.2856 705.865 99.2856 705.865 130.643 716.933 c 0,18,19
 174.624 732.455 174.624 732.455 181.812 727.228 c 128,-1,20
 189 722 189 722 189 710 c 2,21,-1
 189 77.5 l 2,22,23
 189 35 189 35 241 35 c 0,24,25
 250 35 250 35 256.5 33.5 c 128,-1,26
 263 32 263 32 263.5 14.5 c 128,-1,27
 264 -3 264 -3 248 -3 c 1,28,29
 204.5 -3.72529e-09 204.5 -3.72529e-09 143 0 c 256,30,31
 82.5 0 82.5 0 39 -3 c 1,0,1
EndSplineSet
Validated: 540705
EndChar

StartChar: m
Encoding: 109 109 34
Width: 896
Flags: HW
HStem: -3 36.5<34.5513 101.244 207.312 274.449 341.551 406.477 509.062 574.449 641.551 708.244 814.312 881.449> 402.5 35.5<34.3164 57.7191> 410 55<269.772 379.649 565.4 683.838>
VStem: 109 91<55.8688 371.249 388 394.978> 412 92<55.7976 371.5> 716 91<55.8688 379.667>
CounterMasks: 1 1c
LayerCount: 2
Fore
SplineSet
109 357.5 m 2,0,1
 109 400 109 400 58 400 c 0,2,3
 49 400 49 400 41.5 402.5 c 128,-1,4
 34 405 34 405 34 415.5 c 0,5,6
 34 434 34 434 50 438 c 1,7,8
 114.71 447.516 114.71 447.516 143.355 458.258 c 0,9,10
 184.371 473.639 184.371 473.639 191.686 468.32 c 128,-1,11
 199 463 199 463 199 451 c 2,12,-1
 199 388 l 1,13,-1
 202 388 l 1,14,-1
 231 415.5 l 2,15,16
 282.333 465 282.333 465 368.486 465 c 128,-1,17
 454.639 465 454.639 465 491 388 c 1,18,-1
 493 388 l 1,19,20
 552.091 443.152 552.091 443.152 589.545 454.076 c 128,-1,21
 627 465 627 465 659 465 c 0,22,23
 728 465 728 465 767.5 424 c 128,-1,24
 807 383 807 383 807 316 c 2,25,-1
 807 77.5 l 2,26,27
 807 35 807 35 859 35 c 0,28,29
 868 35 868 35 874.5 33.5 c 128,-1,30
 881 32 881 32 881.5 14.5 c 128,-1,31
 882 -3 882 -3 866 -3 c 1,32,33
 822.5 -3.72529e-09 822.5 -3.72529e-09 761 0 c 256,34,35
 700.5 0 700.5 0 657 -3 c 1,36,37
 641 -3 641 -3 641.5 14.5 c 128,-1,38
 642 32 642 32 648.5 33.5 c 128,-1,39
 655 35 655 35 670 35 c 128,-1,40
 685 35 685 35 695.5 40.5 c 128,-1,41
 706 46 706 46 710.5 55.5 c 0,42,43
 716 67.1111 716 67.1111 716 103 c 2,44,-1
 716 315 l 2,45,46
 716 361.519 716 361.519 694 380.259 c 0,47,48
 659.087 410 659.087 410 626.543 410 c 128,-1,49
 594 410 594 410 574 402.5 c 128,-1,50
 554 395 554 395 540 384 c 0,51,52
 514.049 363.61 514.049 363.61 504 341 c 1,53,-1
 504 103 l 2,54,55
 504 90 504 90 503.5 77.5 c 128,-1,56
 503 65 503 65 507 55.5 c 0,57,58
 515.632 35 515.632 35 538.816 35 c 128,-1,59
 562 35 562 35 568 33.5 c 128,-1,60
 574 32 574 32 574.5 14.5 c 128,-1,61
 575 -3 575 -3 559 -3 c 1,62,63
 458 3.96552 458 3.96552 357 -3 c 1,64,65
 341 -3 341 -3 341.5 14.5 c 128,-1,66
 342 32 342 32 348 33.5 c 128,-1,67
 354 35 354 35 364 35 c 0,68,69
 414.2 35 414.2 35 412.5 77.5 c 0,70,71
 412 90 412 90 412 103 c 2,72,-1
 412 315 l 2,73,74
 412 361.519 412 361.519 390 380.259 c 0,75,76
 355.087 410 355.087 410 323.043 410 c 128,-1,77
 291 410 291 410 271 402.5 c 128,-1,78
 251 395 251 395 236.5 384 c 0,79,80
 210.266 364.098 210.266 364.098 200 341 c 1,81,-1
 200 77.5 l 2,82,83
 200 35 200 35 252 35 c 0,84,85
 261 35 261 35 267.5 33.5 c 128,-1,86
 274 32 274 32 274.5 14.5 c 128,-1,87
 275 -3 275 -3 259 -3 c 1,88,89
 215.5 -3.72529e-09 215.5 -3.72529e-09 154 0 c 256,90,91
 93.5 0 93.5 0 50 -3 c 1,92,93
 34 -3 34 -3 34.5 14.5 c 128,-1,94
 35 32 35 32 41.5 33.5 c 128,-1,95
 48 35 48 35 63 35 c 128,-1,96
 78 35 78 35 88.5 40.5 c 128,-1,97
 99 46 99 46 103.5 55.5 c 0,98,99
 109 67.1111 109 67.1111 109 103 c 2,100,-1
 109 357.5 l 2,0,1
EndSplineSet
Validated: 540705
EndChar

StartChar: n
Encoding: 110 110 35
Width: 599
Flags: HW
HStem: -3 38<37.1303 101.974 205.145 273.412 344.588 412.604 516.145 584.412> 402.5 35.5<33.3164 56.7191> 410 55<270.541 386.91>
VStem: 108 91<40.4889 368.915 388 394.978> 419 91<55.8688 379.667>
LayerCount: 2
Fore
SplineSet
108 357.5 m 2,0,1
 108 400 108 400 57 400 c 0,2,3
 48 400 48 400 40.5 402.5 c 128,-1,4
 33 405 33 405 33 415.5 c 0,5,6
 33 434 33 434 49 438 c 1,7,8
 113.71 447.516 113.71 447.516 142.355 458.258 c 0,9,10
 183.371 473.639 183.371 473.639 190.686 468.32 c 128,-1,11
 198 463 198 463 198 451 c 2,12,-1
 198 388 l 1,13,-1
 201 388 l 1,14,-1
 231 415.5 l 2,15,16
 286 465 286 465 358.5 465 c 128,-1,17
 431 465 431 465 470.5 424 c 128,-1,18
 510 383 510 383 510 316 c 2,19,-1
 510 77.5 l 2,20,21
 510 35 510 35 562 35 c 0,22,23
 571 35 571 35 577.5 33.5 c 128,-1,24
 584 32 584 32 584.5 14.5 c 128,-1,25
 585 -3 585 -3 569 -3 c 1,26,27
 525.5 -3.72529e-09 525.5 -3.72529e-09 464 0 c 256,28,29
 403.5 0 403.5 0 360 -3 c 1,30,31
 344 -3 344 -3 344.5 14.5 c 128,-1,32
 345 32 345 32 351.5 33.5 c 128,-1,33
 358 35 358 35 373 35 c 128,-1,34
 388 35 388 35 398.5 40.5 c 128,-1,35
 409 46 409 46 413.5 55.5 c 0,36,37
 419 67.1111 419 67.1111 419 103 c 2,38,-1
 419 315 l 2,39,40
 419 361.519 419 361.519 397 380.259 c 0,41,42
 362.087 410 362.087 410 329.543 410 c 128,-1,43
 297 410 297 410 276 402.5 c 128,-1,44
 255 395 255 395 239.5 384 c 0,45,46
 208.257 361.827 208.257 361.827 199 341 c 1,47,-1
 199 77.5 l 2,48,49
 199 35 199 35 251 35 c 0,50,51
 260 35 260 35 266.5 33.5 c 128,-1,52
 273 32 273 32 273.5 14.5 c 128,-1,53
 274 -3 274 -3 258 -3 c 1,54,55
 214.5 -3.72529e-09 214.5 -3.72529e-09 153 0 c 256,56,57
 92.5 0 92.5 0 66.75 -1.5 c 128,-1,58
 41 -3 41 -3 37 3 c 128,-1,59
 33 9 33 9 34 20.5 c 128,-1,60
 35 32 35 32 41 33.5 c 128,-1,61
 47 35 47 35 57 35 c 0,62,63
 108 35 108 35 108 77.5 c 2,64,-1
 108 357.5 l 2,0,1
EndSplineSet
Validated: 540705
EndChar

StartChar: o
Encoding: 111 111 36
Width: 548
Flags: HW
HStem: -12 37<211.616 339.346> 428 37<209.965 338.037>
VStem: 41 102<119.426 326.945> 405 102<127.27 333.579>
LayerCount: 2
Fore
SplineSet
280 465 m 0,0,1
 326 465 326 465 369 445.5 c 128,-1,2
 412 426 412 426 443 394 c 0,3,4
 507 327.935 507 327.935 507 233 c 0,5,6
 507 122.716 507 122.716 429.5 51 c 0,7,8
 361.419 -12 361.419 -12 274 -12 c 0,9,10
 173.781 -12 173.781 -12 105 59 c 0,11,12
 41 125.065 41 125.065 41 220 c 0,13,14
 41 331.209 41 331.209 117.5 402 c 0,15,16
 185.581 465 185.581 465 280 465 c 0,0,1
274 25 m 256,17,18
 405 25 405 25 405 233 c 0,19,20
 405 368.48 405 368.48 334 412.5 c 0,21,22
 309 428 309 428 273 428 c 128,-1,23
 237 428 237 428 212 411.5 c 128,-1,24
 187 395 187 395 171.5 366.5 c 0,25,26
 143 314.097 143 314.097 143 248.548 c 128,-1,27
 143 183 143 183 150 147.5 c 128,-1,28
 157 112 157 112 172.5 84.5 c 0,29,30
 206.036 25 206.036 25 274 25 c 256,17,18
EndSplineSet
Validated: 540673
EndChar

StartChar: p
Encoding: 112 112 37
Width: 584
Flags: HW
HStem: -208 36.5<23.5513 89.5493 197.266 263.449> -12 34<239.592 365.699> 402.5 35.5<23.3164 46.7191> 415 50<247.547 368.612>
VStem: 98 91<-149.138 19 61.1464 381.979> 440 102<122.471 332.885>
LayerCount: 2
Fore
SplineSet
297 415 m 256,0,1
 238.524 415 238.524 415 189 363 c 1,2,-1
 189 95 l 1,3,4
 207.24 47.5758 207.24 47.5758 263 28.5 c 0,5,6
 282 22 282 22 313 22 c 128,-1,7
 344 22 344 22 370 41.5 c 128,-1,8
 396 61 396 61 411.5 91 c 0,9,10
 440 146.161 440 146.161 440 202.581 c 128,-1,11
 440 259 440 259 432 293 c 128,-1,12
 424 327 424 327 406.5 354 c 0,13,14
 366.963 415 366.963 415 297 415 c 256,0,1
98 357.5 m 2,15,16
 98 400 98 400 47 400 c 0,17,18
 38 400 38 400 30.5 402.5 c 128,-1,19
 23 405 23 405 23 415.5 c 0,20,21
 23 434 23 434 39 438 c 1,22,23
 103.71 447.516 103.71 447.516 132.355 458.258 c 0,24,25
 173.371 473.639 173.371 473.639 180.686 468.32 c 128,-1,26
 188 463 188 463 188 451 c 2,27,-1
 188 403 l 1,28,-1
 191 403 l 1,29,30
 257.769 465 257.769 465 333 465 c 0,31,32
 423.889 465 423.889 465 483 398.5 c 128,-1,33
 542 332.125 542 332.125 542 227 c 128,-1,34
 542 121.781 542 121.781 471 53 c 0,35,36
 403.903 -12 403.903 -12 324.285 -12 c 128,-1,37
 244.667 -12 244.667 -12 193 19 c 1,38,-1
 189 19 l 1,39,-1
 189 -102 l 2,40,41
 189 -153.238 189 -153.238 205 -161.619 c 128,-1,42
 221 -170 221 -170 235.5 -170 c 128,-1,43
 250 -170 250 -170 256.5 -171.5 c 128,-1,44
 263 -173 263 -173 263.5 -190.5 c 128,-1,45
 264 -208 264 -208 248 -208 c 1,46,47
 204.5 -205 204.5 -205 143 -205 c 256,48,49
 82.5 -205 82.5 -205 39 -208 c 1,50,51
 23 -208 23 -208 23.5 -190.5 c 128,-1,52
 24 -173 24 -173 30.5 -171.5 c 128,-1,53
 37 -170 37 -170 51.5 -170 c 128,-1,54
 66 -170 66 -170 76.5 -164.5 c 128,-1,55
 87 -159 87 -159 92 -149.5 c 0,56,57
 98 -138.1 98 -138.1 98 -102 c 2,58,-1
 98 357.5 l 2,15,16
EndSplineSet
Validated: 540705
EndChar

StartChar: q
Encoding: 113 113 38
Width: 559
Flags: HW
HStem: -208 36.5<316.542 381.549 490.007 555.449> -12 49<209.722 342.623> 430 35<219.341 345.646>
VStem: 41 101<120.051 331.075> 390 92<-149.138 45 64.5505 394.551>
LayerCount: 2
Fore
SplineSet
296.737 37 m 0,0,1
 345.474 37 345.474 37 390 84 c 1,2,-1
 390 355 l 1,3,4
 365 430 365 430 277 430 c 0,5,6
 218.333 430 218.333 430 181 374 c 0,7,8
 142 315.5 142 315.5 142 222 c 0,9,10
 142 37 142 37 296.737 37 c 0,0,1
463 476 m 0,11,12
 482 476 482 476 482 456 c 2,13,-1
 482 -102 l 2,14,15
 482 -153.762 482 -153.762 497.5 -161.881 c 128,-1,16
 513 -170 513 -170 528 -170 c 128,-1,17
 543 -170 543 -170 549 -171.5 c 128,-1,18
 555 -173 555 -173 555.5 -190.5 c 128,-1,19
 556 -208 556 -208 540 -208 c 1,20,21
 496.5 -205 496.5 -205 435.5 -205 c 128,-1,22
 374.5 -205 374.5 -205 331 -208 c 1,23,24
 316 -208 316 -208 316.5 -190.5 c 128,-1,25
 317 -173 317 -173 323 -171.5 c 128,-1,26
 329 -170 329 -170 343.5 -170 c 128,-1,27
 358 -170 358 -170 368.5 -164.5 c 128,-1,28
 379 -159 379 -159 384 -149.5 c 0,29,30
 390 -138.1 390 -138.1 390 -102 c 2,31,-1
 390 45 l 1,32,-1
 387 45 l 1,33,34
 335.7 -12 335.7 -12 254 -12 c 0,35,36
 163.812 -12 163.812 -12 104 54 c 0,37,38
 41 123.517 41 123.517 41 232 c 0,39,40
 41 330.188 41 330.188 111 398 c 0,41,42
 180.161 465 180.161 465 272 465 c 0,43,44
 343.5 465 343.5 465 393.5 433 c 0,45,46
 406 425 406 425 416 420 c 1,47,-1
 421 420 l 1,48,49
 425 427 425 427 429 437 c 128,-1,50
 433 447 433 447 438 455.5 c 0,51,52
 450.059 476 450.059 476 463 476 c 0,11,12
EndSplineSet
Validated: 540673
EndChar

StartChar: r
Encoding: 114 114 39
Width: 425
Flags: HW
HStem: -1.5 36.5<37.1303 101.413 205.716 273.367> 402.5 35.5<33.3164 56.7191> 405 60<269.66 362.759>
VStem: 108 91<40.4889 366.711 389 394.978> 328 81<328.677 403.114>
LayerCount: 2
Fore
SplineSet
57 35 m 0,0,1
 108 35 108 35 108 77.5 c 2,2,-1
 108 357.5 l 2,3,4
 108 400 108 400 57 400 c 0,5,6
 48 400 48 400 40.5 402.5 c 128,-1,7
 33 405 33 405 33 415.5 c 0,8,9
 33 434 33 434 49 438 c 1,10,11
 113.71 447.516 113.71 447.516 142.355 458.258 c 0,12,13
 183.371 473.639 183.371 473.639 190.686 468.32 c 128,-1,14
 198 463 198 463 198 451 c 2,15,-1
 198 389 l 1,16,-1
 201 389 l 1,17,18
 279.303 465 279.303 465 337 465 c 0,19,20
 388.517 465 388.517 465 404.5 413.5 c 0,21,22
 409 399 409 399 409 385 c 128,-1,23
 409 371 409 371 405 358.5 c 128,-1,24
 401 346 401 346 393 335.5 c 0,25,26
 375.095 312 375.095 312 345 312 c 256,27,28
 329 312 329 312 319.5 318.5 c 128,-1,29
 310 325 310 325 309 328 c 0,30,31
 309 330 309 330 318.5 340 c 128,-1,32
 328 350 328 350 328 365 c 0,33,34
 328 405 328 405 292.5 405 c 128,-1,35
 257 405 257 405 199 347 c 1,36,-1
 199 77.5 l 2,37,38
 199 35 199 35 251 35 c 0,39,40
 260 35 260 35 266.5 33.5 c 128,-1,41
 273 32 273 32 273.5 14.5 c 128,-1,42
 274 -3 274 -3 258 -3 c 1,43,44
 214.5 -3.72529e-09 214.5 -3.72529e-09 153 0 c 256,45,46
 92.5 0 92.5 0 66.75 -1.5 c 128,-1,47
 41 -3 41 -3 37 3 c 128,-1,48
 33 9 33 9 34 20.5 c 128,-1,49
 35 32 35 32 41 33.5 c 128,-1,50
 47 35 47 35 57 35 c 0,0,1
EndSplineSet
Validated: 540705
EndChar

StartChar: s
Encoding: 115 115 40
Width: 443
Flags: HW
HStem: 432 33<161.193 286.43>
VStem: 38 81<46.5091 134.476> 56 74<312.032 399.861> 310.5 72.5<335.445 414.152> 326 76<61.793 150.24>
LayerCount: 2
Fore
SplineSet
226 25 m 0,0,1
 326 25 326 25 326 103 c 0,2,3
 326 133 326 133 306 149 c 128,-1,4
 286 165 286 165 256 176 c 128,-1,5
 226 187 226 187 191 196 c 128,-1,6
 156 205 156 205 126 221 c 0,7,8
 56 258.333 56 258.333 56 333 c 0,9,10
 56 395.692 56 395.692 114 432.5 c 0,11,12
 165.212 465 165.212 465 214.606 465 c 128,-1,13
 264 465 264 465 290.5 459 c 128,-1,14
 317 453 317 453 337.5 441 c 0,15,16
 383 414.366 383 414.366 383 379.183 c 0,17,18
 383 305 383 305 323 305 c 0,19,20
 305 305 305 305 293.5 314.5 c 128,-1,21
 282 324 282 324 282 326.5 c 128,-1,22
 282 329 282 329 286.5 332.5 c 128,-1,23
 291 336 291 336 296.5 341.5 c 0,24,25
 311 356 311 356 310.5 372.5 c 128,-1,26
 310 389 310 389 302.5 400 c 128,-1,27
 295 411 295 411 283 418 c 0,28,29
 259 432 259 432 233 432 c 128,-1,30
 207 432 207 432 190 427.5 c 128,-1,31
 173 423 173 423 159.5 415 c 0,32,33
 130 397.519 130 397.519 130 370.759 c 128,-1,34
 130 344 130 344 137 330 c 128,-1,35
 144 316 144 316 159 305.5 c 0,36,37
 180.947 290.137 180.947 290.137 233.973 273.569 c 128,-1,38
 287 257 287 257 314 246.5 c 128,-1,39
 341 236 341 236 360.5 221.5 c 0,40,41
 402 190.641 402 190.641 402 145.821 c 128,-1,42
 402 101 402 101 388 74.5 c 128,-1,43
 374 48 374 48 349.5 29 c 0,44,45
 271.367 -31.593 271.367 -31.593 146 -5 c 0,46,47
 38 17.9091 38 17.9091 38 95 c 0,48,49
 38 124 38 124 55.5 142 c 128,-1,50
 73 160 73 160 96 160 c 128,-1,51
 119 160 119 160 130.5 150.5 c 128,-1,52
 142 141 142 141 142 138 c 128,-1,53
 142 135 142 135 138.5 132 c 128,-1,54
 135 129 135 129 130.5 123.5 c 0,55,56
 119 109.444 119 109.444 119 85.2222 c 128,-1,57
 119 61 119 61 145.5 43 c 128,-1,58
 172 25 172 25 226 25 c 0,0,1
EndSplineSet
Validated: 540705
EndChar

StartChar: t
Encoding: 116 116 41
Width: 379
Flags: HW
HStem: -17 50<200.86 313.895> 414 41<25.0854 92.5171 188 308.905>
VStem: 97 91<44.7493 414>
LayerCount: 2
Fore
SplineSet
309 455 m 128,-1,1
 312 449 312 449 312 430 c 128,-1,2
 312 411 312 411 300 411 c 2,3,-1
 188 414 l 1,4,-1
 188 110 l 2,5,6
 188 33 188 33 246 33 c 0,7,8
 277.625 33 277.625 33 291.312 39.5 c 0,9,10
 321.906 54.0283 321.906 54.0283 327.453 45.0141 c 0,11,12
 341.778 21.7361 341.778 21.7361 331 15 c 0,13,14
 281.4 -17 281.4 -17 237.2 -17 c 128,-1,15
 193 -17 193 -17 172 -8.5 c 128,-1,16
 151 0 151 0 134 17 c 0,17,18
 97 54 97 54 97 122 c 2,19,-1
 97 416 l 1,20,-1
 39 414 l 2,21,22
 25 414 25 414 25 432 c 0,23,24
 25 451 25 451 39 455 c 1,25,26
 87.0228 463.576 87.0228 463.576 105.011 487.288 c 128,-1,27
 123 511 123 511 130 529.5 c 2,28,-1
 144 568 l 2,29,30
 148.875 581 148.875 581 167.938 581 c 128,-1,31
 187 581 187 581 187 567 c 2,32,-1
 180 453 l 1,33,-1
 297 460 l 2,34,0
 306 461 306 461 309 455 c 128,-1,1
EndSplineSet
Validated: 540705
EndChar

StartChar: u
Encoding: 117 117 42
Width: 596
Flags: HW
HStem: -12 55<215.09 331.464> 0 36<510.22 589.963> 392.5 35.5<17.3164 40.7191 328.316 351.719>
VStem: 92 91<73.3332 384.978> 403 91<49.8425 65 83.4113 384.978>
LayerCount: 2
Fore
SplineSet
403 347.5 m 2,0,1
 403 390 403 390 352 390 c 0,2,3
 343 390 343 390 335.5 392.5 c 128,-1,4
 328 395 328 395 328 405.5 c 0,5,6
 328 424 328 424 344 428 c 1,7,8
 404.286 436.866 404.286 436.866 435.643 447.933 c 0,9,10
 479.624 463.455 479.624 463.455 486.812 458.228 c 128,-1,11
 494 453 494 453 494 441 c 2,12,-1
 494 95 l 2,13,14
 494 36 494 36 573 36 c 0,15,16
 590 36 590 36 590 19.5 c 128,-1,17
 590 3 590 3 573 0 c 1,18,-1
 412 -11 l 2,19,20
 403 -11 403 -11 403 9 c 2,21,-1
 403 65 l 1,22,-1
 401 65 l 1,23,-1
 371 37.5 l 2,24,25
 316 -12 316 -12 243.5 -12 c 128,-1,26
 171 -12 171 -12 131.5 29 c 128,-1,27
 92 70 92 70 92 137 c 2,28,-1
 92 347.5 l 2,29,30
 92 390 92 390 41 390 c 0,31,32
 32 390 32 390 24.5 392.5 c 128,-1,33
 17 395 17 395 17 405.5 c 0,34,35
 17 424 17 424 33 428 c 1,36,37
 93.2857 436.866 93.2857 436.866 124.643 447.933 c 0,38,39
 168.624 463.455 168.624 463.455 175.812 458.228 c 128,-1,40
 183 453 183 453 183 441 c 2,41,-1
 183 138 l 2,42,43
 183 91.4815 183 91.4815 205 72.7407 c 0,44,45
 239.913 43 239.913 43 272.457 43 c 128,-1,46
 305 43 305 43 326 50.5 c 128,-1,47
 347 58 347 58 363 69 c 0,48,49
 393.08 89.68 393.08 89.68 403 112 c 1,50,-1
 403 347.5 l 2,0,1
EndSplineSet
Validated: 540705
EndChar

StartChar: v
Encoding: 118 118 43
Width: 551
Flags: HW
HStem: 419.5 36.5<8.26062 68.7231 344.537 404.716 472.904 552.458>
VStem: 252 42<-10 36.9373>
LayerCount: 2
Fore
SplineSet
538 456 m 0,0,1
 553 456 553 456 552.5 438.5 c 128,-1,2
 552 421 552 421 545.5 419.5 c 128,-1,3
 539 418 539 418 518.5 418 c 0,4,5
 468.6 418 468.6 418 445 359 c 2,6,-1
 319 48 l 1,7,-1
 301 6 l 2,8,9
 294 -9 294 -9 294 -10 c 1,10,-1
 252 -10 l 1,11,12
 233 31 233 31 214.5 79 c 2,13,-1
 141 266 l 1,14,15
 95.3077 377.692 95.3077 377.692 81.1538 391.846 c 0,16,17
 59.8462 413.154 59.8462 413.154 38.9231 416.077 c 128,-1,18
 18 419 18 419 13.5 420.5 c 128,-1,19
 9 422 9 422 8 437.5 c 128,-1,20
 7 453 7 453 17.5 454.5 c 128,-1,21
 28 456 28 456 66 458 c 0,22,23
 153.482 462.604 153.482 462.604 197 368 c 1,24,-1
 274 175.5 l 2,25,26
 288 141 288 141 302 113 c 1,27,-1
 305 113 l 1,28,-1
 404 375 l 2,29,30
 414 404 414 404 405 411 c 128,-1,31
 396 418 396 418 376.5 418 c 128,-1,32
 357 418 357 418 351 419.5 c 128,-1,33
 345 421 345 421 344.5 438.5 c 128,-1,34
 344 456 344 456 358 456 c 0,35,36
 401.5 453 401.5 453 434.75 453 c 2,37,-1
 477 453 l 2,38,39
 493 453 493 453 538 456 c 0,0,1
EndSplineSet
Validated: 540705
EndChar

StartChar: w
Encoding: 119 119 44
Width: 798
Flags: HW
HStem: 419.5 36.5<9.26062 57.171 588.537 645.747 714.376 798.458>
LayerCount: 2
Fore
SplineSet
784 456 m 0,0,1
 799 456 799 456 798.5 438.5 c 128,-1,2
 798 421 798 421 791.5 419.5 c 128,-1,3
 785 418 785 418 763 418 c 0,4,5
 706.171 418 706.171 418 691 359 c 1,6,-1
 580 -10 l 1,7,-1
 521 -10 l 1,8,-1
 394 317 l 1,9,-1
 295 -10 l 1,10,-1
 236 -10 l 1,11,-1
 108 345 l 1,12,13
 83.9216 399.176 83.9216 399.176 57.5 410.5 c 0,14,15
 47 415 47 415 33 417 c 128,-1,16
 19 419 19 419 14.5 420.5 c 128,-1,17
 10 422 10 422 9 437.5 c 128,-1,18
 8 453 8 453 18.5 454.5 c 128,-1,19
 29 456 29 456 67 458 c 0,20,21
 154.482 462.604 154.482 462.604 198 368 c 1,22,-1
 290 109 l 1,23,-1
 293 109 l 1,24,25
 300 130 300 130 308.5 159.5 c 2,26,-1
 390 453 l 1,27,-1
 438 453 l 1,28,-1
 575 109 l 1,29,-1
 578 109 l 1,30,31
 588 140 588 140 598 177.5 c 2,32,-1
 648 375 l 2,33,34
 654 402 654 402 646 410 c 128,-1,35
 638 418 638 418 619.5 418 c 128,-1,36
 601 418 601 418 595 419.5 c 128,-1,37
 589 421 589 421 588.5 438.5 c 128,-1,38
 588 456 588 456 602 456 c 0,39,40
 645.5 453 645.5 453 679.25 453 c 2,41,-1
 722.5 453 l 2,42,43
 739 453 739 453 784 456 c 0,0,1
EndSplineSet
Validated: 540705
EndChar

StartChar: x
Encoding: 120 120 45
Width: 541
Flags: HW
HStem: 0 35<17.6659 89.3926 153.676 215.354 303.686 346.965 472.02 536.314> 420 36<27.2606 85.8883 306.534 370.212 434.953 504.483>
LayerCount: 2
Fore
SplineSet
490 456 m 0,0,1
 505 456 505 456 504.5 438.5 c 128,-1,2
 504 421 504 421 497.5 420 c 128,-1,3
 491 419 491 419 479.5 418 c 128,-1,4
 468 417 468 417 457.5 414 c 128,-1,5
 447 411 447 411 438 404.5 c 0,6,7
 421.905 392.876 421.905 392.876 402.453 368.438 c 2,8,-1
 312 254 l 1,9,-1
 434 94 l 1,10,11
 475.043 35 475.043 35 514 35 c 0,12,13
 523 35 523 35 529.5 33.5 c 128,-1,14
 536 32 536 32 536.5 14.5 c 128,-1,15
 537 -3 537 -3 521 -3 c 1,16,17
 477.5 -3.72529e-09 477.5 -3.72529e-09 425 0 c 256,18,19
 362.5 0 362.5 0 319 -3 c 1,20,21
 303 -3 303 -3 303.5 14.5 c 128,-1,22
 304 32 304 32 310.5 33.5 c 128,-1,23
 317 35 317 35 331.5 35 c 128,-1,24
 346 35 346 35 347 46.5 c 128,-1,25
 348 58 348 58 333 78 c 2,26,-1
 255 182 l 1,27,-1
 169 78 l 1,28,29
 148 51 148 51 153.5 43 c 128,-1,30
 159 35 159 35 181 35 c 128,-1,31
 203 35 203 35 209 33.5 c 128,-1,32
 215 32 215 32 215.5 14.5 c 128,-1,33
 216 -3 216 -3 202 -3 c 0,34,35
 160 8.9407e-08 160 8.9407e-08 145.5 4.47035e-08 c 2,36,-1
 118 0 l 257,37,-1
 95.5 0 l 2,38,39
 77 0 77 0 32 -3 c 0,40,41
 17 -3 17 -3 17.5 14.5 c 128,-1,42
 18 32 18 32 24.5 33.5 c 128,-1,43
 31 35 31 35 43 35 c 128,-1,44
 55 35 55 35 66 38.5 c 128,-1,45
 77 42 77 42 86 49.5 c 128,-1,46
 95 57 95 57 104.5 68 c 2,47,-1
 126 94 l 1,48,49
 145 115 145 115 171.5 148 c 2,50,-1
 227 216 l 1,51,-1
 113 377 l 1,52,53
 89.2298 408.084 89.2298 408.084 63.1149 413.542 c 128,-1,54
 37 419 37 419 32.5 420.5 c 128,-1,55
 28 422 28 422 27 437.5 c 128,-1,56
 26 453 26 453 36.5 454.5 c 0,57,58
 156.706 471.672 156.706 471.672 210 401 c 0,59,60
 221 387 221 387 239 356.5 c 128,-1,61
 257 326 257 326 286 288 c 1,62,-1
 353 375 l 1,63,64
 372.692 403.444 372.692 403.444 370.346 408.722 c 0,65,66
 366.222 418 366.222 418 342.611 418 c 128,-1,67
 319 418 319 418 313 419.5 c 128,-1,68
 307 421 307 421 306.5 438.5 c 128,-1,69
 306 456 306 456 320 456 c 0,70,71
 362 453 362 453 376.5 453 c 0,72,73
 401.5 453 401.5 453 423.25 453 c 128,-1,74
 445 453 445 453 490 456 c 0,0,1
EndSplineSet
Validated: 540705
EndChar

StartChar: y
Encoding: 121 121 46
Width: 552
Flags: HW
HStem: -218 55<83.7372 166.921> 419.5 36.5<11.2606 71.7231 345.537 405.716 473.904 553.458>
VStem: -12.5 102.5<-145.468 -71.6396>
LayerCount: 2
Fore
SplineSet
539 456 m 0,0,1
 554 456 554 456 553.5 438.5 c 128,-1,2
 553 421 553 421 546.5 419.5 c 128,-1,3
 540 418 540 418 519.5 418 c 0,4,5
 469.6 418 469.6 418 446 359 c 2,6,-1
 303 7.5 l 2,7,8
 296 -9 296 -9 296 -10 c 0,9,10
 211.5 -218 211.5 -218 97 -218 c 0,11,12
 26.7059 -218 26.7059 -218 -4 -160 c 0,13,14
 -13 -143 -13 -143 -12.5 -120 c 128,-1,15
 -12 -97 -12 -97 -1 -83 c 0,16,17
 19.3417 -57.1106 19.3417 -57.1106 44.6709 -56.0553 c 128,-1,18
 70 -55 70 -55 80 -62.5 c 128,-1,19
 90 -70 90 -70 90 -73.5 c 128,-1,20
 90 -77 90 -77 82.5 -84.5 c 128,-1,21
 75 -92 75 -92 74 -110.5 c 128,-1,22
 73 -129 73 -129 85 -146 c 128,-1,23
 97 -163 97 -163 120 -163 c 128,-1,24
 143 -163 143 -163 161 -150.5 c 128,-1,25
 179 -138 179 -138 194.5 -119.5 c 0,26,27
 217.171 -92.4413 217.171 -92.4413 245 -34 c 1,28,29
 252 -12 252 -12 239 20 c 2,30,-1
 141.5 272 l 1,31,32
 99.4082 376.592 99.4082 376.592 84.7041 391.296 c 0,33,34
 62.8462 413.154 62.8462 413.154 41.9231 416.077 c 128,-1,35
 21 419 21 419 16.5 420.5 c 128,-1,36
 12 422 12 422 11 437.5 c 128,-1,37
 10 453 10 453 20.5 454.5 c 128,-1,38
 31 456 31 456 69 458 c 0,39,40
 156.482 462.604 156.482 462.604 200 368 c 1,41,-1
 276 175.5 l 2,42,43
 290 141 290 141 304 113 c 1,44,-1
 307 113 l 1,45,-1
 405 375 l 2,46,47
 415 404 415 404 406 411 c 128,-1,48
 397 418 397 418 377.5 418 c 128,-1,49
 358 418 358 418 352 419.5 c 128,-1,50
 346 421 346 421 345.5 438.5 c 128,-1,51
 345 456 345 456 359 456 c 0,52,53
 402.5 453 402.5 453 435.75 453 c 2,54,-1
 478 453 l 2,55,56
 494 453 494 453 539 456 c 0,0,1
EndSplineSet
Validated: 540705
EndChar

StartChar: z
Encoding: 122 122 47
Width: 502
Flags: HW
HStem: 0 32<36.588 104.593 217.394 374.337> 421 32<132.663 275.606 387.778 456.412>
VStem: 46 52<289.562 357.647> 409 52<95.3529 163.438>
LayerCount: 2
Fore
SplineSet
441 456 m 1,0,1
 457 456 457 456 456.5 438.5 c 128,-1,2
 456 421 456 421 449.5 419.5 c 128,-1,3
 443 418 443 418 431.5 418 c 128,-1,4
 420 418 420 418 410.5 416.5 c 128,-1,5
 401 415 401 415 393.5 410 c 0,6,7
 380.75 401.5 380.75 401.5 365 370 c 2,8,-1
 228 83 l 2,9,10
 204.474 35.9474 204.474 35.9474 231 33 c 0,11,12
 240 32 240 32 254 32 c 2,13,-1
 310 32 l 2,14,15
 359.64 32 359.64 32 374.82 48.5 c 0,16,17
 399.427 75.247 399.427 75.247 409 148 c 0,18,19
 411 164 411 164 429 164 c 0,20,21
 461 164 461 164 461 146 c 1,22,-1
 444 23 l 2,23,24
 440.933 -0.000106812 440.933 -0.000106812 421 0 c 0,25,26
 265.5 0 265.5 0 179.75 0 c 128,-1,27
 94 0 94 0 52 -3 c 1,28,29
 36 -3 36 -3 36.5 14.5 c 128,-1,30
 37 32 37 32 43 33.5 c 128,-1,31
 49 35 49 35 61 35 c 128,-1,32
 73 35 73 35 82.5 36.5 c 128,-1,33
 92 38 92 38 99 43 c 0,34,35
 111.444 51.8889 111.444 51.8889 127 83 c 2,36,-1
 265 370 l 2,37,38
 288.526 417.053 288.526 417.053 262 420 c 0,39,40
 253 421 253 421 239 421 c 2,41,-1
 197 421 l 2,42,43
 147.36 421 147.36 421 132.18 404.5 c 0,44,45
 107.876 378.083 107.876 378.083 98 305 c 0,46,47
 96 289 96 289 78 289 c 0,48,49
 46 289 46 289 46 307 c 1,50,-1
 63 430 l 2,51,52
 66.0667 453 66.0667 453 86 453 c 0,53,54
 234 453 234 453 315 453 c 128,-1,55
 396 453 396 453 441 456 c 1,0,1
EndSplineSet
Validated: 540705
EndChar

StartChar: comma
Encoding: 44 44 48
Width: 237
Flags: HW
HStem: -120 267
VStem: 120 76<-40.6511 38.8192>
LayerCount: 2
Fore
SplineSet
56.5 69.5 m 128,-1,1
 45 80 45 80 45 98 c 128,-1,2
 45 116 45 116 59.5 131.5 c 128,-1,3
 74 147 74 147 95.5 147 c 128,-1,4
 117 147 117 147 135.5 136.5 c 128,-1,5
 154 126 154 126 167.5 108.5 c 0,6,7
 196 71.5556 196 71.5556 196 34.2778 c 128,-1,8
 196 -3 196 -3 182.5 -27.5 c 128,-1,9
 169 -52 169 -52 148 -70 c 0,10,11
 108.748 -103.645 108.748 -103.645 48 -120 c 1,12,13
 33.009 -125.622 33.009 -125.622 28.5045 -114.811 c 0,14,15
 20.0811 -94.5946 20.0811 -94.5946 35 -89 c 0,16,17
 120 -56.619 120 -56.619 120 0 c 0,18,19
 120 24.931 120 24.931 94 41.9655 c 128,-1,0
 68 59 68 59 56.5 69.5 c 128,-1,1
EndSplineSet
Validated: 540673
EndChar

StartChar: period
Encoding: 46 46 49
Width: 222
Flags: HW
HStem: -12 125<65.5648 155.92>
VStem: 47 128<5.53381 94.4352>
LayerCount: 2
Fore
SplineSet
156.5 5 m 128,-1,1
 138 -12 138 -12 110.5 -12 c 128,-1,2
 83 -12 83 -12 65 5 c 128,-1,3
 47 22 47 22 47 49.5 c 128,-1,4
 47 77 47 77 65 95 c 128,-1,5
 83 113 83 113 110.5 113 c 128,-1,6
 138 113 138 113 156.5 95 c 128,-1,7
 175 77 175 77 175 49.5 c 128,-1,0
 175 22 175 22 156.5 5 c 128,-1,1
EndSplineSet
Validated: 16385
EndChar

StartChar: question
Encoding: 63 63 50
Width: 435
Flags: HW
HStem: -12 127<166.565 257.435> 187 41<182.891 258.996> 651 36.5<154.045 277.055>
VStem: 108 62<240.178 326.062> 148 128<6.04932 95.9197> 313 76<499.074 619.192>
LayerCount: 2
Fore
SplineSet
258 5.5 m 128,-1,1
 240 -12 240 -12 212 -12 c 128,-1,2
 184 -12 184 -12 166 5.5 c 128,-1,3
 148 23 148 23 148 50.5 c 128,-1,4
 148 78 148 78 166 96.5 c 128,-1,5
 184 115 184 115 212 115 c 256,6,7
 240 115 240 115 258 96.5 c 128,-1,8
 276 78 276 78 276 50.5 c 128,-1,0
 276 23 276 23 258 5.5 c 128,-1,1
169.5 684 m 128,-1,10
 193 687 193 687 217.5 687.5 c 128,-1,11
 242 688 242 688 275 681 c 128,-1,12
 308 674 308 674 333.5 657.5 c 0,13,14
 389 621.588 389 621.588 389 548 c 0,15,16
 389 477.674 389 477.674 311.5 420 c 0,17,18
 290 404 290 404 270 390.5 c 128,-1,19
 250 377 250 377 232.5 364 c 128,-1,20
 215 351 215 351 201 337 c 0,21,22
 170 306 170 306 170 271 c 256,23,24
 170 252 170 252 182.5 240 c 128,-1,25
 195 228 195 228 210.5 228 c 0,26,27
 239 228 239 228 259 248 c 0,28,29
 303.767 292.767 303.767 292.767 330.5 259 c 0,30,31
 340 247 340 247 322.5 229 c 0,32,33
 281.667 187 281.667 187 226 187 c 0,34,35
 178.531 187 178.531 187 153.266 211.5 c 0,36,37
 108 255.394 108 255.394 108 310 c 0,38,39
 108 367.27 108 367.27 174.5 414 c 0,40,41
 193 427 193 427 212.5 439 c 2,42,-1
 250 463 l 1,43,44
 313 505 313 505 313 550.5 c 128,-1,45
 313 596 313 596 287.5 624 c 128,-1,46
 262 652 262 652 212 651 c 1,47,48
 158 651 158 651 134 610.5 c 0,49,50
 126 597 126 597 126 582 c 128,-1,51
 126 567 126 567 131 557.5 c 128,-1,52
 136 548 136 548 142.5 541 c 128,-1,53
 149 534 149 534 154 530 c 128,-1,54
 159 526 159 526 159 523 c 128,-1,55
 159 520 159 520 147 509 c 128,-1,56
 135 498 135 498 114.5 498 c 128,-1,57
 94 498 94 498 79.5 507 c 128,-1,58
 65 516 65 516 56.5 530.5 c 0,59,60
 38.5556 561.111 38.5556 561.111 46.2778 594.056 c 128,-1,61
 54 627 54 627 75 644.5 c 128,-1,62
 96 662 96 662 121 671.5 c 128,-1,9
 146 681 146 681 169.5 684 c 128,-1,10
EndSplineSet
Validated: 540705
EndChar

StartChar: colon
Encoding: 58 58 51
Width: 248
Flags: HW
HStem: -12 125<78.5651 169.435> 304 125<78.0496 168.95>
VStem: 60 128<6.04932 94.9507 321.534 410.951>
LayerCount: 2
Fore
SplineSet
77.5 411.5 m 128,-1,1
 95 429 95 429 123.5 429 c 128,-1,2
 152 429 152 429 169.5 411.5 c 128,-1,3
 187 394 187 394 187 366 c 256,4,5
 187 338 187 338 169.5 321 c 128,-1,6
 152 304 152 304 123.5 304 c 128,-1,7
 95 304 95 304 77.5 321 c 128,-1,8
 60 338 60 338 60 366 c 256,9,0
 60 394 60 394 77.5 411.5 c 128,-1,1
170 5.5 m 128,-1,11
 152 -12 152 -12 124 -12 c 128,-1,12
 96 -12 96 -12 78 5.5 c 128,-1,13
 60 23 60 23 60 50.5 c 128,-1,14
 60 78 60 78 78 95.5 c 128,-1,15
 96 113 96 113 124.5 113 c 128,-1,16
 153 113 153 113 170.5 95.5 c 128,-1,17
 188 78 188 78 188 50.5 c 128,-1,10
 188 23 188 23 170 5.5 c 128,-1,11
EndSplineSet
Validated: 16385
EndChar

StartChar: semicolon
Encoding: 59 59 52
Width: 261
Flags: HW
HStem: 301 125<83.5957 172.951>
VStem: 64 127<319.049 407.951> 133 76<-40.6511 38.8192>
LayerCount: 2
Fore
SplineSet
83 408.5 m 128,-1,1
 102 426 102 426 129 426 c 128,-1,2
 156 426 156 426 173.5 408.5 c 128,-1,3
 191 391 191 391 191 363.5 c 128,-1,4
 191 336 191 336 173.5 318.5 c 128,-1,5
 156 301 156 301 128.5 301 c 128,-1,6
 101 301 101 301 82.5 318.5 c 128,-1,7
 64 336 64 336 64 363.5 c 128,-1,0
 64 391 64 391 83 408.5 c 128,-1,1
69.5 69.5 m 128,-1,9
 58 80 58 80 58 98 c 128,-1,10
 58 116 58 116 72.5 131.5 c 128,-1,11
 87 147 87 147 108.5 147 c 128,-1,12
 130 147 130 147 148.5 136.5 c 128,-1,13
 167 126 167 126 180.5 108.5 c 0,14,15
 209 71.5556 209 71.5556 209 34.2778 c 128,-1,16
 209 -3 209 -3 195.5 -27.5 c 128,-1,17
 182 -52 182 -52 161 -70 c 0,18,19
 121.748 -103.645 121.748 -103.645 61 -120 c 1,20,21
 46.009 -125.622 46.009 -125.622 41.5045 -114.811 c 0,22,23
 33.0811 -94.5946 33.0811 -94.5946 48 -89 c 0,24,25
 133 -56.619 133 -56.619 133 0 c 0,26,27
 133 24.931 133 24.931 107 41.9655 c 128,-1,8
 81 59 81 59 69.5 69.5 c 128,-1,9
EndSplineSet
Validated: 540673
EndChar

StartChar: f_j
Encoding: 65539 -1 53
Width: 595
Flags: HW
HStem: -3 38<45.588 112.974 217.026 284.424> 399 39<25.5601 119 211 392.234> 693 31<297.193 409.776>
VStem: 119 92<40.022 399 438 561.144> 426 80<587.883 681.416> 427 91<-60.2892 393.978>
LayerCount: 2
Fore
SplineSet
426 638 m 0,0,1
 426 693 426 693 356 693 c 0,2,3
 252.866 693 252.866 693 221 552.5 c 0,4,5
 210 504 210 504 211 438 c 1,6,-1
 368 438 l 1,7,-1
 509 470 l 2,8,9
 518 472 518 472 518 463 c 2,10,-1
 518 99 l 2,11,12
 518 -22.7143 518 -22.7143 488 -79.8571 c 128,-1,13
 458 -137 458 -137 422.5 -164.5 c 128,-1,14
 387 -192 387 -192 356 -199.5 c 128,-1,15
 325 -207 325 -207 321 -203.5 c 128,-1,16
 317 -200 317 -200 314.5 -191.5 c 0,17,18
 308.656 -171.629 308.656 -171.629 321 -167 c 0,19,20
 389.106 -139.39 389.106 -139.39 410.5 -64 c 0,21,22
 427 -5.85714 427 -5.85714 427 131 c 2,23,-1
 427 356.5 l 2,24,25
 427 399 427 399 376 399 c 2,26,-1
 211 399 l 1,27,-1
 211 77.5 l 2,28,29
 211 35 211 35 262 35 c 0,30,31
 272 35 272 35 278 33.5 c 128,-1,32
 284 32 284 32 284.5 14.5 c 128,-1,33
 285 -3 285 -3 270 -3 c 1,34,35
 165.5 4.2069 165.5 4.2069 61 -3 c 1,36,37
 45 -3 45 -3 45.5 14.5 c 128,-1,38
 46 32 46 32 52 33.5 c 128,-1,39
 58 35 58 35 68 35 c 0,40,41
 119 35 119 35 119 77.5 c 2,42,-1
 119 399 l 1,43,-1
 42 399 l 2,44,45
 25 399 25 399 25.5 417 c 128,-1,46
 26 435 26 435 32.5 436.5 c 128,-1,47
 39 438 39 438 49 438 c 2,48,-1
 119 438 l 1,49,50
 120.926 574.781 120.926 574.781 196 652 c 0,51,52
 266 724 266 724 382 724 c 0,53,54
 460.778 724 460.778 724 495 668 c 0,55,56
 506 650 506 650 506 623.5 c 128,-1,57
 506 597 506 597 488.5 572.5 c 128,-1,58
 471 548 471 548 443 548 c 128,-1,59
 415 548 415 548 403 559 c 128,-1,60
 391 570 391 570 391 573.5 c 128,-1,61
 391 577 391 577 396.5 581 c 128,-1,62
 402 585 402 585 408.5 592.5 c 0,63,64
 426 612.692 426 612.692 426 638 c 0,0,1
EndSplineSet
Validated: 540705
EndChar

StartChar: f_i
Encoding: 64257 64257 54
Width: 615
Flags: HW
HStem: -3 38<45.588 112.974 217.026 284.424 356.13 420.974 524.145 592.412> 399 39<25.5601 119 211 392.234> 693 31<297.193 409.776>
VStem: 119 92<40.022 399 438 561.144> 426 80<587.883 681.416> 427 91<40.4889 393.978>
LayerCount: 2
Fore
SplineSet
426 638 m 0,0,1
 426 693 426 693 356 693 c 0,2,3
 252.866 693 252.866 693 221 552.5 c 0,4,5
 210 504 210 504 211 438 c 1,6,-1
 368 438 l 1,7,-1
 509 470 l 2,8,9
 518 472 518 472 518 463 c 2,10,-1
 518 77.5 l 2,11,12
 518 35 518 35 570 35 c 0,13,14
 579 35 579 35 585.5 33.5 c 128,-1,15
 592 32 592 32 592.5 14.5 c 128,-1,16
 593 -3 593 -3 577 -3 c 1,17,18
 533.5 -3.72529e-09 533.5 -3.72529e-09 472 0 c 256,19,20
 411.5 0 411.5 0 385.75 -1.5 c 128,-1,21
 360 -3 360 -3 356 3 c 128,-1,22
 352 9 352 9 353 20.5 c 128,-1,23
 354 32 354 32 360 33.5 c 128,-1,24
 366 35 366 35 376 35 c 0,25,26
 427 35 427 35 427 77.5 c 2,27,-1
 427 356.5 l 2,28,29
 427 399 427 399 376 399 c 2,30,-1
 211 399 l 1,31,-1
 211 77.5 l 2,32,33
 211 35 211 35 262 35 c 0,34,35
 272 35 272 35 278 33.5 c 128,-1,36
 284 32 284 32 284.5 14.5 c 128,-1,37
 285 -3 285 -3 270 -3 c 1,38,39
 165.5 4.2069 165.5 4.2069 61 -3 c 1,40,41
 45 -3 45 -3 45.5 14.5 c 128,-1,42
 46 32 46 32 52 33.5 c 128,-1,43
 58 35 58 35 68 35 c 0,44,45
 119 35 119 35 119 77.5 c 2,46,-1
 119 399 l 1,47,-1
 42 399 l 2,48,49
 25 399 25 399 25.5 417 c 128,-1,50
 26 435 26 435 32.5 436.5 c 128,-1,51
 39 438 39 438 49 438 c 2,52,-1
 119 438 l 1,53,54
 120.926 574.781 120.926 574.781 196 652 c 0,55,56
 266 724 266 724 382 724 c 0,57,58
 460.778 724 460.778 724 495 668 c 0,59,60
 506 650 506 650 506 623.5 c 128,-1,61
 506 597 506 597 488.5 572.5 c 128,-1,62
 471 548 471 548 443 548 c 128,-1,63
 415 548 415 548 403 559 c 128,-1,64
 391 570 391 570 391 573.5 c 128,-1,65
 391 577 391 577 396.5 581 c 128,-1,66
 402 585 402 585 408.5 592.5 c 0,67,68
 426 612.692 426 612.692 426 638 c 0,0,1
EndSplineSet
Validated: 540705
EndChar

StartChar: slash
Encoding: 47 47 55
Width: 394
Flags: HW
VStem: 34 326
LayerCount: 2
Fore
SplineSet
88 -177 m 2,0,1
 79.5514 -200.234 79.5514 -200.234 62.2757 -196.617 c 0,2,3
 29.6743 -189.791 29.6743 -189.791 34 -166 c 1,4,-1
 304 685 l 1,5,6
 312.678 708.864 312.678 708.864 330.339 705.432 c 0,7,8
 364.942 698.708 364.942 698.708 360 674 c 1,9,-1
 88 -177 l 2,0,1
EndSplineSet
Validated: 540705
EndChar

StartChar: hyphen
Encoding: 45 45 56
Width: 385
Flags: HW
HStem: 199 64<61.5 323.5>
VStem: 60 265<199.024 262.969>
LayerCount: 2
Fore
SplineSet
302 263 m 2,0,1
 325 263 325 263 325 231 c 0,2,3
 325 221 325 221 319 210 c 128,-1,4
 313 199 313 199 302 199 c 2,5,-1
 83 199 l 2,6,7
 72 199 72 199 66 210 c 128,-1,8
 60 221 60 221 60 231 c 0,9,10
 60 263 60 263 83 263 c 2,11,-1
 302 263 l 2,0,1
EndSplineSet
Validated: 16385
EndChar

StartChar: less
Encoding: 60 60 57
Width: 529
Flags: W
LayerCount: 2
Fore
SplineSet
49 232 m 1,0,1
 36 241 36 241 36 252.5 c 0,2,3
 36 274.571 36 274.571 49 282 c 2,4,-1
 441 488 l 1,5,6
 455 494 455 494 464 487.5 c 128,-1,7
 473 481 473 481 475 470.5 c 0,8,9
 479.897 444.791 479.897 444.791 458 433 c 2,10,-1
 124 259 l 1,11,-1
 124 256 l 1,12,-1
 458 82 l 2,13,14
 479.777 70.2739 479.777 70.2739 476.389 52.1369 c 0,15,16
 469.417 14.8214 469.417 14.8214 441 27 c 1,17,-1
 49 232 l 1,0,1
EndSplineSet
Validated: 524321
EndChar

StartChar: equal
Encoding: 61 61 58
Width: 630
Flags: HW
HStem: 147 54<68.2751 561.725> 315 54<68.2751 561.725>
LayerCount: 2
Fore
SplineSet
562 174 m 128,-1,1
 562 147 562 147 539 147 c 2,2,-1
 91 147 l 2,3,4
 68 147 68 147 68 174 c 128,-1,5
 68 201 68 201 91 201 c 2,6,-1
 539 201 l 2,7,0
 562 201 562 201 562 174 c 128,-1,1
562 342 m 128,-1,9
 562 315 562 315 539 315 c 2,10,-1
 91 315 l 2,11,12
 68 315 68 315 68 342 c 128,-1,13
 68 369 68 369 91 369 c 2,14,-1
 539 369 l 2,15,8
 562 369 562 369 562 342 c 128,-1,9
EndSplineSet
Validated: 16385
EndChar

StartChar: greater
Encoding: 62 62 59
Width: 529
Flags: W
LayerCount: 2
Fore
SplineSet
88 27 m 1,0,1
 74 21 74 21 65 27.5 c 128,-1,2
 56 34 56 34 54 44.5 c 0,3,4
 49.103 70.2093 49.103 70.2093 71 82 c 2,5,-1
 405 256 l 1,6,-1
 405 259 l 1,7,-1
 71 433 l 2,8,9
 49.2229 444.726 49.2229 444.726 52.6115 462.863 c 0,10,11
 59.5832 500.179 59.5832 500.179 88 488 c 1,12,-1
 480 282 l 2,13,14
 493 274.571 493 274.571 493 257.786 c 128,-1,15
 493 241 493 241 480 232 c 1,16,-1
 88 27 l 1,0,1
EndSplineSet
Validated: 524321
EndChar

StartChar: plus
Encoding: 43 43 60
Width: 566
Flags: HW
HStem: 237 54<36.2632 252 315 529.737>
VStem: 252 63<1.33984 237 291 502.66>
LayerCount: 2
Fore
SplineSet
36 264 m 256,0,1
 36 291 36 291 58 291 c 2,2,-1
 252 291 l 1,3,-1
 252 479 l 2,4,5
 252 490 252 490 262 497 c 128,-1,6
 272 504 272 504 283.5 504 c 128,-1,7
 295 504 295 504 305 497 c 128,-1,8
 315 490 315 490 315 479 c 2,9,-1
 315 291 l 1,10,-1
 508 291 l 2,11,12
 530 291 530 291 530 264 c 256,13,14
 530 237 530 237 508 237 c 2,15,-1
 315 237 l 1,16,-1
 315 25 l 2,17,18
 315 14 315 14 305 7 c 128,-1,19
 295 0 295 0 283.5 0 c 128,-1,20
 272 0 272 0 262 7 c 128,-1,21
 252 14 252 14 252 25 c 2,22,-1
 252 237 l 1,23,-1
 58 237 l 2,24,25
 36 237 36 237 36 264 c 256,0,1
EndSplineSet
Validated: 16385
EndChar

StartChar: parenright
Encoding: 41 41 61
Width: 293
Flags: HW
VStem: 172 85<116.622 442.203>
LayerCount: 2
Fore
SplineSet
36 -165 m 1,0,1
 18.8409 -175.295 18.8409 -175.295 11.9205 -158.648 c 128,-1,2
 5 -142 5 -142 28.5 -119.5 c 128,-1,3
 52 -97 52 -97 80.5 -52.5 c 128,-1,4
 109 -8 109 -8 129 45 c 0,5,6
 172 158.95 172 158.95 172 281 c 256,7,8
 172 468.947 172 468.947 79.5 615 c 0,9,10
 51 660 51 660 27.5 682.5 c 128,-1,11
 4 705 4 705 8.5 716 c 0,12,13
 17.6642 738.401 17.6642 738.401 35 728 c 1,14,15
 144 651 144 651 200.5 535.5 c 128,-1,16
 257 420 257 420 257 281 c 128,-1,17
 257 142 257 142 201 26 c 128,-1,18
 145 -90 145 -90 36 -165 c 1,0,1
EndSplineSet
Validated: 540705
EndChar

StartChar: asterisk
Encoding: 42 42 62
Width: 526
Flags: HW
HStem: 496 92<51.4667 121.5 360.64 468.561>
VStem: 130 99<362.473 442.34 637.36 717.537> 288.256 105.244<638.749 704.854> 295.5 94.7866<365.504 435.5>
LayerCount: 2
Fore
SplineSet
187.5 727 m 128,-1,1
 207 722 207 722 216.5 707 c 128,-1,2
 226 692 226 692 229 678.5 c 128,-1,3
 232 665 232 665 234.5 647.5 c 0,4,5
 241.176 600.765 241.176 600.765 258 561 c 1,6,7
 260 562 260 562 267 562 c 1,8,9
 284.513 598.484 284.513 598.484 288.256 631.242 c 0,10,11
 294.723 687.825 294.723 687.825 305.361 705.413 c 128,-1,12
 316 723 316 723 335 727 c 128,-1,13
 354 731 354 731 370.5 722.5 c 128,-1,14
 387 714 387 714 393.5 696 c 128,-1,15
 400 678 400 678 390.5 662 c 128,-1,16
 381 646 381 646 369.5 637 c 2,17,-1
 343.5 617.5 l 2,18,19
 304.116 588.981 304.116 588.981 279 555 c 1,20,21
 281 553 281 553 281 551 c 128,-1,22
 281 549 281 549 282 547 c 1,23,24
 328.901 553.254 328.901 553.254 358.951 565.627 c 0,25,26
 413.286 588 413.286 588 434.143 588 c 128,-1,27
 455 588 455 588 469 574 c 128,-1,28
 483 560 483 560 482.5 542 c 128,-1,29
 482 524 482 524 468 510 c 128,-1,30
 454 496 454 496 435 496 c 128,-1,31
 416 496 416 496 402.5 500.5 c 128,-1,32
 389 505 389 505 372 511.5 c 0,33,34
 324.338 529.724 324.338 529.724 283 534 c 1,35,-1
 277 528 l 1,36,37
 302.338 497.031 302.338 497.031 330.669 476.515 c 0,38,39
 380.573 440.378 380.573 440.378 390.287 423.189 c 0,40,41
 412.267 384.292 412.267 384.292 375 361 c 1,42,43
 357 351 357 351 337 356 c 128,-1,44
 317 361 317 361 307.5 376 c 128,-1,45
 298 391 298 391 295.5 404.5 c 2,46,-1
 290 435.5 l 2,47,48
 281.707 483.873 281.707 483.873 266 521 c 1,49,50
 264 520 264 520 257 520 c 1,51,52
 240.448 484.138 240.448 484.138 235.724 451.069 c 2,53,-1
 229 404.5 l 2,54,55
 222.594 361.26 222.594 361.26 190.5 355.5 c 0,56,57
 171 352 171 352 155 360.5 c 128,-1,58
 139 369 139 369 131.5 387 c 128,-1,59
 124 405 124 405 134 420.5 c 128,-1,60
 144 436 144 436 155 445 c 128,-1,61
 166 454 166 454 180.5 464.5 c 0,62,63
 219.884 493.019 219.884 493.019 245 527 c 1,64,65
 243 529 243 529 243 531 c 128,-1,66
 243 533 243 533 242 535 c 1,67,68
 202.876 530.953 202.876 530.953 168.938 517.976 c 2,69,-1
 121.5 500 l 2,70,71
 80.0348 484.643 80.0348 484.643 61.5174 503.821 c 128,-1,72
 43 523 43 523 44 541 c 1,73,74
 43 559 43 559 57 573 c 128,-1,75
 71 587 71 587 89.5 587 c 128,-1,76
 108 587 108 587 122 582 c 2,77,-1
 153 570.5 l 2,78,79
 201.033 552.135 201.033 552.135 241 548 c 1,80,-1
 248 554 l 1,81,82
 218.268 588.427 218.268 588.427 191.634 607.713 c 2,83,-1
 154 635.5 l 2,84,85
 143 644 143 644 134 660.5 c 128,-1,86
 125 677 125 677 130 694.5 c 128,-1,87
 135 712 135 712 151 722 c 0,88,0
 168 732 168 732 187.5 727 c 128,-1,1
EndSplineSet
Validated: 540705
EndChar

StartChar: parenleft
Encoding: 40 40 63
Width: 293
Flags: HW
VStem: 36 85<117.141 441.842>
LayerCount: 2
Fore
SplineSet
257 -165 m 1,0,1
 148 -90 148 -90 92 26 c 128,-1,2
 36 142 36 142 36 281 c 128,-1,3
 36 420 36 420 92.5 535.5 c 128,-1,4
 149 651 149 651 258 728 c 1,5,6
 275.159 738.295 275.159 738.295 282.08 721.648 c 128,-1,7
 289 705 289 705 265.5 682.5 c 128,-1,8
 242 660 242 660 213.5 615 c 128,-1,9
 185 570 185 570 164.5 517 c 0,10,11
 121 404.537 121 404.537 121 281 c 256,12,13
 121 90.3684 121 90.3684 212.5 -52.5 c 0,14,15
 241 -97 241 -97 264.5 -119.5 c 128,-1,16
 288 -142 288 -142 283.5 -153 c 0,17,18
 274.336 -175.401 274.336 -175.401 257 -165 c 1,0,1
EndSplineSet
Validated: 540705
EndChar

StartChar: quotesingle
Encoding: 39 39 64
Width: 186
Flags: HW
HStem: 397 291<74.2969 110.996>
VStem: 45 95<466.998 680.356> 74.5 36.5<397.004 521.592>
LayerCount: 2
Fore
SplineSet
93 688 m 256,0,1
 140 688 140 688 140 618 c 0,2,3
 140 579.455 140 579.455 130.5 530.227 c 0,4,5
 112.429 436.589 112.429 436.589 111 408 c 0,6,7
 111 397 111 397 93 397 c 128,-1,8
 75 397 75 397 74.5 412.5 c 128,-1,9
 74 428 74 428 69 454.5 c 2,10,-1
 59 509 l 2,11,12
 45 587.4 45 587.4 45 617 c 0,13,14
 45 688 45 688 93 688 c 256,0,1
EndSplineSet
Validated: 540673
EndChar

StartChar: percent
Encoding: 37 37 65
Width: 776
Flags: HW
HStem: -20 43<522.861 627.937> 277 41<524.201 627.833> 312 42<147.216 253.652> 608 41<148.361 252.74>
VStem: 44 74<389.765 565.648> 283 74<396.645 572.402> 419 75<58.1279 234.502> 658 75<65.1447 239.293>
LayerCount: 2
Fore
SplineSet
520.5 307 m 128,-1,1
 548 318 548 318 579.5 318 c 128,-1,2
 611 318 611 318 640 304.5 c 128,-1,3
 669 291 669 291 689.5 268.5 c 0,4,5
 733 220.756 733 220.756 733 166.378 c 128,-1,6
 733 112 733 112 718.5 79.5 c 128,-1,7
 704 47 704 47 681 25 c 0,8,9
 633.955 -20 633.955 -20 586.477 -20 c 128,-1,10
 539 -20 539 -20 510.5 -6.5 c 128,-1,11
 482 7 482 7 461.5 30 c 0,12,13
 419 77.6829 419 77.6829 419 132.841 c 128,-1,14
 419 188 419 188 433.5 220 c 128,-1,15
 448 252 448 252 470.5 274 c 128,-1,0
 493 296 493 296 520.5 307 c 128,-1,1
575 23 m 256,16,17
 658 23 658 23 658 150 c 128,-1,18
 658 277 658 277 576 277 c 128,-1,19
 494 277 494 277 494 150 c 128,-1,20
 494 23 494 23 575 23 c 256,16,17
145.5 638 m 128,-1,22
 173 649 173 649 204.5 649 c 128,-1,23
 236 649 236 649 265 635.5 c 128,-1,24
 294 622 294 622 314.5 599.5 c 0,25,26
 357 552.854 357 552.854 357 498.427 c 128,-1,27
 357 444 357 444 342.5 411.5 c 128,-1,28
 328 379 328 379 305 357 c 0,29,30
 257.955 312 257.955 312 210.977 312 c 128,-1,31
 164 312 164 312 135 325.5 c 128,-1,32
 106 339 106 339 86 362 c 0,33,34
 44 410.3 44 410.3 44 465.15 c 128,-1,35
 44 520 44 520 58.5 551.5 c 128,-1,36
 73 583 73 583 95.5 605 c 128,-1,21
 118 627 118 627 145.5 638 c 128,-1,22
200 354 m 256,37,38
 283 354 283 354 283 481 c 128,-1,39
 283 608 283 608 200.5 608 c 128,-1,40
 118 608 118 608 118 481 c 128,-1,41
 118 354 118 354 200 354 c 256,37,38
163 6 m 2,42,43
 147.308 -11.4359 147.308 -11.4359 132.154 -5.71795 c 128,-1,44
 117 0 117 0 111 10.5 c 128,-1,45
 105 21 105 21 113 31 c 2,46,-1
 596 617 l 2,47,48
 609.755 633.811 609.755 633.811 627.377 628.406 c 0,49,50
 666.481 616.411 666.481 616.411 648 591 c 1,51,-1
 163 6 l 2,42,43
EndSplineSet
Validated: 540705
EndChar

StartChar: dollar
Encoding: 36 36 66
Width: 500
Flags: HW
HStem: -13 34<163.553 222> 530 36<172.594 222 261 314.809> 620 20G<231.75 251.25>
VStem: 62 74<381.988 490.644> 222 39<-88.9944 -13 21 239 345 529 566 639.994> 369.5 79.5<58.8901 177.294>
LayerCount: 2
Fore
SplineSet
261 -66 m 2,0,1
 261 -89 261 -89 241.5 -89 c 128,-1,2
 222 -89 222 -89 222 -66 c 2,3,-1
 222 -13 l 1,4,-1
 209 -13 l 2,5,6
 134.182 -13 134.182 -13 87.5 26.5 c 0,7,8
 53.3616 55.3864 53.3616 55.3864 60.5 102.5 c 0,9,10
 69.5152 162 69.5152 162 121 162 c 0,11,12
 142 162 142 162 152.5 152 c 128,-1,13
 163 142 163 142 163 138.5 c 128,-1,14
 163 135 163 135 158.5 131.5 c 128,-1,15
 154 128 154 128 148.5 122 c 0,16,17
 134 106.182 134 106.182 134.5 87.5909 c 128,-1,18
 135 69 135 69 142.5 57.5 c 128,-1,19
 150 46 150 46 162 38.5 c 0,20,21
 186.675 23.0779 186.675 23.0779 222 21 c 1,22,-1
 222 257 l 1,23,24
 145.379 288.705 145.379 288.705 118.189 309.853 c 0,25,26
 63.7893 352.164 63.7893 352.164 62 413 c 0,27,28
 59.0947 505.971 59.0947 505.971 157.5 546 c 0,29,30
 187 558 187 558 222 563 c 1,31,-1
 222 617 l 2,32,33
 222 640 222 640 241.5 640 c 128,-1,34
 261 640 261 640 261 617 c 2,35,-1
 261 566 l 1,36,-1
 265 566 l 2,37,38
 339.515 566 339.515 566 385 526.5 c 0,39,40
 419.479 496.558 419.479 496.558 412.5 450.5 c 0,41,42
 407.387 416.753 407.387 416.753 387.693 403.876 c 128,-1,43
 368 391 368 391 349.5 391 c 128,-1,44
 331 391 331 391 319.5 401 c 128,-1,45
 308 411 308 411 308 414 c 128,-1,46
 308 417 308 417 313 421 c 128,-1,47
 318 425 318 425 323.5 431 c 0,48,49
 339 447.909 339 447.909 339 465.455 c 128,-1,50
 339 483 339 483 331.5 494.5 c 128,-1,51
 324 506 324 506 313 513.5 c 0,52,53
 292.335 527.59 292.335 527.59 261 530 c 1,54,-1
 261 330 l 1,55,56
 445.931 258.414 445.931 258.414 449 151 c 1,57,58
 450 67 450 67 402 29 c 128,-1,59
 354 -9 354 -9 261 -13 c 1,60,-1
 261 -66 l 2,0,1
337 49 m 128,-1,62
 369 72 369 72 369.5 105 c 128,-1,63
 370 138 370 138 361.5 157 c 128,-1,64
 353 176 353 176 338 191 c 0,65,66
 314.167 214.833 314.167 214.833 261 239 c 1,67,-1
 261 21 l 1,68,61
 305 26 305 26 337 49 c 128,-1,62
156.5 498.5 m 128,-1,70
 136 475 136 475 136 448 c 128,-1,71
 136 421 136 421 143 404.5 c 128,-1,72
 150 388 150 388 162 376.5 c 0,73,74
 179.053 360.158 179.053 360.158 222 345 c 1,75,-1
 222 529 l 1,76,69
 177 522 177 522 156.5 498.5 c 128,-1,70
EndSplineSet
Validated: 540705
EndChar

StartChar: numbersign
Encoding: 35 35 67
Width: 616
Flags: HW
HStem: 178 55<42.3757 148 214 359 423 533.624> 398 55<82.3757 195 260 403 469 573.624>
LayerCount: 2
Fore
SplineSet
249 398 m 1,0,-1
 214 233 l 1,1,-1
 369 233 l 1,2,-1
 403 398 l 1,3,-1
 249 398 l 1,0,-1
101 398 m 2,4,5
 82 398 82 398 82 424.444 c 128,-1,6
 82 450.889 82 450.889 101 453 c 1,7,-1
 206 453 l 1,8,-1
 240 613 l 2,9,10
 244.5 631 244.5 631 260.25 631 c 0,11,12
 291.75 631 291.75 631 294 613 c 1,13,-1
 260 453 l 1,14,-1
 413 453 l 1,15,-1
 449 612 l 2,16,17
 454 631 454 631 469.5 631 c 0,18,19
 500.889 631 500.889 631 503 612 c 1,20,-1
 469 453 l 1,21,-1
 555 453 l 1,22,23
 574 450.889 574 450.889 574 424.444 c 128,-1,24
 574 398 574 398 555 398 c 2,25,-1
 458 398 l 1,26,-1
 423 233 l 1,27,-1
 515 233 l 1,28,29
 534 230.889 534 230.889 534 204.444 c 128,-1,30
 534 178 534 178 515 178 c 2,31,-1
 413 178 l 1,32,-1
 379 18 l 2,33,34
 374.5 0 374.5 0 358.75 0 c 0,35,36
 327.25 0 327.25 0 325 18 c 1,37,-1
 359 178 l 1,38,-1
 203 178 l 1,39,-1
 170 19 l 2,40,41
 165.778 -3.05176e-05 165.778 -3.05176e-05 149.889 -1.52588e-05 c 0,42,43
 117.111 1.62191e-05 117.111 1.62191e-05 115 19 c 1,44,-1
 148 178 l 1,45,-1
 61 178 l 2,46,47
 42 178 42 178 42 204.444 c 128,-1,48
 42 230.889 42 230.889 61 233 c 1,49,-1
 160 233 l 1,50,-1
 195 398 l 1,51,-1
 101 398 l 2,4,5
EndSplineSet
Validated: 540673
EndChar

StartChar: quotedbl
Encoding: 34 34 68
Width: 339
Flags: HW
HStem: 397 291<74.2969 110.996 227.297 263.996>
VStem: 45 95<466.998 680.356> 74.5 36.5<397.004 521.592> 198 95<466.998 680.356> 227.5 36.5<397.004 521.592>
LayerCount: 2
Fore
SplineSet
93 688 m 256,0,1
 140 688 140 688 140 618 c 0,2,3
 140 579.455 140 579.455 130.5 530.227 c 0,4,5
 112.429 436.589 112.429 436.589 111 408 c 0,6,7
 111 397 111 397 93 397 c 128,-1,8
 75 397 75 397 74.5 412.5 c 128,-1,9
 74 428 74 428 69 454.5 c 2,10,-1
 59 509 l 2,11,12
 45 587.4 45 587.4 45 617 c 0,13,14
 45 688 45 688 93 688 c 256,0,1
246 688 m 256,15,16
 293 688 293 688 293 618 c 0,17,18
 293 579.455 293 579.455 283.5 530.227 c 0,19,20
 265.429 436.589 265.429 436.589 264 408 c 0,21,22
 264 397 264 397 246 397 c 128,-1,23
 228 397 228 397 227.5 412.5 c 128,-1,24
 227 428 227 428 222 454.5 c 2,25,-1
 212 509 l 2,26,27
 198 587.4 198 587.4 198 617 c 0,28,29
 198 688 198 688 246 688 c 256,15,16
EndSplineSet
Validated: 540673
EndChar

StartChar: exclam
Encoding: 33 33 69
Width: 262
Flags: HW
HStem: -12 127<85.5649 176.435>
VStem: 67 128<6.04932 95.9197> 77 108<331.512 670.547> 107 48<207.031 433.724>
LayerCount: 2
Fore
SplineSet
177 5.5 m 128,-1,1
 159 -12 159 -12 131 -12 c 128,-1,2
 103 -12 103 -12 85 5.5 c 128,-1,3
 67 23 67 23 67 50.5 c 128,-1,4
 67 78 67 78 85 96.5 c 128,-1,5
 103 115 103 115 131 115 c 256,6,7
 159 115 159 115 177 96.5 c 128,-1,8
 195 78 195 78 195 50.5 c 128,-1,0
 195 23 195 23 177 5.5 c 128,-1,1
131 687 m 256,9,10
 185 687 185 687 185 570 c 0,11,12
 185 504.25 185 504.25 174.5 421.125 c 0,13,14
 155 266.75 155 266.75 155 221 c 0,15,16
 155 207 155 207 131 207 c 128,-1,17
 107 207 107 207 107 221 c 0,18,19
 107 266.75 107 266.75 96.5 349.875 c 0,20,21
 77 504.25 77 504.25 77 570 c 0,22,23
 77 687 77 687 131 687 c 256,9,10
EndSplineSet
Validated: 540673
EndChar

StartChar: C
Encoding: 67 67 70
Width: 639
Flags: HW
HStem: -20 49<302.558 480.592> 611 40<292.099 450.445>
VStem: 49 117<189.855 446.516> 490 106<460.558 576.041>
LayerCount: 2
Fore
SplineSet
575.5 577 m 0,0,1
 596 550 596 550 596 519.5 c 128,-1,2
 596 489 596 489 589.5 469.5 c 128,-1,3
 583 450 583 450 570 435 c 0,4,5
 541.4 402 541.4 402 494 402 c 0,6,7
 453.75 402 453.75 402 442.5 429 c 0,8,9
 440 435 440 435 440 437.5 c 128,-1,10
 440 440 440 440 448 444.5 c 128,-1,11
 456 449 456 449 465 457.5 c 0,12,13
 490 481.111 490 481.111 490 519.556 c 128,-1,14
 490 558 490 558 460 584.5 c 128,-1,15
 430 611 430 611 380 611 c 128,-1,16
 330 611 330 611 291.5 591.5 c 128,-1,17
 253 572 253 572 225 534.5 c 0,18,19
 166 455.482 166 455.482 166 317 c 0,20,21
 166 194.9 166 194.9 229 113 c 0,22,23
 293.615 29 293.615 29 394 29 c 0,24,25
 496.392 29 496.392 29 556 124 c 1,26,27
 565 141 565 141 581 131 c 0,28,29
 612.626 111.234 612.626 111.234 600 95 c 0,30,31
 543.271 24.5777 543.271 24.5777 504.135 6.78886 c 0,32,33
 445.2 -20 445.2 -20 370.1 -20 c 128,-1,34
 295 -20 295 -20 239 2.5 c 128,-1,35
 183 25 183 25 140.5 68 c 0,36,37
 49 160.576 49 160.576 49 311 c 0,38,39
 49 464.835 49 464.835 137.5 557.5 c 0,40,41
 226.798 651 226.798 651 376 651 c 0,42,43
 519.315 651 519.315 651 575.5 577 c 0,0,1
EndSplineSet
Validated: 540705
EndChar

StartChar: B
Encoding: 66 66 71
Width: 621
Flags: HW
HStem: -1 40<42.6147 119.562 243.053 396.931> 316 40<231 372.885> 594 37<42.6119 115.587 231 375.627>
VStem: 132 99<56.8685 316 356 580.336> 418 107<410.848 554.805> 466 108<104.892 251.709>
LayerCount: 2
Fore
SplineSet
303 39 m 0,0,1
 466 39 466 39 466 192 c 1,2,3
 458.922 276.939 458.922 276.939 361 305.5 c 0,4,5
 325 316 325 316 272 316 c 2,6,-1
 231 316 l 1,7,-1
 231 117 l 2,8,9
 231 68 231 68 242.5 56.5 c 0,10,11
 260 39 260 39 303 39 c 0,0,1
231 594 m 1,12,-1
 231 356 l 1,13,-1
 273 356 l 2,14,15
 336 356 336 356 362 369 c 0,16,17
 418 397 418 397 418 462.5 c 128,-1,18
 418 528 418 528 392.5 561 c 128,-1,19
 367 594 367 594 301 594 c 2,20,-1
 231 594 l 1,12,-1
60 634 m 1,21,22
 108 631 108 631 178 631 c 2,23,-1
 319 631 l 2,24,25
 469.576 631 469.576 631 510 551.5 c 0,26,27
 525 522 525 522 525 487.5 c 128,-1,28
 525 453 525 453 512.5 427.5 c 128,-1,29
 500 402 500 402 480 384 c 0,30,31
 443.514 351.162 443.514 351.162 390 339 c 1,32,-1
 390 336 l 1,33,34
 511.077 336 511.077 336 559 247 c 0,35,36
 573 221 573 221 574 178 c 128,-1,37
 575 135 575 135 549 98 c 128,-1,38
 523 61 523 61 482.5 39 c 0,39,40
 408.864 -0.999993 408.864 -0.999993 299 -1 c 2,41,-1
 179 0 l 2,42,43
 108 0 108 0 60 -3 c 1,44,45
 42 -3 42 -3 42.5 16.5 c 128,-1,46
 43 36 43 36 49.5 38 c 128,-1,47
 56 40 56 40 73.5 40 c 128,-1,48
 91 40 91 40 104 46.5 c 128,-1,49
 117 53 117 53 123 64 c 0,50,51
 132 80.5 132 80.5 132 117 c 2,52,-1
 132 514 l 2,53,54
 132 570.5 132 570.5 104 584.5 c 0,55,56
 91 591 91 591 73.5 591 c 128,-1,57
 56 591 56 591 49.5 593 c 128,-1,58
 43 595 43 595 42.5 614.5 c 128,-1,59
 42 634 42 634 60 634 c 1,21,22
EndSplineSet
Validated: 540705
EndChar

StartChar: V
Encoding: 86 86 72
Width: 648
Flags: HW
HStem: 593 41<429.56 498.684 577.412 666.463>
LayerCount: 2
Fore
SplineSet
649 634 m 1,0,1
 667 634 667 634 666.5 614.5 c 128,-1,2
 666 595 666 595 659.5 593 c 128,-1,3
 653 591 653 591 628.5 591 c 0,4,5
 571.2 591 571.2 591 544 523 c 1,6,-1
 351 -10 l 1,7,-1
 304 -10 l 1,8,-1
 122 488 l 2,9,10
 114 509 114 509 110 519.5 c 128,-1,11
 106 530 106 530 98.5 544.5 c 128,-1,12
 91 559 91 559 82 568.5 c 0,13,14
 64.144 587.348 64.144 587.348 42.072 591.674 c 128,-1,15
 20 596 20 596 14.5 598 c 128,-1,16
 9 600 9 600 9 616.5 c 128,-1,17
 9 633 9 633 20.5 634.5 c 128,-1,18
 32 636 32 636 74 635.5 c 0,19,20
 170.296 634.354 170.296 634.354 212 531 c 1,21,-1
 357 141 l 1,22,-1
 360 141 l 1,23,-1
 498 542 l 2,24,25
 509 574 509 574 499 582.5 c 128,-1,26
 489 591 489 591 466 591 c 128,-1,27
 443 591 443 591 436.5 593 c 128,-1,28
 430 595 430 595 429.5 614.5 c 128,-1,29
 429 634 429 634 446 634 c 1,30,31
 494 631 494 631 532 631 c 2,32,-1
 580.5 631 l 2,33,34
 591 631 591 631 601 631.5 c 2,35,-1
 622 632.5 l 2,36,37
 633 633 633 633 649 634 c 1,0,1
EndSplineSet
Validated: 540705
EndChar

StartChar: A
Encoding: 65 65 73
Width: 653
Flags: HW
HStem: -3 41<-11.4629 61.7021 137.311 229.463 389.537 467.388 601.333 658.463> 200 43<196 406> 594.5 41<201.158 242.253 243.75 267.027>
LayerCount: 2
Fore
SplineSet
196 243 m 1,0,-1
 406 243 l 1,1,-1
 305 500 l 1,2,-1
 302 500 l 1,3,-1
 196 243 l 1,0,-1
6 -3 m 1,4,5
 -12 -3 -12 -3 -11.5 16.5 c 128,-1,6
 -11 36 -11 36 -4.5 38 c 128,-1,7
 2 40 2 40 17.5 40 c 128,-1,8
 33 40 33 40 45.5 46.5 c 128,-1,9
 58 53 58 53 66.5 64 c 128,-1,10
 75 75 75 75 81 89 c 2,11,-1
 268 531 l 1,12,13
 285.508 576.019 285.508 576.019 244.5 588.5 c 0,14,15
 233 592 233 592 219.5 594.5 c 128,-1,16
 206 597 206 597 201 599.5 c 128,-1,17
 196 602 196 602 196 618 c 128,-1,18
 196 634 196 634 207.5 635.5 c 128,-1,19
 219 637 219 637 243 637 c 128,-1,20
 267 637 267 637 290.5 632.5 c 128,-1,21
 314 628 314 628 332.5 617 c 0,22,23
 367.291 596.313 367.291 596.313 395 531 c 1,24,-1
 563 117 l 1,25,26
 583.592 63.4597 583.592 63.4597 600.796 51.7299 c 128,-1,27
 618 40 618 40 631.5 40 c 128,-1,28
 645 40 645 40 651.5 38 c 128,-1,29
 658 36 658 36 658.5 16.5 c 128,-1,30
 659 -3 659 -3 641 -3 c 1,31,32
 593 0 593 0 532 0 c 128,-1,33
 471 0 471 0 407 -3 c 0,34,35
 389 -3 389 -3 389.5 16.5 c 128,-1,36
 390 36 390 36 396.5 38 c 128,-1,37
 403 40 403 40 420.5 40 c 128,-1,38
 438 40 438 40 451 44.5 c 128,-1,39
 464 49 464 49 467.5 58 c 0,40,41
 472.974 72.0769 472.974 72.0769 458 117 c 1,42,-1
 424 200 l 1,43,-1
 177 200 l 1,44,45
 165 171 165 171 159 155 c 2,46,-1
 150 130.5 l 2,47,48
 147 122 147 122 146 120 c 128,-1,49
 145 118 145 118 141 104.5 c 128,-1,50
 137 91 137 91 134 76 c 128,-1,51
 131 61 131 61 137 53 c 0,52,53
 146.75 40 146.75 40 181.375 40 c 128,-1,54
 216 40 216 40 222.5 38 c 128,-1,55
 229 36 229 36 229.5 16.5 c 128,-1,56
 230 -3 230 -3 212 -3 c 1,57,58
 164 0 164 0 126 0 c 2,59,-1
 77 0 l 2,60,61
 66 0 66 0 55.5 -0.5 c 2,62,-1
 33.5 -1.5 l 2,63,64
 22 -2 22 -2 6 -3 c 1,4,5
EndSplineSet
Validated: 540705
EndChar

StartChar: paragraph.alt
Encoding: 65540 -1 74
Width: 486
Flags: HW
HStem: 664 45<262.805 337 391 450.376>
VStem: 194 54<-9.73682 375> 337 54<-9.73682 664>
LayerCount: 2
Fore
SplineSet
364 -10 m 256,0,1
 337 -10 337 -10 337 12 c 2,2,-1
 337 664 l 1,3,-1
 308 664 l 2,4,5
 271.062 664 271.062 664 262.531 653.5 c 0,6,7
 248 635.615 248 635.615 248 587 c 2,8,-1
 248 12 l 2,9,10
 248 -10 248 -10 221 -10 c 256,11,12
 194 -10 194 -10 194 12 c 2,13,-1
 194 375 l 1,14,15
 109 379 109 379 61.5 424.5 c 128,-1,16
 14 470 14 470 14 542 c 0,17,18
 14 656.826 14 656.826 123.5 696.5 c 0,19,20
 158 709 158 709 202 709 c 2,21,-1
 425 709 l 2,22,23
 435 709 435 709 442.5 707 c 128,-1,24
 450 705 450 705 450.5 684.5 c 128,-1,25
 451 664 451 664 432 664 c 2,26,-1
 391 664 l 1,27,-1
 391 12 l 2,28,29
 391 -10 391 -10 364 -10 c 256,0,1
EndSplineSet
Validated: 540673
EndChar

StartChar: emdash
Encoding: 8212 8212 75
Width: 868
Flags: HW
HStem: 237 54<61.2751 802.725>
LayerCount: 2
Fore
SplineSet
803 264 m 128,-1,1
 803 237 803 237 780 237 c 2,2,-1
 84 237 l 2,3,4
 61 237 61 237 61 264 c 128,-1,5
 61 291 61 291 84 291 c 2,6,-1
 780 291 l 2,7,0
 803 291 803 291 803 264 c 128,-1,1
EndSplineSet
Validated: 16385
EndChar

StartChar: endash
Encoding: 8211 8211 76
Width: 558
Flags: HW
HStem: 237 54<61.2751 492.725>
LayerCount: 2
Fore
SplineSet
493 264 m 128,-1,1
 493 237 493 237 470 237 c 2,2,-1
 84 237 l 2,3,4
 61 237 61 237 61 264 c 128,-1,5
 61 291 61 291 84 291 c 2,6,-1
 470 291 l 2,7,0
 493 291 493 291 493 264 c 128,-1,1
EndSplineSet
Validated: 16385
EndChar

StartChar: paragraph
Encoding: 182 182 77
Width: 542
Flags: HW
HStem: -153.5 39.75<201.473 288.602> 583 48<382 512.289>
VStem: 57 325<333.279 526.989> 321 61<-47.3598 220>
LayerCount: 2
Fore
SplineSet
503 629 m 128,-1,1
 512 627 512 627 512.5 605 c 128,-1,2
 513 583 513 583 492 583 c 2,3,-1
 382 583 l 1,4,-1
 382 84 l 2,5,6
 382 -70.9697 382 -70.9697 297 -131.5 c 0,7,8
 264 -155 264 -155 221.5 -153.5 c 0,9,10
 126.102 -150.133 126.102 -150.133 101 -82 c 1,11,12
 90.6506 -46.8121 90.6506 -46.8121 102.325 -21.906 c 0,13,14
 122.953 22.1003 122.953 22.1003 152.977 25.0502 c 128,-1,15
 183 28 183 28 196 18.5 c 128,-1,16
 209 9 209 9 211 4 c 0,17,18
 211 2 211 2 206 -2.5 c 128,-1,19
 201 -7 201 -7 195.5 -14.5 c 0,20,21
 157.311 -66.5758 157.311 -66.5758 210 -102.5 c 0,22,23
 232 -117.5 232 -117.5 257 -113.75 c 128,-1,24
 282 -110 282 -110 294.5 -84.5 c 128,-1,25
 307 -59 307 -59 313 -25.5 c 0,26,27
 321 19.1667 321 19.1667 321 104 c 2,28,-1
 321 220 l 1,29,30
 148.96 212.354 148.96 212.354 81.5 328 c 0,31,32
 57 370 57 370 57 419.5 c 128,-1,33
 57 469 57 469 69 504.5 c 128,-1,34
 81 540 81 540 111.5 568 c 0,35,36
 180.125 631 180.125 631 324 631 c 2,37,-1
 483 631 l 2,38,0
 494 631 494 631 503 629 c 128,-1,1
EndSplineSet
Validated: 540705
EndChar

StartChar: backslash
Encoding: 92 92 78
Width: 394
Flags: HW
VStem: 34 326
LayerCount: 2
Fore
SplineSet
34 674 m 1,0,1
 32 684 32 684 39 693 c 128,-1,2
 46 702 46 702 56.5 704 c 0,3,4
 81.3684 708.737 81.3684 708.737 90 685 c 1,5,-1
 360 -166 l 1,6,7
 364.4 -190.2 364.4 -190.2 338 -195 c 0,8,9
 314.449 -200.234 314.449 -200.234 306 -177 c 2,10,-1
 34 674 l 1,0,1
EndSplineSet
Validated: 540705
EndChar

StartChar: underscore
Encoding: 95 95 79
Width: 668
Flags: HW
HStem: -123 54<82.2751 585.725>
LayerCount: 2
Fore
SplineSet
586 -96 m 128,-1,1
 586 -123 586 -123 563 -123 c 2,2,-1
 105 -123 l 2,3,4
 82 -123 82 -123 82 -96 c 128,-1,5
 82 -69 82 -69 105 -69 c 2,6,-1
 563 -69 l 2,7,0
 586 -69 586 -69 586 -96 c 128,-1,1
EndSplineSet
Validated: 16385
EndChar

StartChar: asciicircum
Encoding: 94 94 80
Width: 505
Flags: HW
HStem: 708 20G<244.75 262.25>
LayerCount: 2
Fore
SplineSet
227 714 m 2,0,1
 236 728 236 728 253.5 728 c 128,-1,2
 271 728 271 728 280 714 c 2,3,-1
 466 414 l 1,4,5
 474 399 474 399 464.5 390 c 128,-1,6
 455 381 455 381 443.5 380 c 0,7,8
 420.026 377.959 420.026 377.959 410 394 c 2,9,-1
 253 650 l 1,10,-1
 96 394 l 1,11,12
 87.7368 377.474 87.7368 377.474 69.3684 379.237 c 128,-1,13
 51 381 51 381 41 390.5 c 128,-1,14
 31 400 31 400 40 414 c 2,15,-1
 227 714 l 2,0,1
EndSplineSet
Validated: 540705
EndChar

StartChar: bracketright
Encoding: 93 93 81
Width: 340
Flags: HW
HStem: -218 43<4.00562 188> 685 43<4.00562 188>
VStem: 188 75<-174.504 684.478>
LayerCount: 2
Fore
SplineSet
27 685 m 2,0,1
 4 685 4 685 4 706.5 c 128,-1,2
 4 728 4 728 27 728 c 2,3,-1
 201 728 l 2,4,5
 239.267 728 239.267 728 248.133 718.5 c 0,6,7
 263 702.571 263 702.571 263 661 c 2,8,-1
 263 -151 l 2,9,10
 263 -210.667 263 -210.667 231 -216 c 0,11,12
 219 -218 219 -218 201 -218 c 2,13,-1
 27 -218 l 2,14,15
 4 -218 4 -218 4 -196.5 c 128,-1,16
 4 -175 4 -175 27 -175 c 2,17,-1
 178 -175 l 2,18,19
 188 -175 188 -175 188 -163 c 2,20,-1
 188 673 l 2,21,22
 188 685 188 685 178 685 c 2,23,-1
 27 685 l 2,0,1
EndSplineSet
Validated: 540673
EndChar

StartChar: bracketleft
Encoding: 91 91 82
Width: 340
Flags: HW
HStem: -218 43<152 335.994> 685 43<152 335.994>
VStem: 77 75<-174.478 684.504>
LayerCount: 2
Fore
SplineSet
162 685 m 2,0,1
 152 685 152 685 152 673 c 2,2,-1
 152 -163 l 2,3,4
 152 -175 152 -175 162 -175 c 2,5,-1
 313 -175 l 2,6,7
 336 -175 336 -175 336 -196.5 c 128,-1,8
 336 -218 336 -218 313 -218 c 2,9,-1
 139 -218 l 2,10,11
 100.733 -218 100.733 -218 91.8667 -208.5 c 0,12,13
 77 -192.571 77 -192.571 77 -151 c 2,14,-1
 77 661 l 2,15,16
 77 720.667 77 720.667 109 726 c 0,17,18
 121 728 121 728 139 728 c 2,19,-1
 313 728 l 2,20,21
 336 728 336 728 336 706.5 c 128,-1,22
 336 685 336 685 313 685 c 2,23,-1
 162 685 l 2,0,1
EndSplineSet
Validated: 540673
EndChar

StartChar: bar
Encoding: 124 124 83
Width: 212
Flags: HW
HStem: 708 20G<92 120>
VStem: 78 56<-217.641 727.641>
LayerCount: 2
Fore
SplineSet
106 728 m 128,-1,1
 134 728 134 728 134 705 c 2,2,-1
 134 -195 l 2,3,4
 134 -218 134 -218 106 -218 c 128,-1,5
 78 -218 78 -218 78 -195 c 2,6,-1
 78 705 l 2,7,0
 78 728 78 728 106 728 c 128,-1,1
EndSplineSet
Validated: 16385
EndChar

StartChar: braceright
Encoding: 125 125 84
Width: 286
Flags: HW
HStem: -218 30.5<20.0323 74.3922> 707 20G<36 110.5>
VStem: 99 74<23 212.617 294.922 486.5> 113 68<-160 23 486.5 666.944>
LayerCount: 2
Fore
SplineSet
181 -84 m 0,0,1
 181 -212 181 -212 37 -218 c 0,2,3
 17.4286 -218 17.4286 -218 20 -200 c 0,4,5
 21 -189 21 -189 26.5 -187.5 c 128,-1,6
 32 -186 32 -186 48 -182.5 c 128,-1,7
 64 -179 64 -179 78.5 -170 c 128,-1,8
 93 -161 93 -161 100.5 -148 c 0,9,10
 113 -126.333 113 -126.333 113 -87 c 1,11,12
 99 133 l 1,13,14
 99 233.489 99 233.489 186 252 c 1,15,-1
 186 256 l 1,16,17
 99 274.125 99 274.125 99 375 c 1,18,-1
 113 598 l 1,19,20
 113 657.806 113 657.806 76.5 679 c 0,21,22
 61 688 61 688 44 691.5 c 0,23,24
 20 696.441 20 696.441 20 711 c 1,25,26
 21 725 21 725 26.5 726 c 128,-1,27
 32 727 32 727 40 727 c 0,28,29
 181 721.125 181 721.125 181 588 c 0,30,31
 181 563 181 563 179.5 533.5 c 2,32,-1
 176.5 473.5 l 2,33,34
 173 402.333 173 402.333 173 374.167 c 128,-1,35
 173 346 173 346 174.5 332 c 128,-1,36
 176 318 176 318 184.5 306 c 0,37,38
 204.186 278.208 204.186 278.208 258 273 c 1,39,40
 269 270.8 269 270.8 269 254 c 256,41,42
 269 237.2 269 237.2 258 235 c 1,43,44
 180.013 227.453 180.013 227.453 174.5 176 c 0,45,46
 173 162 173 162 173 143 c 128,-1,47
 173 124 173 124 174 94.5 c 128,-1,48
 175 65 175 65 176.5 34.5 c 128,-1,49
 178 4 178 4 179.5 -26.5 c 128,-1,50
 181 -57 181 -57 181 -84 c 0,0,1
EndSplineSet
Validated: 540673
EndChar

StartChar: degree
Encoding: 176 176 85
Width: 405
Flags: HW
HStem: 328 31<152.458 252.612> 602 31<152.414 251.99>
VStem: 37 78<401.477 554.898> 290 79<407.83 560.218>
LayerCount: 2
Fore
SplineSet
144.5 622.5 m 128,-1,1
 174 633 174 633 207 633 c 128,-1,2
 240 633 240 633 270.5 620.5 c 128,-1,3
 301 608 301 608 323 587.5 c 0,4,5
 369 544.636 369 544.636 369 495.818 c 128,-1,6
 369 447 369 447 353.5 418 c 128,-1,7
 338 389 338 389 313.5 369 c 0,8,9
 263.275 328 263.275 328 214.137 328 c 128,-1,10
 165 328 165 328 134.5 340.5 c 128,-1,11
 104 353 104 353 82.5 373.5 c 0,12,13
 37 416.884 37 416.884 37 465.442 c 128,-1,14
 37 514 37 514 52 543 c 128,-1,15
 67 572 67 572 91 592 c 128,-1,0
 115 612 115 612 144.5 622.5 c 128,-1,1
203 602 m 0,16,17
 115 602 115 602 115 480.5 c 128,-1,18
 115 359 115 359 203 359 c 256,19,20
 290 359 290 359 290 485 c 0,21,22
 290 565.727 290 565.727 243.5 592.5 c 0,23,24
 227 602 227 602 203 602 c 0,16,17
EndSplineSet
Validated: 540673
EndChar

StartChar: sterling
Encoding: 163 163 86
Width: 545
Flags: HW
HStem: 0 71<142 491.192> 0 60<45.25 100.83> 241 39<81.0417 153 239 399.958> 528.5 37.5<271.53 383.448>
VStem: 146 89<280 468.84> 153 86<151.335 241 280 376>
LayerCount: 2
Fore
SplineSet
493 36 m 0,0,1
 493 0 493 0 458 0 c 2,2,-1
 64 0 l 2,3,4
 44 0 44 0 44 27 c 0,5,6
 44 52 44 52 64 60 c 1,7,8
 153 89.6667 153 89.6667 153 241 c 1,9,-1
 100 241 l 2,10,11
 81 241 81 241 81 259 c 256,12,13
 81 277.75 81 277.75 99 280 c 1,14,-1
 153 280 l 1,15,-1
 146 376 l 1,16,17
 146 456.857 146 456.857 198.5 511.5 c 128,-1,18
 250.863 566 250.863 566 334 566 c 0,19,20
 411.909 566 411.909 566 455 526.5 c 0,21,22
 488.284 495.989 488.284 495.989 481.5 448.5 c 0,23,24
 476.108 410.757 476.108 410.757 454.554 397.378 c 128,-1,25
 433 384 433 384 412.5 384 c 128,-1,26
 392 384 392 384 380 395 c 128,-1,27
 368 406 368 406 368 409 c 128,-1,28
 368 412 368 412 373 416 c 128,-1,29
 378 420 378 420 384.5 427 c 0,30,31
 401 444.769 401 444.769 401 470.885 c 128,-1,32
 401 497 401 497 380.5 512.5 c 128,-1,33
 360 528 360 528 339.5 528.5 c 128,-1,34
 319 529 319 529 302.5 525 c 128,-1,35
 286 521 286 521 271 509.5 c 0,36,37
 235 481.9 235 481.9 235 420 c 1,38,-1
 239 280 l 1,39,-1
 382 280 l 1,40,41
 400 277.75 400 277.75 400 259 c 256,42,43
 400 241 400 241 381 241 c 2,44,-1
 239 241 l 1,45,46
 239 133.646 239 133.646 142 71 c 1,47,-1
 445 71 l 2,48,49
 465 71 465 71 479 66.5 c 128,-1,50
 493 62 493 62 493 36 c 0,0,1
EndSplineSet
Validated: 540705
EndChar

StartChar: section
Encoding: 167 167 87
Width: 469
Flags: HW
HStem: -153 40.25<173.816 266.103> 610.25 39.75<203.498 296.184>
VStem: 54 55<331.178 531.505> 356 58<-24.3057 188.292>
LayerCount: 2
Fore
SplineSet
327 -40 m 1,0,1
 356 14.375 356 14.375 356 79.1875 c 128,-1,2
 356 144 356 144 328 203 c 128,-1,3
 300 262 300 262 263 321 c 2,4,-1
 190.5 440 l 2,5,6
 155 500 155 500 139 564 c 1,7,8
 109 514.588 109 514.588 109 448.294 c 128,-1,9
 109 382 109 382 135.5 319 c 128,-1,10
 162 256 162 256 198 194.5 c 2,11,-1
 270.5 73.5 l 2,12,13
 307 14 307 14 327 -40 c 1,0,1
198.5 585 m 128,-1,15
 187 564 187 564 192 542.5 c 128,-1,16
 197 521 197 521 206.5 504 c 128,-1,17
 216 487 216 487 229.5 468 c 2,18,19
 293 379 l 1,20,-1
 336.5 311 l 1,21,22
 414 184.837 414 184.837 414 87 c 0,23,24
 414 7.11765 414 7.11765 381 -44.4412 c 0,25,26
 311.517 -153 311.517 -153 187 -153 c 1,27,28
 100.218 -150.448 100.218 -150.448 75 -82 c 1,29,30
 64.6506 -46.8121 64.6506 -46.8121 76.3253 -21.906 c 0,31,32
 96.9533 22.1003 96.9533 22.1003 126.977 25.0502 c 128,-1,33
 157 28 157 28 170 18.5 c 128,-1,34
 183 9 183 9 185 4 c 0,35,36
 185 2 185 2 180 -2.5 c 128,-1,37
 175 -7 175 -7 169.5 -14.5 c 0,38,39
 131.311 -66.5758 131.311 -66.5758 184 -102.5 c 0,40,41
 206 -117.5 206 -117.5 234.5 -112.75 c 128,-1,42
 263 -108 263 -108 274 -83 c 128,-1,43
 285 -58 285 -58 274.5 -27 c 128,-1,44
 264 4 264 4 237 40.5 c 128,-1,45
 210 77 210 77 181.5 120 c 2,46,-1
 131.5 198 l 1,47,48
 54 324.163 54 324.163 54 404.081 c 128,-1,49
 54 484 54 484 74 527.5 c 128,-1,50
 94 571 94 571 126 598 c 0,51,52
 187.63 650 187.63 650 283 650 c 1,53,54
 369.782 647.448 369.782 647.448 395 579 c 1,55,56
 405.349 543.812 405.349 543.812 393.675 518.906 c 0,57,58
 373.047 474.9 373.047 474.9 343.023 471.95 c 128,-1,59
 313 469 313 469 300 478.5 c 128,-1,60
 287 488 287 488 285 493 c 0,61,62
 285 495 285 495 290 499.5 c 128,-1,63
 295 504 295 504 300.5 511.5 c 0,64,65
 338.689 563.576 338.689 563.576 286 599.5 c 0,66,67
 264 614.5 264 614.5 237 610.25 c 128,-1,14
 210 606 210 606 198.5 585 c 128,-1,15
EndSplineSet
Validated: 540705
EndChar

StartChar: bullet
Encoding: 8226 8226 88
Width: 427
Flags: HW
HStem: 153 243<141.653 285.362>
VStem: 90 248<203.688 343.91>
LayerCount: 2
Fore
SplineSet
262 162 m 128,-1,1
 239 153 239 153 199.5 153 c 128,-1,2
 160 153 160 153 125 186.5 c 128,-1,3
 90 220 90 220 90 260.5 c 128,-1,4
 90 301 90 301 99.5 322.5 c 128,-1,5
 109 344 109 344 125.5 360.5 c 0,6,7
 161 396 161 396 200.5 396 c 128,-1,8
 240 396 240 396 262.5 386.5 c 128,-1,9
 285 377 285 377 302 360.5 c 0,10,11
 338 325.559 338 325.559 338 286.779 c 128,-1,12
 338 248 338 248 328.5 225.5 c 128,-1,13
 319 203 319 203 302 187 c 128,-1,0
 285 171 285 171 262 162 c 128,-1,1
EndSplineSet
Validated: 540673
EndChar

StartChar: quoteright
Encoding: 8217 8217 89
Width: 239
Flags: HW
HStem: 461 267
VStem: 133 76<540.349 619.819>
LayerCount: 2
Fore
SplineSet
69.5 650.5 m 128,-1,1
 58 661 58 661 58 679 c 128,-1,2
 58 697 58 697 72.5 712.5 c 128,-1,3
 87 728 87 728 108.5 728 c 128,-1,4
 130 728 130 728 148.5 717.5 c 128,-1,5
 167 707 167 707 180.5 689.5 c 0,6,7
 209 652.556 209 652.556 209 615.278 c 128,-1,8
 209 578 209 578 195.5 553.5 c 128,-1,9
 182 529 182 529 161 511 c 0,10,11
 121.748 477.355 121.748 477.355 61 461 c 1,12,13
 46.009 455.378 46.009 455.378 41.5045 466.189 c 0,14,15
 33.0811 486.405 33.0811 486.405 48 492 c 0,16,17
 133 524.381 133 524.381 133 581 c 0,18,19
 133 605.931 133 605.931 107 622.966 c 128,-1,0
 81 640 81 640 69.5 650.5 c 128,-1,1
EndSplineSet
Validated: 540673
EndChar

StartChar: divide
Encoding: 247 247 90
Width: 600
Flags: HW
HStem: 9 125<229.565 319.92> 237 54<52.2632 545.737> 381 125<229.565 319.92>
VStem: 211 128<26.5338 115.435 398.534 487.435>
LayerCount: 2
Fore
SplineSet
546 264 m 256,0,1
 546 237 546 237 524 237 c 2,2,-1
 74 237 l 2,3,4
 52 237 52 237 52 264 c 256,5,6
 52 291 52 291 74 291 c 2,7,-1
 524 291 l 2,8,9
 546 291 546 291 546 264 c 256,0,1
320.5 398 m 128,-1,11
 302 381 302 381 274.5 381 c 128,-1,12
 247 381 247 381 229 398 c 128,-1,13
 211 415 211 415 211 442.5 c 128,-1,14
 211 470 211 470 229 488 c 128,-1,15
 247 506 247 506 274.5 506 c 128,-1,16
 302 506 302 506 320.5 488 c 128,-1,17
 339 470 339 470 339 442.5 c 128,-1,10
 339 415 339 415 320.5 398 c 128,-1,11
320.5 26 m 128,-1,19
 302 9 302 9 274.5 9 c 128,-1,20
 247 9 247 9 229 26 c 128,-1,21
 211 43 211 43 211 70.5 c 128,-1,22
 211 98 211 98 229 116 c 128,-1,23
 247 134 247 134 274.5 134 c 128,-1,24
 302 134 302 134 320.5 116 c 128,-1,25
 339 98 339 98 339 70.5 c 128,-1,18
 339 43 339 43 320.5 26 c 128,-1,19
EndSplineSet
Validated: 16385
EndChar

StartChar: quoteleft
Encoding: 8216 8216 91
Width: 226
Flags: HW
HStem: 459 267
VStem: 38 76<567.181 646.651>
LayerCount: 2
Fore
SplineSet
177.5 536.5 m 128,-1,1
 189 526 189 526 189 508 c 128,-1,2
 189 490 189 490 174.5 474.5 c 128,-1,3
 160 459 160 459 138.5 459 c 128,-1,4
 117 459 117 459 98.5 469.5 c 128,-1,5
 80 480 80 480 66.5 497.5 c 0,6,7
 38 534.444 38 534.444 38 571.722 c 128,-1,8
 38 609 38 609 51.5 633.5 c 128,-1,9
 65 658 65 658 86 676 c 0,10,11
 121 706 121 706 186 726 c 1,12,13
 200.707 732.303 200.707 732.303 205.354 721.151 c 0,14,15
 213.636 701.273 213.636 701.273 199 695 c 0,16,17
 114 662.619 114 662.619 114 606 c 0,18,19
 114 581.069 114 581.069 140 564.034 c 128,-1,0
 166 547 166 547 177.5 536.5 c 128,-1,1
EndSplineSet
Validated: 540673
EndChar

StartChar: quotedblright
Encoding: 8221 8221 92
Width: 438
Flags: HW
HStem: 467 267
VStem: 133 76<546.349 625.819> 333 76<546.349 625.819>
LayerCount: 2
Fore
SplineSet
69.5 656.5 m 128,-1,1
 58 667 58 667 58 685 c 128,-1,2
 58 703 58 703 72.5 718.5 c 128,-1,3
 87 734 87 734 108.5 734 c 128,-1,4
 130 734 130 734 148.5 723.5 c 128,-1,5
 167 713 167 713 180.5 695.5 c 0,6,7
 209 658.556 209 658.556 209 621.278 c 128,-1,8
 209 584 209 584 195.5 559.5 c 128,-1,9
 182 535 182 535 161 517 c 0,10,11
 121.748 483.355 121.748 483.355 61 467 c 1,12,13
 46.009 461.378 46.009 461.378 41.5045 472.189 c 0,14,15
 33.0811 492.405 33.0811 492.405 48 498 c 0,16,17
 133 530.381 133 530.381 133 587 c 0,18,19
 133 611.931 133 611.931 107 628.966 c 128,-1,0
 81 646 81 646 69.5 656.5 c 128,-1,1
269.5 656.5 m 128,-1,21
 258 667 258 667 258 685 c 128,-1,22
 258 703 258 703 272.5 718.5 c 128,-1,23
 287 734 287 734 308.5 734 c 128,-1,24
 330 734 330 734 348.5 723.5 c 128,-1,25
 367 713 367 713 380.5 695.5 c 0,26,27
 409 658.556 409 658.556 409 621.278 c 128,-1,28
 409 584 409 584 395.5 559.5 c 128,-1,29
 382 535 382 535 361 517 c 0,30,31
 321.748 483.355 321.748 483.355 261 467 c 1,32,33
 246.009 461.378 246.009 461.378 241.505 472.189 c 0,34,35
 233.081 492.405 233.081 492.405 248 498 c 0,36,37
 333 530.381 333 530.381 333 587 c 0,38,39
 333 611.931 333 611.931 307 628.966 c 128,-1,20
 281 646 281 646 269.5 656.5 c 128,-1,21
EndSplineSet
Validated: 540673
EndChar

StartChar: quotedblleft
Encoding: 8220 8220 93
Width: 426
Flags: HW
HStem: 460 267
VStem: 38 76<568.181 647.651> 238 76<568.181 647.651>
LayerCount: 2
Fore
SplineSet
377.5 537.5 m 128,-1,1
 389 527 389 527 389 509 c 128,-1,2
 389 491 389 491 374.5 475.5 c 128,-1,3
 360 460 360 460 338.5 460 c 128,-1,4
 317 460 317 460 298.5 470.5 c 128,-1,5
 280 481 280 481 266.5 498.5 c 0,6,7
 238 535.444 238 535.444 238 572.722 c 128,-1,8
 238 610 238 610 251.5 634.5 c 128,-1,9
 265 659 265 659 286 677 c 0,10,11
 321 707 321 707 386 727 c 1,12,13
 400.707 733.303 400.707 733.303 405.354 722.151 c 0,14,15
 413.636 702.273 413.636 702.273 399 696 c 0,16,17
 314 663.619 314 663.619 314 607 c 0,18,19
 314 582.069 314 582.069 340 565.034 c 128,-1,0
 366 548 366 548 377.5 537.5 c 128,-1,1
177.5 537.5 m 128,-1,21
 189 527 189 527 189 509 c 128,-1,22
 189 491 189 491 174.5 475.5 c 128,-1,23
 160 460 160 460 138.5 460 c 128,-1,24
 117 460 117 460 98.5 470.5 c 128,-1,25
 80 481 80 481 66.5 498.5 c 0,26,27
 38 535.444 38 535.444 38 572.722 c 128,-1,28
 38 610 38 610 51.5 634.5 c 128,-1,29
 65 659 65 659 86 677 c 0,30,31
 121 707 121 707 186 727 c 1,32,33
 200.707 733.303 200.707 733.303 205.354 722.151 c 0,34,35
 213.636 702.273 213.636 702.273 199 696 c 0,36,37
 114 663.619 114 663.619 114 607 c 0,38,39
 114 582.069 114 582.069 140 565.034 c 128,-1,20
 166 548 166 548 177.5 537.5 c 128,-1,21
EndSplineSet
Validated: 540673
EndChar

StartChar: guillemotright
Encoding: 187 187 94
Width: 473
Flags: W
LayerCount: 2
Fore
SplineSet
57.5 391 m 0,0,1
 65 397 65 397 70 395 c 128,-1,2
 75 393 75 393 91.5 378.5 c 2,3,-1
 221 257 l 2,4,5
 234 246 234 246 234 235 c 256,6,7
 234 224 234 224 207 201 c 128,-1,8
 180 178 180 178 149 146.5 c 2,9,-1
 87 83 l 2,10,11
 70.5 66.5 70.5 66.5 60.75 76.25 c 128,-1,12
 51 86 51 86 52.5 96.5 c 128,-1,13
 54 107 54 107 80.5 140.5 c 128,-1,14
 107 174 107 174 149 234 c 1,15,-1
 108 282 l 1,16,17
 37.5758 375.061 37.5758 375.061 57.5 391 c 0,0,1
257.5 391 m 0,18,19
 265 397 265 397 270 395 c 128,-1,20
 275 393 275 393 291.5 378.5 c 2,21,-1
 421 257 l 2,22,23
 434 246 434 246 434 235 c 256,24,25
 434 224 434 224 407 201 c 128,-1,26
 380 178 380 178 349 146.5 c 2,27,-1
 287 83 l 2,28,29
 270.5 66.5 270.5 66.5 260.75 76.25 c 128,-1,30
 251 86 251 86 252.5 96.5 c 128,-1,31
 254 107 254 107 280.5 140.5 c 128,-1,32
 307 174 307 174 349 234 c 1,33,-1
 308 282 l 1,34,35
 237.576 375.061 237.576 375.061 257.5 391 c 0,18,19
EndSplineSet
Validated: 524321
EndChar

StartChar: guillemotleft
Encoding: 171 171 95
Width: 474
Flags: HW
HStem: 76.5 317.919
LayerCount: 2
Fore
SplineSet
416.5 391 m 128,-1,1
 424 385 424 385 422 375.5 c 0,2,3
 416.312 348.484 416.312 348.484 366 282 c 1,4,-1
 325 234 l 1,5,6
 367 174 367 174 393.5 140.5 c 128,-1,7
 420 107 420 107 421.5 93 c 128,-1,8
 423 79 423 79 409.5 76.5 c 128,-1,9
 396 74 396 74 376 94.5 c 2,10,-1
 325 146.5 l 2,11,12
 294 178 294 178 267 201 c 128,-1,13
 240 224 240 224 240 235 c 256,14,15
 240 246 240 246 256 260.5 c 0,16,17
 396.093 391.837 396.093 391.837 402.547 394.419 c 128,-1,0
 409 397 409 397 416.5 391 c 128,-1,1
216.5 391 m 128,-1,19
 224 385 224 385 222 375.5 c 0,20,21
 216.312 348.484 216.312 348.484 166 282 c 1,22,-1
 125 234 l 1,23,24
 167 174 167 174 193.5 140.5 c 128,-1,25
 220 107 220 107 221.5 93 c 128,-1,26
 223 79 223 79 209.5 76.5 c 128,-1,27
 196 74 196 74 176 94.5 c 2,28,-1
 125 146.5 l 2,29,30
 94 178 94 178 67 201 c 128,-1,31
 40 224 40 224 40 235 c 256,32,33
 40 246 40 246 56 260.5 c 0,34,35
 196.093 391.837 196.093 391.837 202.547 394.419 c 128,-1,18
 209 397 209 397 216.5 391 c 128,-1,19
EndSplineSet
Validated: 540705
EndChar

StartChar: copyright
Encoding: 169 169 96
Width: 828
Flags: HW
HStem: -50 42<299.057 528.099> 111 37<374.12 498.144> 482.5 32.5<367.697 477.93> 642 42<299.711 527.867>
VStem: 47 43<198.677 435.41> 230 77<219.55 411.759> 460 99.5<372.477 424> 738 43<198.535 435.552>
LayerCount: 2
Fore
SplineSet
47 317 m 256,0,1
 47 467 47 467 156 576 c 0,2,3
 264 684 264 684 414 684 c 256,4,5
 562.42 684 562.42 684 671.5 576 c 0,6,7
 781 467.584 781 467.584 781 317 c 256,8,9
 781 166.416 781 166.416 671.5 58 c 0,10,11
 562.42 -50 562.42 -50 414 -50 c 256,12,13
 264 -50 264 -50 156 58 c 0,14,15
 47 167 47 167 47 317 c 256,0,1
90 317 m 256,16,17
 90 182.568 90 182.568 184 87.5 c 0,18,19
 278.427 -8 278.427 -8 414 -8 c 256,20,21
 549.573 -8 549.573 -8 644 87.5 c 0,22,23
 738 182.568 738 182.568 738 317 c 256,24,25
 738 452 738 452 644 546 c 0,26,27
 548 642 548 642 414 642 c 256,28,29
 280 642 280 642 184 546 c 0,30,31
 90 452 90 452 90 317 c 256,16,17
537.5 479 m 0,32,33
 555 464 555 464 559 444 c 128,-1,34
 563 424 563 424 559.5 409.5 c 128,-1,35
 556 395 556 395 547.5 383.5 c 0,36,37
 528.668 358.021 528.668 358.021 502.834 360.01 c 128,-1,38
 477 362 477 362 468.5 371.5 c 128,-1,39
 460 381 460 381 460 384.5 c 128,-1,40
 460 388 460 388 464.5 392 c 128,-1,41
 469 396 469 396 474.5 401.5 c 0,42,43
 513.149 440.149 513.149 440.149 476 468.5 c 0,44,45
 457 483 457 483 414 482.5 c 128,-1,46
 371 482 371 482 339 439 c 128,-1,47
 307 396 307 396 307 337.5 c 128,-1,48
 307 279 307 279 316.5 249 c 128,-1,49
 326 219 326 219 343 196.5 c 0,50,51
 379.644 148 379.644 148 429.822 148 c 0,52,53
 509.759 148 509.759 148 545 221 c 0,54,55
 555 241 555 241 572 232 c 256,56,57
 589 223 589 223 582 208 c 0,58,59
 534.415 111 534.415 111 416 111 c 0,60,61
 339 111 339 111 285.5 164.5 c 0,62,63
 230 220 230 220 230 311 c 128,-1,64
 230 401.885 230 401.885 285 459 c 0,65,66
 338.926 515 338.926 515 426 515 c 0,67,68
 495.5 515 495.5 515 537.5 479 c 0,32,33
EndSplineSet
Validated: 540705
EndChar

StartChar: mu
Encoding: 181 181 97
Width: 593
Flags: HW
HStem: -11 54<213.519 337.369> -11 39<503.348 557.604> 437 20G<112.75 158.25 423.75 469.25>
VStem: 90 91<73.3332 454.461> 90 58<-155.986 44> 401 91<83.4113 454.461>
LayerCount: 2
Fore
SplineSet
244 -11 m 0,0,1
 170.167 -11 170.167 -11 150 44 c 1,2,-1
 148 44 l 1,3,-1
 148 -69 l 2,4,5
 148 -152.333 148 -152.333 181.5 -163.5 c 0,6,7
 192 -167 192 -167 208 -167 c 128,-1,8
 224 -167 224 -167 238.5 -158 c 128,-1,9
 253 -149 253 -149 257.5 -138.5 c 128,-1,10
 262 -128 262 -128 261 -118.5 c 128,-1,11
 260 -109 260 -109 257 -102 c 128,-1,12
 254 -95 254 -95 251.5 -90.5 c 128,-1,13
 249 -86 249 -86 249 -84 c 0,14,15
 251 -80 251 -80 264 -74.5 c 128,-1,16
 277 -69 277 -69 293 -75.5 c 128,-1,17
 309 -82 309 -82 317.5 -93.5 c 128,-1,18
 326 -105 326 -105 328.5 -119.5 c 0,19,20
 338.081 -175.069 338.081 -175.069 288 -201.5 c 0,21,22
 233.926 -230.039 233.926 -230.039 189.963 -216.02 c 128,-1,23
 146 -202 146 -202 129.5 -186.5 c 128,-1,24
 113 -171 113 -171 104.5 -150.5 c 0,25,26
 90 -115.529 90 -115.529 90 -56 c 2,27,-1
 90 431 l 2,28,29
 90 457 90 457 135.5 457 c 128,-1,30
 181 457 181 457 181 431 c 2,31,-1
 181 138 l 2,32,33
 181 91.4815 181 91.4815 203 72.7407 c 0,34,35
 237.913 43 237.913 43 270.457 43 c 128,-1,36
 303 43 303 43 324 50.5 c 128,-1,37
 345 58 345 58 361 69 c 0,38,39
 391.08 89.68 391.08 89.68 401 112 c 1,40,-1
 401 431 l 2,41,42
 401 457 401 457 446.5 457 c 128,-1,43
 492 457 492 457 492 431 c 2,44,-1
 492 91 l 2,45,46
 492 28 492 28 543 28 c 0,47,48
 558 28 558 28 558 12 c 0,49,50
 558 -11 558 -11 513 -11 c 128,-1,51
 468 -11 468 -11 439 9.5 c 128,-1,52
 410 30 410 30 402 65 c 1,53,-1
 399 65 l 1,54,55
 344.827 7.21582 344.827 7.21582 309.914 -1.89209 c 128,-1,56
 275 -11 275 -11 244 -11 c 0,0,1
EndSplineSet
Validated: 540705
EndChar

StartChar: logicalnot
Encoding: 172 172 98
Width: 632
Flags: HW
HStem: 237 54<68.7749 502.289>
VStem: 503 59<78.4548 236.895>
LayerCount: 2
Fore
SplineSet
90 237 m 2,0,1
 68 237 68 237 68 262 c 256,2,3
 68 272 68 272 74 281.5 c 128,-1,4
 80 291 80 291 90 291 c 2,5,-1
 500 291 l 1,6,7
 537 292 537 292 549.5 279 c 128,-1,8
 562 266 562 266 562 223 c 2,9,-1
 562 101 l 2,10,11
 562 78 562 78 532.5 78 c 128,-1,12
 503 78 503 78 503 101 c 2,13,-1
 503 225 l 2,14,15
 503 237 503 237 493 237 c 2,16,-1
 90 237 l 2,0,1
EndSplineSet
Validated: 16417
EndChar

StartChar: Euro
Encoding: 8364 8364 99
Width: 617
Flags: HW
HStem: -12 42<309.403 455.587> 202 39<46.5859 106 212 362.414> 322 39<46.5859 108 211 408.414>
VStem: 105 100<241 322>
LayerCount: 2
Fore
SplineSet
46 334 m 0,0,1
 46 361 46 361 70 361 c 2,2,-1
 115 361 l 1,3,4
 151.881 505.451 151.881 505.451 280.5 551.5 c 0,5,6
 321 566 321 566 351.5 566 c 128,-1,7
 382 566 382 566 409 562.5 c 128,-1,8
 436 559 436 559 464 548.5 c 0,9,10
 531.448 523.207 531.448 523.207 547 461 c 0,11,12
 555.444 425.111 555.444 425.111 542.222 402.556 c 0,13,14
 518.448 362 518.448 362 488.724 362 c 128,-1,15
 459 362 459 362 447 373 c 128,-1,16
 435 384 435 384 435 387 c 128,-1,17
 435 390 435 390 440 394 c 128,-1,18
 445 398 445 398 451.5 405 c 0,19,20
 468 422.769 468 422.769 468 445.885 c 128,-1,21
 468 469 468 469 457.5 486 c 128,-1,22
 447 503 447 503 431.5 513.5 c 0,23,24
 400.74 534.338 400.74 534.338 363.87 532.169 c 128,-1,25
 327 530 327 530 301.5 515.5 c 128,-1,26
 276 501 276 501 258 477.5 c 0,27,28
 224.146 433.301 224.146 433.301 211 361 c 1,29,-1
 401 361 l 2,30,31
 409 361 409 361 409 349 c 0,32,33
 409 322 409 322 385 322 c 2,34,-1
 206 322 l 1,35,36
 203.5 294.5 203.5 294.5 204.25 281.25 c 128,-1,37
 205 268 205 268 205 259 c 128,-1,38
 205 250 205 250 206 241 c 1,39,-1
 355 241 l 2,40,41
 363 241 363 241 363 229 c 0,42,43
 363 202 363 202 339 202 c 2,44,-1
 212 202 l 1,45,46
 237.183 82.3792 237.183 82.3792 322 43 c 0,47,48
 350 30 350 30 380.5 30 c 128,-1,49
 411 30 411 30 434.5 39.5 c 128,-1,50
 458 49 458 49 476.5 65.5 c 0,51,52
 508.792 94.3011 508.792 94.3011 532 150 c 1,53,54
 539 164 539 164 551.5 156 c 0,55,56
 573.17 142.131 573.17 142.131 566 126 c 0,57,58
 507.12 -12 507.12 -12 354 -12 c 0,59,60
 218.975 -12 218.975 -12 145.5 111.5 c 0,61,62
 122 151 122 151 112 202 c 1,63,-1
 54 202 l 2,64,65
 46 202 46 202 46 214 c 0,66,67
 46 241 46 241 70 241 c 2,68,-1
 106 241 l 1,69,70
 105 249 105 249 105 257 c 2,71,-1
 105 274 l 2,72,73
 105 298 105 298 108 322 c 1,74,-1
 54 322 l 2,75,76
 46 322 46 322 46 334 c 0,0,1
EndSplineSet
Validated: 540705
EndChar

StartChar: zero
Encoding: 48 48 100
Width: 585
Flags: HW
HStem: -20 37<228.562 357.713> 493 37<228.165 357.974>
VStem: 55 96<131.002 382.094> 435 96<134.453 377.397>
LayerCount: 2
Fore
SplineSet
531 256 m 256,0,1
 531 143.783 531 143.783 470 65.5 c 0,2,3
 403.377 -20 403.377 -20 293 -20 c 0,4,5
 176.649 -20 176.649 -20 113 64.5 c 0,6,7
 55 141.5 55 141.5 55 256 c 0,8,9
 55 371 55 371 113 447 c 0,10,11
 176.342 530 176.342 530 293 530 c 0,12,13
 403.684 530 403.684 530 470 446 c 0,14,15
 531 368.733 531 368.733 531 256 c 256,0,1
435 256 m 256,16,17
 435 373 435 373 398 433 c 128,-1,18
 361 493 361 493 293 493 c 128,-1,19
 225 493 225 493 188 433 c 128,-1,20
 151 373 151 373 151 256 c 256,21,22
 151 139 151 139 188 78 c 128,-1,23
 225 17 225 17 293 17 c 128,-1,24
 361 17 361 17 398 78 c 128,-1,25
 435 139 435 139 435 256 c 256,16,17
EndSplineSet
Validated: 540673
EndChar

StartChar: one
Encoding: 49 49 101
Width: 428
Flags: HW
HStem: -3 43<51.5348 175.512 295.468 421.465> 441 46<56.6178 184.741>
VStem: 193 87<56.9541 433.431>
LayerCount: 2
Fore
SplineSet
69 -3 m 0,0,1
 51 -3 51 -3 51.5 18 c 128,-1,2
 52 39 52 39 59 40 c 128,-1,3
 66 41 66 41 87.5 41 c 128,-1,4
 109 41 109 41 131.5 43 c 128,-1,5
 154 45 154 45 167.5 54 c 0,6,7
 193 71 193 71 193 133 c 2,8,-1
 193 341 l 1,9,10
 194.849 420.528 194.849 420.528 176.425 430.764 c 128,-1,11
 158 441 158 441 134.5 440.5 c 128,-1,12
 111 440 111 440 74 441 c 0,13,14
 56 441 56 441 56.5 462 c 128,-1,15
 57 483 57 483 64 485 c 128,-1,16
 71 487 71 487 89 487 c 128,-1,17
 107 487 107 487 135 493 c 128,-1,18
 163 499 163 499 187 507 c 0,19,20
 232 522 232 522 247 529 c 0,21,22
 280 544.4 280 544.4 280 512 c 2,23,-1
 280 133 l 2,24,25
 280 71 280 71 299.5 58 c 0,26,27
 325 41 325 41 366 41 c 128,-1,28
 407 41 407 41 414 40 c 128,-1,29
 421 39 421 39 421.5 18 c 128,-1,30
 422 -3 422 -3 404 -3 c 0,31,32
 386 -2 386 -2 362.5 -1.5 c 2,33,-1
 315 -0.5 l 2,34,35
 291 0 291 0 270 0 c 0,36,37
 236 0 236 0 208.5 0 c 128,-1,38
 181 0 181 0 157.5 -0.5 c 128,-1,39
 134 -1 134 -1 110.5 -1.5 c 128,-1,40
 87 -2 87 -2 69 -3 c 0,0,1
EndSplineSet
Validated: 540705
EndChar

StartChar: two
Encoding: 50 50 102
Width: 491
Flags: HW
HStem: 0 71<135 449.192> 494 36<168.797 292.668>
VStem: 60 81<376.716 469.125> 328 96<301.019 459.892>
LayerCount: 2
Fore
SplineSet
81 0 m 2,0,1
 46 0 46 0 46 36 c 1,2,3
 49.1046 71.7029 49.1046 71.7029 89.0523 97.8515 c 2,4,-1
 170.5 153 l 1,5,6
 328 263.06 328 263.06 328 393 c 0,7,8
 328 441 328 441 302.5 467.5 c 128,-1,9
 277 494 277 494 235 494 c 128,-1,10
 193 494 193 494 167 475 c 128,-1,11
 141 456 141 456 141 432 c 128,-1,12
 141 408 141 408 146 398.5 c 128,-1,13
 151 389 151 389 157.5 382 c 128,-1,14
 164 375 164 375 169 371 c 128,-1,15
 174 367 174 367 174 364 c 128,-1,16
 174 361 174 361 162 350 c 128,-1,17
 150 339 150 339 123 339 c 128,-1,18
 96 339 96 339 78 359 c 128,-1,19
 60 379 60 379 60 409.5 c 128,-1,20
 60 440 60 440 77 463 c 128,-1,21
 94 486 94 486 120 501 c 0,22,23
 170.267 530 170.267 530 221.633 530 c 128,-1,24
 273 530 273 530 306 522 c 128,-1,25
 339 514 339 514 365 496 c 0,26,27
 424 455.154 424 455.154 424 388.577 c 128,-1,28
 424 322 424 322 392.5 278 c 128,-1,29
 361 234 361 234 316 198.5 c 128,-1,30
 271 163 271 163 221 133.5 c 128,-1,31
 171 104 171 104 135 76 c 1,32,-1
 135 71 l 1,33,-1
 403 71 l 2,34,35
 423 71 423 71 437 66.5 c 128,-1,36
 451 62 451 62 451 36 c 0,37,38
 451 0 451 0 416 0 c 2,39,-1
 81 0 l 2,0,1
EndSplineSet
Validated: 540673
EndChar

StartChar: three
Encoding: 51 51 103
Width: 487
Flags: HW
HStem: -20 37<157.358 290.147> 247 43<179.033 281.273> 495 35<167.899 287.552>
VStem: 51 81<37.4692 126.644> 63 81<384.313 476.203> 317 91<332.323 470.178> 335 97<57.4371 210.804>
LayerCount: 2
Fore
SplineSet
335 136 m 0,0,1
 335 241.222 335 241.222 231 247 c 1,2,-1
 194 247 l 2,3,4
 179 247 179 247 179 267 c 256,5,6
 179 288.125 179 288.125 194 290 c 1,7,-1
 231 290 l 1,8,9
 271 294 271 294 294 325.5 c 128,-1,10
 317 357 317 357 317 400 c 0,11,12
 317 495 317 495 228 495 c 0,13,14
 194 495 194 495 169 478.5 c 128,-1,15
 144 462 144 462 144 438 c 128,-1,16
 144 414 144 414 149 404.5 c 128,-1,17
 154 395 154 395 160.5 389 c 128,-1,18
 167 383 167 383 172 379.5 c 128,-1,19
 177 376 177 376 177 373 c 128,-1,20
 177 370 177 370 165 359 c 128,-1,21
 153 348 153 348 125.5 348 c 128,-1,22
 98 348 98 348 80.5 368.5 c 128,-1,23
 63 389 63 389 63 418.5 c 128,-1,24
 63 448 63 448 78 469 c 128,-1,25
 93 490 93 490 117 503.5 c 0,26,27
 164.111 530 164.111 530 213.056 530 c 128,-1,28
 262 530 262 530 294 523.5 c 128,-1,29
 326 517 326 517 351.5 502 c 0,30,31
 408 468.765 408 468.765 408 400 c 0,32,33
 408 361 408 361 380.5 324 c 128,-1,34
 353 287 353 287 294 271 c 1,35,-1
 294 267 l 1,36,37
 384.305 258.79 384.305 258.79 418.5 198 c 0,38,39
 432 174 432 174 432 134 c 128,-1,40
 432 94 432 94 414.5 64 c 128,-1,41
 397 34 397 34 368.5 15.5 c 0,42,43
 313.811 -20 313.811 -20 225 -20 c 0,44,45
 111.279 -20 111.279 -20 67 39.5 c 0,46,47
 51 61 51 61 51 89.5 c 128,-1,48
 51 118 51 118 67.5 140.5 c 128,-1,49
 84 163 84 163 112.5 163 c 128,-1,50
 141 163 141 163 153 152 c 128,-1,51
 165 141 165 141 165 137.5 c 128,-1,52
 165 134 165 134 160 131 c 128,-1,53
 155 128 155 128 148.5 122 c 0,54,55
 132 106.769 132 106.769 132 78.8846 c 128,-1,56
 132 51 132 51 158.5 34 c 128,-1,57
 185 17 185 17 217 17 c 128,-1,58
 249 17 249 17 268.5 24 c 128,-1,59
 288 31 288 31 303 45 c 0,60,61
 335 74.8667 335 74.8667 335 136 c 0,0,1
EndSplineSet
Validated: 540673
EndChar

StartChar: four
Encoding: 52 52 104
Width: 496
Flags: HW
HStem: 160 49<73 286 373 459.255>
VStem: 286 87<-9.95435 160 209 446>
LayerCount: 2
Fore
SplineSet
451.5 206.5 m 128,-1,1
 459 204 459 204 459.5 182 c 128,-1,2
 460 160 460 160 441 160 c 2,3,-1
 373 160 l 1,4,-1
 373 7 l 2,5,6
 373 -12 373 -12 330 -12 c 256,7,8
 290.222 -12 290.222 -12 286 7 c 1,9,-1
 286 160 l 1,10,-1
 47 160 l 2,11,12
 15 160 15 160 15 195 c 0,13,14
 15 208 15 208 22 217 c 2,15,-1
 303 524 l 2,16,17
 313 534 313 534 334 534 c 0,18,19
 371.158 534 371.158 534 373 499 c 1,20,-1
 373 209 l 1,21,-1
 433 209 l 2,22,0
 444 209 444 209 451.5 206.5 c 128,-1,1
286 209 m 1,23,-1
 286 446 l 1,24,-1
 73 209 l 1,25,-1
 286 209 l 1,23,-1
EndSplineSet
Validated: 540673
EndChar

StartChar: five
Encoding: 53 53 105
Width: 485
Flags: HW
HStem: -20 21G<172.5 255.085> 242 96<92.7143 228.5> 449 71<156 410.805>
VStem: 335 96<81.451 244.878>
LayerCount: 2
Fore
SplineSet
135 310 m 1,0,1
 184 338 184 338 228.5 338 c 128,-1,2
 273 338 273 338 306 328 c 128,-1,3
 339 318 339 318 366.5 297 c 0,4,5
 431 247.745 431 247.745 431 163 c 0,6,7
 431 79.8413 431 79.8413 359.5 26.5 c 0,8,9
 297.17 -20 297.17 -20 213 -20 c 0,10,11
 132 -20 132 -20 81 22.5 c 0,12,13
 44.1702 53.1915 44.1702 53.1915 51.5 104.5 c 0,14,15
 56.8919 142.243 56.8919 142.243 78.4459 155.622 c 128,-1,16
 100 169 100 169 120.5 169 c 128,-1,17
 141 169 141 169 153 158 c 128,-1,18
 165 147 165 147 165 143.5 c 128,-1,19
 165 140 165 140 160 136.5 c 128,-1,20
 155 133 155 133 148.5 126 c 0,21,22
 132 108.231 132 108.231 132 89.1154 c 128,-1,23
 132 70 132 70 139.5 57 c 128,-1,24
 147 44 147 44 159 35 c 0,25,26
 209.723 -3.04255 209.723 -3.04255 266.5 28.5 c 0,27,28
 335 66.5556 335 66.5556 335 158 c 256,29,30
 335 247.791 335 247.791 275.5 281 c 0,31,32
 212.56 316.129 212.56 316.129 129 258 c 1,33,34
 109 242 109 242 92.7143 242 c 128,-1,35
 76.4286 242 76.4286 242 77.7143 260 c 128,-1,36
 79 278 79 278 79 282 c 2,37,-1
 110 520 l 1,38,39
 246.75 520 246.75 520 383.5 520 c 0,40,41
 411.571 520 411.571 520 412.786 484.5 c 128,-1,42
 414 449 414 449 378 449 c 2,43,-1
 156 449 l 1,44,-1
 135 310 l 1,0,1
EndSplineSet
Validated: 540705
EndChar

StartChar: six
Encoding: 54 54 106
Width: 509
Flags: HW
HStem: -20 32<209.555 312.495> 284 45<191.088 325.127> 494 38<328.867 394.89>
VStem: 53 96<91.0574 276.121> 370 96<80.4079 236.679>
LayerCount: 2
Fore
SplineSet
159 289 m 1,0,1
 219.87 329 219.87 329 273.935 329 c 128,-1,2
 328 329 328 329 360 316.5 c 128,-1,3
 392 304 392 304 415.5 282 c 0,4,5
 466 234.723 466 234.723 466 177.862 c 128,-1,6
 466 121 466 121 448.5 87.5 c 128,-1,7
 431 54 431 54 402.5 30 c 0,8,9
 343.125 -20 343.125 -20 278.562 -20 c 128,-1,10
 214 -20 214 -20 175.5 -5 c 128,-1,11
 137 10 137 10 110 38.5 c 0,12,13
 53 98.6667 53 98.6667 53 200 c 0,14,15
 53 322.111 53 322.111 138.5 415 c 128,-1,16
 224.122 508.022 224.122 508.022 360 532 c 1,17,18
 395 536.375 395 536.375 395 515 c 0,19,20
 395 498.909 395 498.909 377 494 c 0,21,22
 195.692 437.925 195.692 437.925 159 289 c 1,0,1
339 51 m 128,-1,24
 370 90 370 90 370 152 c 128,-1,25
 370 214 370 214 339 249 c 128,-1,26
 308 284 308 284 270 284 c 0,27,28
 205.381 284 205.381 284 155 238 c 1,29,30
 149 220 149 220 149 196.5 c 128,-1,31
 149 173 149 173 154.5 140.5 c 128,-1,32
 160 108 160 108 172.5 79.5 c 0,33,34
 202.105 12 202.105 12 255.053 12 c 128,-1,23
 308 12 308 12 339 51 c 128,-1,24
EndSplineSet
Validated: 540705
EndChar

StartChar: seven
Encoding: 55 55 107
Width: 426
Flags: HW
HStem: -20 21G<154.75 166.25> 451 71<105.939 330>
VStem: 40 41.8462<369.615 439.515> 128 109<44.0276 102>
LayerCount: 2
Fore
SplineSet
44 500 m 2,0,1
 44 522 44 522 73 522 c 2,2,-1
 378 522 l 2,3,4
 427.6 522 427.6 522 391.3 461 c 128,-1,5
 355 400 355 400 328.5 338.5 c 128,-1,6
 302 277 302 277 279 216.5 c 2,7,-1
 237 102 l 1,8,9
 200.443 -1.9002 200.443 -1.9002 186.221 -10.9501 c 128,-1,10
 172 -20 172 -20 160.5 -20 c 128,-1,11
 149 -20 149 -20 138.5 -9.5 c 128,-1,12
 128 1 128 1 128 21.5 c 128,-1,13
 128 42 128 42 139 74 c 128,-1,14
 150 106 150 106 167.5 145 c 128,-1,15
 185 184 185 184 207.5 227 c 2,16,-1
 330 451 l 1,17,-1
 155 451 l 2,18,19
 117.143 451 117.143 451 105.571 442 c 0,20,21
 85.6923 426.538 85.6923 426.538 81.8462 399.769 c 128,-1,22
 78 373 78 373 74 369.5 c 128,-1,23
 70 366 70 366 55 366 c 128,-1,24
 40 366 40 366 40 383 c 2,25,-1
 44 500 l 2,0,1
EndSplineSet
Validated: 540705
EndChar

StartChar: eight
Encoding: 56 56 108
Width: 513
Flags: HW
HStem: -20 33<196.199 321.747> 496 34<198.022 318.202>
VStem: 54 90<57.214 190.987> 78 83<355.855 453.981> 359 78<327.651 462.309> 368 90<62.5809 166.291>
LayerCount: 2
Fore
SplineSet
303 287 m 1,0,1
 359 328.481 359 328.481 359 394 c 0,2,3
 359 462 359 462 303.5 487.5 c 0,4,5
 285 496 285 496 249 496 c 128,-1,6
 213 496 213 496 187 469.5 c 128,-1,7
 161 443 161 443 161 413.5 c 128,-1,8
 161 384 161 384 172.5 367.5 c 128,-1,9
 184 351 184 351 203.5 337 c 128,-1,10
 223 323 223 323 249 311 c 2,11,-1
 303 287 l 1,0,1
171 260 m 1,12,13
 78 316.188 78 316.188 78 387 c 0,14,15
 78 447.346 78 447.346 135 489 c 0,16,17
 191.105 530 191.105 530 247.053 530 c 128,-1,18
 303 530 303 530 334.5 519.5 c 128,-1,19
 366 509 366 509 389 490.5 c 0,20,21
 437 451.891 437 451.891 437 385.946 c 128,-1,22
 437 320 437 320 337 269 c 1,23,24
 403 241 403 241 430.5 210 c 128,-1,25
 458 179 458 179 458 140 c 128,-1,26
 458 101 458 101 443 73.5 c 128,-1,27
 428 46 428 46 400.5 25 c 0,28,29
 341.571 -20 341.571 -20 249 -20 c 0,30,31
 112.075 -20 112.075 -20 67.5 67.5 c 0,32,33
 54 94 54 94 54 126 c 0,34,35
 54 209.857 54 209.857 171 260 c 1,12,13
209 244 m 1,36,37
 144 200.667 144 200.667 144 139.333 c 128,-1,38
 144 78 144 78 175 45.5 c 128,-1,39
 206 13 206 13 257.5 13 c 128,-1,40
 309 13 309 13 338.5 41.5 c 128,-1,41
 368 70 368 70 368 103 c 128,-1,42
 368 136 368 136 356.5 153.5 c 128,-1,43
 345 171 345 171 324.5 185.5 c 128,-1,44
 304 200 304 200 274.5 214 c 2,45,-1
 209 244 l 1,36,37
EndSplineSet
Validated: 540673
EndChar

StartChar: nine
Encoding: 57 57 109
Width: 508
Flags: HW
HStem: -22 38<113.11 179.133> 181 45<182.873 316.912> 498 32<195.421 298.604>
VStem: 42 96<273.321 429.592> 359 96<233.879 418.943>
LayerCount: 2
Fore
SplineSet
349 221 m 1,0,1
 288.13 181 288.13 181 234.065 181 c 128,-1,2
 180 181 180 181 148 193.5 c 128,-1,3
 116 206 116 206 92.5 228 c 0,4,5
 42 275.277 42 275.277 42 332.138 c 128,-1,6
 42 389 42 389 59.5 422.5 c 128,-1,7
 77 456 77 456 105.5 480 c 0,8,9
 164.875 530 164.875 530 229.438 530 c 128,-1,10
 294 530 294 530 332.5 515 c 128,-1,11
 371 500 371 500 398 471.5 c 0,12,13
 455 411.333 455 411.333 455 310 c 0,14,15
 455 187.889 455 187.889 369.5 95 c 128,-1,16
 283.878 1.97846 283.878 1.97846 148 -22 c 1,17,18
 113 -26.375 113 -26.375 113 -5 c 0,19,20
 113 11.0909 113 11.0909 131 16 c 0,21,22
 312.308 72.0747 312.308 72.0747 349 221 c 1,0,1
169 459 m 128,-1,24
 138 420 138 420 138 358 c 128,-1,25
 138 296 138 296 169 261 c 128,-1,26
 200 226 200 226 238 226 c 0,27,28
 302.619 226 302.619 226 353 272 c 1,29,30
 359 290 359 290 359 313.5 c 128,-1,31
 359 337 359 337 353.5 369.5 c 128,-1,32
 348 402 348 402 335.5 430.5 c 0,33,34
 305.895 498 305.895 498 252.947 498 c 128,-1,23
 200 498 200 498 169 459 c 128,-1,24
EndSplineSet
Validated: 540705
EndChar

StartChar: ampersand
Encoding: 38 38 110
Width: 875
Flags: HW
HStem: -20 70<271.491 493.184> 417 48<243.579 332.307> 672 36<249.012 363.218>
VStem: 41 106<164.892 340.759> 143 68<498.963 637.442> 384 81<563.653 655.115> 649 45<188.228 371.663>
LayerCount: 2
Fore
SplineSet
324.5 463 m 128,-1,1
 332 461 332 461 332.5 439 c 128,-1,2
 333 417 333 417 314 417 c 2,3,-1
 279 417 l 1,4,5
 215.373 411.546 215.373 411.546 178.5 363.5 c 0,6,7
 147 322.455 147 322.455 147 267.727 c 128,-1,8
 147 213 147 213 164.5 173.5 c 128,-1,9
 182 134 182 134 213 106.5 c 0,10,11
 276.691 50 276.691 50 382 50 c 0,12,13
 492.79 50 492.79 50 570.5 116 c 0,14,15
 649 182.671 649 182.671 649 285 c 0,16,17
 649 378.444 649 378.444 580.5 416.5 c 0,18,19
 558 429 558 429 537.5 429 c 128,-1,20
 517 429 517 429 502 425 c 128,-1,21
 487 421 487 421 474 413 c 0,22,23
 443.175 394.031 443.175 394.031 444.587 371.515 c 0,24,25
 447.217 329.609 447.217 329.609 479 324 c 0,26,27
 508.467 319.467 508.467 319.467 532.5 343.5 c 0,28,29
 540.978 351.978 540.978 351.978 550.989 335.489 c 128,-1,30
 561 319 561 319 557.5 295 c 128,-1,31
 554 271 554 271 534.5 256.5 c 128,-1,32
 515 242 515 242 482.5 242 c 128,-1,33
 450 242 450 242 427 272.5 c 128,-1,34
 404 303 404 303 404 353 c 128,-1,35
 404 403 404 403 424 435.5 c 128,-1,36
 444 468 444 468 475.5 487.5 c 128,-1,37
 507 507 507 507 547.5 516.5 c 128,-1,38
 588 526 588 526 629 531 c 2,39,-1
 708 540.5 l 2,40,41
 782.939 549.374 782.939 549.374 804.469 570.187 c 128,-1,42
 826 591 826 591 825 607 c 0,43,44
 823.016 638.748 823.016 638.748 788 644 c 1,45,46
 758.213 646.291 758.213 646.291 743.606 633.146 c 128,-1,47
 729 620 729 620 726 620.5 c 128,-1,48
 723 621 723 621 714.5 635 c 128,-1,49
 706 649 706 649 709 669.5 c 128,-1,50
 712 690 712 690 723.5 702.5 c 128,-1,51
 735 715 735 715 750.5 721 c 0,52,53
 783.357 733.719 783.357 733.719 813.678 719.859 c 0,54,55
 865.658 696.101 865.658 696.101 863 627 c 0,56,57
 861.042 546.742 861.042 546.742 786 498.5 c 0,58,59
 715.222 453 715.222 453 608 453 c 1,60,61
 694 381.333 694 381.333 694 296.667 c 128,-1,62
 694 212 694 212 667.5 155.5 c 128,-1,63
 641 99 641 99 594.5 59.5 c 0,64,65
 498.5 -22.0486 498.5 -22.0486 351 -20 c 0,66,67
 141.594 -16.4508 141.594 -16.4508 67 127 c 0,68,69
 41 177 41 177 41 229 c 128,-1,70
 41 281 41 281 51.5 313.5 c 128,-1,71
 62 346 62 346 82.5 372.5 c 0,72,73
 125.652 428.282 125.652 428.282 206 442 c 1,74,-1
 206 445 l 1,75,76
 143 492.727 143 492.727 143 560.364 c 128,-1,77
 143 628 143 628 190.5 668 c 128,-1,78
 238 708 238 708 323 708 c 0,79,80
 417.615 708 417.615 708 453 650.5 c 0,81,82
 465 631 465 631 465 602.5 c 128,-1,83
 465 574 465 574 447.5 550 c 128,-1,84
 430 526 430 526 402.5 526 c 128,-1,85
 375 526 375 526 363 537 c 128,-1,86
 351 548 351 548 351 551 c 128,-1,87
 351 554 351 554 356 558 c 128,-1,88
 361 562 361 562 367.5 569 c 0,89,90
 384 586.769 384 586.769 384 612.385 c 128,-1,91
 384 638 384 638 363 655 c 128,-1,92
 342 672 342 672 301.5 672 c 128,-1,93
 261 672 261 672 236 641.5 c 128,-1,94
 211 611 211 611 211 571 c 0,95,96
 211 498 211 498 272 465 c 1,97,-1
 305 465 l 2,98,0
 317 465 317 465 324.5 463 c 128,-1,1
EndSplineSet
Validated: 540705
EndChar

StartChar: caron
Encoding: 711 711 111
Width: 386
Flags: HW
HStem: 524 193.5
LayerCount: 2
Fore
SplineSet
65 685 m 2,0,1
 53.383 703.255 53.383 703.255 65.1915 710.628 c 0,2,3
 85.0039 722.997 85.0039 722.997 102.002 709.999 c 0,4,5
 131.644 687.331 131.644 687.331 192 610 c 1,6,7
 274.718 715.982 274.718 715.982 299 717.5 c 0,8,9
 315.486 718.53 315.486 718.53 320.743 707.265 c 128,-1,10
 326 696 326 696 319 685 c 2,11,-1
 217 537 l 2,12,13
 208 524 208 524 197 524 c 0,14,15
 175.125 524 175.125 524 167 537 c 2,16,-1
 65 685 l 2,0,1
EndSplineSet
Validated: 540705
EndChar

StartChar: circumflex
Encoding: 710 710 112
Width: 386
Flags: HW
HStem: 516.5 193.5
LayerCount: 2
Fore
SplineSet
319 549 m 2,0,1
 330.617 530.745 330.617 530.745 318.809 523.372 c 0,2,3
 298.996 511.003 298.996 511.003 281.998 524.001 c 0,4,5
 252.356 546.669 252.356 546.669 192 624 c 1,6,7
 109.282 518.018 109.282 518.018 85 516.5 c 0,8,9
 68.5142 515.47 68.5142 515.47 63.2571 526.735 c 128,-1,10
 58 538 58 538 65 549 c 2,11,-1
 167 697 l 2,12,13
 176 710 176 710 187 710 c 0,14,15
 208.875 710 208.875 710 217 697 c 2,16,-1
 319 549 l 2,0,1
EndSplineSet
Validated: 540705
EndChar

StartChar: ring
Encoding: 730 730 113
Width: 306
Flags: HW
HStem: 525 37<117.409 187.951> 683 35<118.052 185.356>
VStem: 43 65<567.922 677.724> 196 65<572.444 677.147>
LayerCount: 2
Fore
SplineSet
233.5 692 m 128,-1,1
 261 666 261 666 261 621 c 128,-1,2
 261 576 261 576 232 550.5 c 128,-1,3
 203 525 203 525 152.5 525 c 128,-1,4
 102 525 102 525 72.5 551 c 128,-1,5
 43 577 43 577 43 620 c 0,6,7
 43 718 43 718 153 718 c 0,8,0
 206 718 206 718 233.5 692 c 128,-1,1
196 620 m 0,9,10
 196 683 196 683 152 683 c 128,-1,11
 108 683 108 683 108 622.5 c 128,-1,12
 108 562 108 562 153 562 c 0,13,14
 179 562 179 562 187.5 578 c 128,-1,15
 196 594 196 594 196 620 c 0,9,10
EndSplineSet
Validated: 16385
EndChar

StartChar: dieresis
Encoding: 168 168 114
Width: 387
Flags: HW
HStem: 547 120<70.08 155.951 243.08 328.951>
VStem: 51 123<565.564 649.467> 224 123<565.564 649.467>
LayerCount: 2
Fore
SplineSet
114 667 m 256,0,1
 140 667 140 667 157 650 c 128,-1,2
 174 633 174 633 174 608 c 128,-1,3
 174 583 174 583 156.5 565 c 128,-1,4
 139 547 139 547 113 547 c 256,5,6
 87 547 87 547 69 565 c 128,-1,7
 51 583 51 583 51 608 c 128,-1,8
 51 633 51 633 69.5 650 c 128,-1,9
 88 667 88 667 114 667 c 256,0,1
287 667 m 256,10,11
 313 667 313 667 330 650 c 128,-1,12
 347 633 347 633 347 608 c 128,-1,13
 347 583 347 583 329.5 565 c 128,-1,14
 312 547 312 547 286 547 c 256,15,16
 260 547 260 547 242 565 c 128,-1,17
 224 583 224 583 224 608 c 128,-1,18
 224 633 224 633 242.5 650 c 128,-1,19
 261 667 261 667 287 667 c 256,10,11
EndSplineSet
Validated: 16385
EndChar

StartChar: acute
Encoding: 180 180 115
Width: 221
Flags: W
LayerCount: 2
Fore
SplineSet
85 518 m 2,0,1
 66.9658 498.162 66.9658 498.162 48 509 c 256,2,3
 28.9406 519.891 28.9406 519.891 41 542 c 2,4,-1
 116 679 l 2,5,6
 136.671 715.174 136.671 715.174 171 697 c 256,7,8
 188 688 188 688 194 670 c 128,-1,9
 200 652 200 652 187 637 c 2,10,-1
 85 518 l 2,0,1
EndSplineSet
Validated: 524321
EndChar

StartChar: grave
Encoding: 96 96 116
Width: 282
Flags: W
LayerCount: 2
Fore
SplineSet
50 637 m 2,0,1
 37 652 37 652 43 670 c 128,-1,2
 49 688 49 688 66 697 c 256,3,4
 100.329 715.174 100.329 715.174 121 679 c 2,5,-1
 196 542 l 2,6,7
 208.059 519.891 208.059 519.891 189 509 c 256,8,9
 170.034 498.162 170.034 498.162 152 518 c 2,10,-1
 50 637 l 2,0,1
EndSplineSet
Validated: 524321
EndChar

StartChar: braceleft
Encoding: 123 123 117
Width: 286
Flags: HW
HStem: -218 30.5<211.608 265.968> 707 20G<175.5 250>
VStem: 105 68<-157.584 23 486.5 663.512> 113 74<95.4193 212.995 296.692 412.581>
LayerCount: 2
Fore
SplineSet
187 133 m 1,0,-1
 173 -87 l 1,1,2
 173 -148.586 173 -148.586 207.5 -170 c 0,3,4
 222 -179 222 -179 238 -182.5 c 128,-1,5
 254 -186 254 -186 259.5 -187.5 c 128,-1,6
 265 -189 265 -189 266 -198 c 0,7,8
 268.222 -218 268.222 -218 249 -218 c 0,9,10
 105 -212 105 -212 105 -84 c 0,11,12
 105 -36.6667 105 -36.6667 107.5 14.1667 c 2,13,-1
 111.5 94.5 l 2,14,15
 113 124 113 124 113 143 c 128,-1,16
 113 162 113 162 111 176 c 128,-1,17
 109 190 109 190 101 202 c 0,18,19
 82.5172 229.724 82.5172 229.724 28 235 c 1,20,21
 17 237.2 17 237.2 17 254 c 256,22,23
 17 270.8 17 270.8 28 273 c 1,24,25
 103.617 280.318 103.617 280.318 111 332 c 0,26,27
 113 346 113 346 113 365 c 128,-1,28
 113 384 113 384 111.5 413.5 c 2,29,-1
 108.5 473.5 l 2,30,31
 105 544.667 105 544.667 105 588 c 0,32,33
 105 721.125 105 721.125 246 727 c 0,34,35
 254 727 254 727 259.5 726 c 128,-1,36
 265 725 265 725 265.5 715 c 0,37,38
 266.407 696.852 266.407 696.852 251 693 c 0,39,40
 202.786 683.728 202.786 683.728 190.393 664.364 c 0,41,42
 173 637.188 173 637.188 173 598 c 1,43,-1
 187 375 l 1,44,45
 187 274.125 187 274.125 100 256 c 1,46,-1
 100 252 l 1,47,48
 187 233.489 187 233.489 187 133 c 1,0,-1
EndSplineSet
Validated: 540673
EndChar

StartChar: at
Encoding: 64 64 118
Width: 878
Flags: HW
HStem: -141 43<329.093 597.359> 61 36<571.729 678.468> 406 33<447.326 531.178> 582 45<368.325 628.747>
VStem: 51 86<91.1601 348.123> 258 87<117.174 273.119> 787 48<213.157 437.5>
LayerCount: 2
Fore
SplineSet
396 413 m 128,-1,1
 439 439 439 439 497.444 439 c 128,-1,2
 555.889 439 555.889 439 571 388 c 1,3,-1
 587 424 l 2,4,5
 594 438 594 438 608.5 438 c 128,-1,6
 623 438 623 438 631.5 435.5 c 128,-1,7
 640 433 640 433 646.5 428 c 0,8,9
 661.825 416.212 661.825 416.212 658 399 c 1,10,-1
 574 182 l 1,11,12
 551.213 128.83 551.213 128.83 581 105 c 0,13,14
 591 97 591 97 619 97 c 128,-1,15
 647 97 647 97 679.5 114.5 c 128,-1,16
 712 132 712 132 736 163 c 0,17,18
 787 228.875 787 228.875 787 333 c 256,19,20
 787 440.534 787 440.534 713.5 509 c 0,21,22
 635.132 582 635.132 582 495 582 c 0,23,24
 355.681 582 355.681 582 252 489.5 c 0,25,26
 137 386.902 137 386.902 137 227 c 0,27,28
 137 69.5517 137 69.5517 230.5 -17.5 c 0,29,30
 316.963 -98 316.963 -98 462 -98 c 0,31,32
 586.414 -98 586.414 -98 706 -30 c 0,33,34
 718.773 -22.701 718.773 -22.701 723.387 -32.8505 c 0,35,36
 732.419 -52.7209 732.419 -52.7209 720 -61 c 0,37,38
 606.667 -141 606.667 -141 459 -141 c 0,39,40
 296.348 -141 296.348 -141 181 -52.5 c 0,41,42
 51 47.2414 51 47.2414 51 219 c 0,43,44
 51 382.169 51 382.169 174 501 c 0,45,46
 304.421 627 304.421 627 501 627 c 0,47,48
 661 627 661 627 751.5 536.5 c 0,49,50
 835 453 835 453 835 328 c 0,51,52
 835 216.556 835 216.556 768.5 139.5 c 0,53,54
 700.753 61 700.753 61 598 61 c 0,55,56
 556 61 556 61 526 80 c 128,-1,57
 496 99 496 99 492 137 c 1,58,59
 437.588 63 437.588 63 374 63 c 0,60,61
 295.959 63 295.959 63 268 131.5 c 0,62,63
 258 156 258 156 258 190.5 c 128,-1,64
 258 225 258 225 274.5 268 c 128,-1,65
 291 311 291 311 322 349 c 128,-1,0
 353 387 353 387 396 413 c 128,-1,1
554 339 m 1,66,67
 543 406 543 406 489 406 c 0,68,69
 441.394 406 441.394 406 392 322.5 c 0,70,71
 345 243.048 345 243.048 345 187.024 c 128,-1,72
 345 131 345 131 364.5 118.5 c 128,-1,73
 384 106 384 106 409.5 113 c 128,-1,74
 435 120 435 120 460.5 141 c 128,-1,75
 486 162 486 162 497 188 c 1,76,-1
 554 339 l 1,66,67
EndSplineSet
Validated: 540705
EndChar

StartChar: germandbls
Encoding: 223 223 119
Width: 604
Flags: HW
HStem: -6 39<23.5513 90.4133 194.078 254.449 343.107 411.277> 401 38<283.02 376.814> 687 41<238.219 377.643>
VStem: 97 92<40.1006 629.134> 266.5 68.5<44.3458 117.113> 419 97<495.554 643.482> 459 103<111.939 325.176>
LayerCount: 2
Fore
SplineSet
516 570 m 0,0,1
 516 475.581 516 475.581 404 425 c 1,2,-1
 404 422 l 1,3,4
 481 407 481 407 521.5 356.5 c 128,-1,5
 562 306 562 306 562 239.5 c 128,-1,6
 562 173 562 173 547 129.5 c 128,-1,7
 532 86 532 86 505.5 56 c 0,8,9
 450.733 -5.99999 450.733 -5.99999 370 -6 c 0,10,11
 324 -6 324 -6 295 18.5 c 128,-1,12
 266 43 266 43 266.5 74 c 128,-1,13
 267 105 267 105 282.5 125 c 128,-1,14
 298 145 298 145 320.5 145 c 128,-1,15
 343 145 343 145 352.5 136 c 128,-1,16
 362 127 362 127 362 124 c 128,-1,17
 362 121 362 121 358 118 c 128,-1,18
 354 115 354 115 349 109.5 c 0,19,20
 335 94.1 335 94.1 335 74.55 c 128,-1,21
 335 55 335 55 345.5 44 c 128,-1,22
 356 33 356 33 375 33 c 128,-1,23
 394 33 394 33 411.5 52.5 c 128,-1,24
 429 72 429 72 439.5 99 c 0,25,26
 459 149.143 459 149.143 459 196.571 c 128,-1,27
 459 244 459 244 451.5 280 c 128,-1,28
 444 316 444 316 428.5 343 c 0,29,30
 395.204 401 395.204 401 332 401 c 2,31,-1
 303 401 l 2,32,33
 283 401 283 401 283 419.091 c 128,-1,34
 283 437.182 283 437.182 303 439 c 1,35,-1
 332 439 l 2,36,37
 368.543 439 368.543 439 394.5 478.5 c 0,38,39
 419 515.783 419 515.783 419 564 c 256,40,41
 419 647.1 419 647.1 363 676.5 c 0,42,43
 343 687 343 687 315 687 c 0,44,45
 189 687 189 687 189 546 c 2,46,-1
 189 103 l 2,47,48
 189 47 189 47 202 40.5 c 128,-1,49
 215 34 215 34 228 34.5 c 128,-1,50
 241 35 241 35 247.5 33.5 c 128,-1,51
 254 32 254 32 254.5 14.5 c 128,-1,52
 255 -3 255 -3 239 -3 c 1,53,54
 139 3.89655 139 3.89655 39 -3 c 1,55,56
 23 -3 23 -3 23.5 14.5 c 128,-1,57
 24 32 24 32 30 33.5 c 128,-1,58
 36 35 36 35 46 35 c 0,59,60
 97 35 97 35 97 77.5 c 2,61,-1
 97 528 l 2,62,63
 97 623 97 623 151.5 675.5 c 128,-1,64
 206 728 206 728 307 728 c 1,65,66
 396.965 729.956 396.965 729.956 458 682 c 0,67,68
 516 636.429 516 636.429 516 570 c 0,0,1
EndSplineSet
Validated: 540705
EndChar

StartChar: ae
Encoding: 230 230 120
Width: 773
Flags: HW
HStem: -12 50<491.224 639.938> 240 38<414 623.576> 436 29<175.187 285.748 488.599 574.909>
VStem: 34 101<63.53 173.337> 70 76<323.578 416.166> 326 88<121.25 227 278 364.809> 631 94.5<285.049 376.23>
LayerCount: 2
Fore
SplineSet
229 465 m 0,0,1
 345.657 465 345.657 465 388 408 c 1,2,3
 449.385 465 449.385 465 535 465 c 0,4,5
 666.516 465 666.516 465 710.5 364 c 0,6,7
 724 333 724 333 725.5 297.5 c 128,-1,8
 727 262 727 262 707.5 251 c 128,-1,9
 688 240 688 240 657 240 c 2,10,-1
 414 240 l 1,11,12
 414 96 414 96 500 53 c 0,13,14
 530 38 530 38 572 38 c 256,15,16
 614 38 614 38 644 56 c 128,-1,17
 674 74 674 74 702 119 c 1,18,19
 710 129 710 129 721 122 c 0,20,21
 742.298 108.447 742.298 108.447 732 93 c 0,22,23
 665.571 -12 665.571 -12 534.256 -12 c 128,-1,24
 402.94 -12 402.94 -12 343 99 c 1,25,26
 318.057 49.1132 318.057 49.1132 293.528 32.5566 c 128,-1,27
 269 16 269 16 246.5 6.5 c 0,28,29
 135.742 -40.2646 135.742 -40.2646 70.5 23 c 0,30,31
 34 58.3939 34 58.3939 34 100.697 c 128,-1,32
 34 143 34 143 51.5 168 c 128,-1,33
 69 193 69 193 96 209 c 128,-1,34
 123 225 123 225 156.5 234 c 128,-1,35
 190 243 190 243 222.5 247.5 c 128,-1,36
 255 252 255 252 282.5 253.5 c 128,-1,37
 310 255 310 255 326 257 c 1,38,-1
 326 336 l 2,39,40
 326 436 326 436 223 436 c 0,41,42
 194 436 194 436 170 418 c 128,-1,43
 146 400 146 400 146 377 c 128,-1,44
 146 354 146 354 151 344.5 c 128,-1,45
 156 335 156 335 162 329 c 128,-1,46
 168 323 168 323 173 319 c 128,-1,47
 178 315 178 315 178 312 c 128,-1,48
 178 309 178 309 166.5 299 c 128,-1,49
 155 289 155 289 129 289 c 128,-1,50
 103 289 103 289 86.5 312 c 128,-1,51
 70 335 70 335 70 363 c 256,52,53
 70 439.912 70 439.912 171.5 459.5 c 0,54,55
 200 465 200 465 229 465 c 0,0,1
326 227 m 1,56,57
 224.152 214.269 224.152 214.269 191.576 197.634 c 0,58,59
 135 168.745 135 168.745 135 128.372 c 128,-1,60
 135 88 135 88 153 65 c 128,-1,61
 171 42 171 42 198 42 c 128,-1,62
 225 42 225 42 248 52 c 128,-1,63
 271 62 271 62 288.5 79 c 0,64,65
 326 115.429 326 115.429 326 171 c 2,66,-1
 326 227 l 1,56,57
577 278 m 2,67,68
 627.348 278 627.348 278 631 320 c 1,69,70
 631 394 631 394 577 421 c 0,71,72
 559 430 559 430 521.5 430 c 128,-1,73
 484 430 484 430 451 390 c 128,-1,74
 418 350 418 350 414 278 c 1,75,-1
 577 278 l 2,67,68
EndSplineSet
Validated: 540705
EndChar

StartChar: currency
Encoding: 164 164 121
Width: 608
Flags: HW
HStem: 47 41<226.03 381.215> 430 42<223.536 382.664>
VStem: 92 47<173.072 346.469> 470 46<175.145 344.265>
LayerCount: 2
Fore
SplineSet
435 95 m 1,0,1
 373.286 47 373.286 47 301.943 47 c 128,-1,2
 230.6 47 230.6 47 173 95 c 1,3,-1
 105 27 l 1,4,5
 89.354 13.3097 89.354 13.3097 78.177 26.1549 c 0,6,7
 58.1597 49.1597 58.1597 49.1597 72 63 c 2,8,-1
 137 127 l 1,9,10
 92 181 92 181 92 257.942 c 128,-1,11
 92 334.885 92 334.885 137 392 c 1,12,13
 120 407 120 407 104 423.5 c 2,14,-1
 71 457 l 2,15,16
 57.7692 470.231 57.7692 470.231 68.8846 483.115 c 0,17,18
 89.279 506.756 89.279 506.756 105 493 c 1,19,-1
 173 424 l 1,20,21
 229 472 229 472 303 472 c 0,22,23
 373.353 472 373.353 472 418 437.5 c 2,24,-1
 435 424 l 1,25,-1
 503 493 l 1,26,27
 518.646 506.69 518.646 506.69 529.823 493.845 c 0,28,29
 550.306 470.306 550.306 470.306 537 457 c 2,30,-1
 471 392 l 1,31,32
 516 331.423 516 331.423 516 258.404 c 128,-1,33
 516 185.385 516 185.385 470 127 c 1,34,-1
 536 63 l 2,35,36
 549.769 49.2308 549.769 49.2308 538.885 36.6154 c 0,37,38
 518.72 13.2447 518.72 13.2447 503 27 c 1,39,-1
 435 95 l 1,0,1
139 260 m 256,40,41
 139 188.111 139 188.111 186.5 138.5 c 0,42,43
 234.851 88 234.851 88 303 88 c 0,44,45
 371.574 88 371.574 88 421 138.5 c 0,46,47
 470 188.565 470 188.565 470 260 c 0,48,49
 470 331 470 331 421 380 c 0,50,51
 371 430 371 430 303 430 c 0,52,53
 234.435 430 234.435 430 186.5 381 c 0,54,55
 139 332.444 139 332.444 139 260 c 256,40,41
EndSplineSet
Validated: 540705
EndChar

StartChar: thorn
Encoding: 254 254 122
Width: 561
Flags: HW
HStem: -208 36.5<3.55127 69.5493 177.266 243.449> -12 34<220.58 340.783> 415 50<220.56 347.484>
VStem: 78 91<-149.138 19 62.6213 389.125 407 652.978> 418 102<125.878 334.645>
LayerCount: 2
Fore
SplineSet
172 407 m 1,0,1
 230 465 230 465 310 465 c 0,2,3
 399.742 465 399.742 465 459.5 400 c 0,4,5
 520 334.193 520 334.193 520 230 c 0,6,7
 520 129.206 520 129.206 450.5 57.5 c 0,8,9
 383.138 -12 383.138 -12 304.569 -12 c 128,-1,10
 226 -12 226 -12 173 19 c 1,11,-1
 169 19 l 1,12,-1
 169 -102 l 2,13,14
 169 -153.238 169 -153.238 185 -161.619 c 128,-1,15
 201 -170 201 -170 215.5 -170 c 128,-1,16
 230 -170 230 -170 236.5 -171.5 c 128,-1,17
 243 -173 243 -173 243.5 -190.5 c 128,-1,18
 244 -208 244 -208 228 -208 c 1,19,20
 184.5 -205 184.5 -205 123 -205 c 256,21,22
 62.5 -205 62.5 -205 19 -208 c 1,23,24
 3 -208 3 -208 3.5 -190.5 c 128,-1,25
 4 -173 4 -173 10.5 -171.5 c 128,-1,26
 17 -170 17 -170 31.5 -170 c 128,-1,27
 46 -170 46 -170 56.5 -164.5 c 128,-1,28
 67 -159 67 -159 72 -149.5 c 0,29,30
 78 -138.1 78 -138.1 78 -102 c 2,31,-1
 78 615.5 l 2,32,33
 78 658 78 658 27 658 c 0,34,35
 18 658 18 658 10.5 660.5 c 128,-1,36
 3 663 3 663 3 673.5 c 0,37,38
 3 692 3 692 19 696 c 1,39,40
 79.2856 704.865 79.2856 704.865 110.643 715.933 c 0,41,42
 154.624 731.455 154.624 731.455 161.812 726.228 c 128,-1,43
 169 721 169 721 169 709 c 2,44,-1
 169 407 l 1,45,-1
 172 407 l 1,0,1
340 398.5 m 0,46,47
 313 415 313 415 261.909 415 c 128,-1,48
 210.818 415 210.818 415 169 369 c 1,49,-1
 169 105 l 1,50,51
 177.683 57.2426 177.683 57.2426 236 31 c 0,52,53
 256 22 256 22 284 22 c 128,-1,54
 312 22 312 22 337 36 c 128,-1,55
 362 50 362 50 380 76.5 c 0,56,57
 418 132.444 418 132.444 418 226 c 0,58,59
 418 350.833 418 350.833 340 398.5 c 0,46,47
EndSplineSet
Validated: 540705
EndChar

StartChar: tilde
Encoding: 732 732 123
Width: 425
Flags: HW
HStem: 554 67<232.638 319.573> 612 67<100.503 187.361>
LayerCount: 2
Fore
SplineSet
372 657.5 m 128,-1,1
 374 650 374 650 368.5 637.5 c 128,-1,2
 363 625 363 625 353 609.5 c 128,-1,3
 343 594 343 594 329.5 581.5 c 0,4,5
 299.8 554 299.8 554 270.4 554 c 128,-1,6
 241 554 241 554 225 563.5 c 128,-1,7
 209 573 209 573 196 583.5 c 2,8,-1
 171.5 603 l 2,9,10
 160 612 160 612 147.5 612 c 0,11,12
 115.696 612 115.696 612 81 570 c 0,13,14
 71.4651 558.558 71.4651 558.558 61.2326 562.279 c 0,15,16
 33.7987 572.255 33.7987 572.255 64.5 620.5 c 0,17,18
 101.727 679 101.727 679 158 679 c 256,19,20
 187.476 679 187.476 679 212.238 659 c 2,21,-1
 248.5 630 l 2,22,23
 260 621 260 621 272.5 621 c 0,24,25
 304.636 621 304.636 621 339 663 c 0,26,27
 351.05 677.059 351.05 677.059 360.525 671.029 c 128,-1,0
 370 665 370 665 372 657.5 c 128,-1,1
EndSplineSet
Validated: 540705
EndChar

StartChar: AE
Encoding: 198 198 124
Width: 902
Flags: HW
HStem: 0 40<-9.33594 64.236 139.006 231.336 351.648 429.274 551.011 767.427> 248 43<245 441> 294 43<540 735.967> 591 40<250.674 317.364 397.19 441 540 733.005>
VStem: 441 99<50.1527 248 291 294 337 591> 772 58<447.633 551.215> 809 58<102.9 170.007>
LayerCount: 2
Fore
SplineSet
418 591 m 1,0,1
 403 592 403 592 397 585.5 c 128,-1,2
 391 579 391 579 383 565 c 2,3,-1
 245 291 l 1,4,-1
 441 291 l 1,5,-1
 441 591 l 1,6,-1
 418 591 l 1,0,1
8 -3 m 1,7,8
 -10 -3 -10 -3 -9.5 16.5 c 128,-1,9
 -9 36 -9 36 -2.5 38.5 c 128,-1,10
 4 41 4 41 17 40 c 128,-1,11
 30 39 30 39 43 45.5 c 128,-1,12
 56 52 56 52 67.5 63 c 0,13,14
 89.7173 84.2513 89.7173 84.2513 105 117 c 1,15,-1
 318 531 l 1,16,17
 334.993 574.697 334.993 574.697 294.5 583.5 c 0,18,19
 283 586 283 586 269.5 588.5 c 128,-1,20
 256 591 256 591 250.5 593.5 c 128,-1,21
 245 596 245 596 246 612 c 128,-1,22
 247 628 247 628 258 629.5 c 128,-1,23
 269 631 269 631 286 631 c 2,24,-1
 801 631 l 2,25,26
 827 631 827 631 827 607 c 2,27,-1
 830 467 l 2,28,29
 830 447 830 447 803 447 c 128,-1,30
 776 447 776 447 772 465 c 1,31,32
 761.707 534.989 761.707 534.989 747.354 555.495 c 0,33,34
 723.842 589.083 723.842 589.083 674 591 c 1,35,-1
 540 591 l 1,36,-1
 540 337 l 1,37,-1
 721 337 l 1,38,39
 736 335.125 736 335.125 736 314 c 256,40,41
 736 294 736 294 721 294 c 2,42,-1
 540 294 l 1,43,-1
 540 105 l 1,44,45
 541 95 541 95 542 83.5 c 128,-1,46
 543 72 543 72 549.5 62 c 0,47,48
 564.927 38.2664 564.927 38.2664 610 40 c 1,49,-1
 702 40 l 1,50,51
 752.815 41.9544 752.815 41.9544 767.907 60.4772 c 0,52,53
 787.246 84.2105 787.246 84.2105 809 156 c 1,54,55
 821.449 187.122 821.449 187.122 859.5 162.5 c 0,56,57
 868 157 868 157 867 147 c 2,58,-1
 847 21 l 1,59,60
 842.5 2.38419e-07 842.5 2.38419e-07 818 0 c 2,61,-1
 488 0 l 2,62,63
 417.5 0 417.5 0 368 -3 c 1,64,65
 351 -3 351 -3 351.5 16.5 c 128,-1,66
 352 36 352 36 358.5 38 c 128,-1,67
 365 40 365 40 382.5 40 c 128,-1,68
 400 40 400 40 413 46.5 c 128,-1,69
 426 53 426 53 432 64 c 0,70,71
 441 80.5 441 80.5 441 117 c 2,72,-1
 441 248 l 1,73,-1
 224 248 l 1,74,-1
 157 117 l 2,75,76
 131.341 67.6553 131.341 67.6553 138.67 56.3276 c 0,77,78
 149.235 40 149.235 40 183.618 40 c 128,-1,79
 218 40 218 40 224.5 38 c 128,-1,80
 231 36 231 36 231.5 16.5 c 128,-1,81
 232 -3 232 -3 214 -3 c 1,82,83
 166 0 166 0 128 0 c 2,84,-1
 79 0 l 2,85,86
 68 0 68 0 57.5 -0.5 c 2,87,-1
 35.5 -1.5 l 2,88,89
 24 -2 24 -2 8 -3 c 1,7,8
EndSplineSet
Validated: 540705
EndChar

StartChar: eth
Encoding: 240 240 125
Width: 563
Flags: HW
HStem: -12 37<206.523 337.001> 418 37<204.764 335.368>
VStem: 42 98<111.577 319.773> 402 99.5<129.87 345.956>
LayerCount: 2
Fore
SplineSet
271 418 m 0,0,1
 140 418 140 418 140 217 c 0,2,3
 140 83.9 140 83.9 210 40.5 c 0,4,5
 235 25 235 25 271 25 c 256,6,7
 402 25 402 25 402 228 c 0,8,9
 402 360.4 402 360.4 331 403 c 0,10,11
 306 418 306 418 271 418 c 0,0,1
295 632 m 1,12,13
 274.091 659.879 274.091 659.879 248.045 678.939 c 128,-1,14
 222 698 222 698 220 703.5 c 128,-1,15
 218 709 218 709 220 715.5 c 0,16,17
 225.971 734.905 225.971 734.905 238.985 727.953 c 128,-1,18
 252 721 252 721 265.5 712.5 c 2,19,-1
 293 694.5 l 2,20,21
 322.556 674.444 322.556 674.444 340 657 c 1,22,-1
 426 709 l 2,23,24
 435.362 714.617 435.362 714.617 442.681 701.808 c 128,-1,25
 450 689 450 689 450 681.5 c 128,-1,26
 450 674 450 674 445 671 c 2,27,-1
 369 627 l 1,28,29
 468.992 520.758 468.992 520.758 495.5 343 c 0,30,31
 504 286 504 286 501.5 227 c 128,-1,32
 499 168 499 168 477.5 123 c 128,-1,33
 456 78 456 78 423 48 c 0,34,35
 357 -12 357 -12 287.5 -12 c 128,-1,36
 218 -12 218 -12 176 6.5 c 128,-1,37
 134 25 134 25 104 56.5 c 0,38,39
 42 121.6 42 121.6 42 197.8 c 128,-1,40
 42 274 42 274 63 319.5 c 128,-1,41
 84 365 84 365 117 395 c 0,42,43
 185.355 457.141 185.355 457.141 271 455 c 0,44,45
 318 454 318 454 345 439 c 128,-1,46
 372 424 372 424 396 405 c 1,47,-1
 400 406 l 1,48,49
 389.18 498.743 389.18 498.743 319 599 c 1,50,-1
 222 542 l 1,51,52
 210.125 538.042 210.125 538.042 204.562 551.021 c 128,-1,53
 199 564 199 564 199 571 c 128,-1,54
 199 578 199 578 205 581 c 2,55,-1
 295 632 l 1,12,13
EndSplineSet
Validated: 540705
EndChar

StartChar: Eth
Encoding: 208 208 126
Width: 728
Flags: HW
HStem: -3 43<43.6 122.391 244.112 445.197> 311 43<59.0046 133 232 365.995> 595 36<43.5601 115.22 232 405.806>
VStem: 133 99<52.2949 311 354 580.336> 558 121<195.444 433.779>
LayerCount: 2
Fore
SplineSet
60 -3 m 1,0,1
 43 -3 43 -3 43.5 16.5 c 128,-1,2
 44 36 44 36 50.5 38 c 128,-1,3
 57 40 57 40 74.5 40 c 128,-1,4
 92 40 92 40 105 46.5 c 128,-1,5
 118 53 118 53 124 64 c 0,6,7
 133 80.5 133 80.5 133 117 c 2,8,-1
 133 311 l 1,9,-1
 78 311 l 2,10,11
 59 311 59 311 59 332.5 c 128,-1,12
 59 354 59 354 78 354 c 2,13,-1
 133 354 l 1,14,-1
 133 514 l 2,15,16
 133 570.5 133 570.5 105 584.5 c 0,17,18
 92 591 92 591 74.5 591 c 128,-1,19
 57 591 57 591 50.5 593 c 128,-1,20
 44 595 44 595 43.5 614.5 c 128,-1,21
 43 634 43 634 60 634 c 1,22,23
 109.5 631 109.5 631 179 631 c 2,24,-1
 335 631 l 2,25,26
 483.232 631 483.232 631 578.5 547 c 0,27,28
 679 458.387 679 458.387 679 312 c 0,29,30
 679 161.559 679 161.559 565 75.5 c 0,31,32
 464.987 -9.42785e-06 464.987 -9.42785e-06 317 0 c 2,33,-1
 179 0 l 2,34,35
 109.5 0 109.5 0 60 -3 c 1,0,1
332 37 m 0,36,37
 558 37 558 37 558 312 c 0,38,39
 558 437.19 558 437.19 493.5 515 c 0,40,41
 427.184 595 427.184 595 310 595 c 2,42,-1
 290.5 595 l 1,43,-1
 246.5 594 l 1,44,-1
 232 594 l 1,45,-1
 232 354 l 1,46,-1
 347 354 l 2,47,48
 366 354 366 354 366 332.5 c 128,-1,49
 366 311 366 311 347 311 c 2,50,-1
 232 311 l 1,51,-1
 232 105 l 2,52,53
 232 64 232 64 256.5 50.5 c 128,-1,54
 281 37 281 37 332 37 c 0,36,37
EndSplineSet
Validated: 540705
EndChar

StartChar: OE
Encoding: 338 338 127
Width: 1008
Flags: HW
HStem: 0 40<311.784 534.148 657.011 873.427> 294 43<646 841.967> 591 40<299.452 533.766 646 839.005>
VStem: 49 118<194.777 437.806> 547 99<58.222 294 337 580.336> 878 58<447.633 551.215> 915 58<102.9 170.007>
CounterMasks: 1 e0
LayerCount: 2
Fore
SplineSet
842 314 m 256,0,1
 842 294 842 294 827 294 c 2,2,-1
 646 294 l 1,3,-1
 646 105 l 1,4,5
 647 95 647 95 648 83.5 c 128,-1,6
 649 72 649 72 655.5 62 c 0,7,8
 670.927 38.2664 670.927 38.2664 716 40 c 1,9,-1
 808 40 l 1,10,11
 858.815 41.9544 858.815 41.9544 873.907 60.4772 c 0,12,13
 893.246 84.2105 893.246 84.2105 915 156 c 1,14,15
 927.449 187.122 927.449 187.122 965.5 162.5 c 0,16,17
 974 157 974 157 973 147 c 2,18,-1
 953 21 l 1,19,20
 948.5 2.38419e-07 948.5 2.38419e-07 924 0 c 2,21,-1
 389 0 l 2,22,23
 243.366 0 243.366 0 148 85 c 0,24,25
 49 173.239 49 173.239 49 319 c 0,26,27
 49 468.49 49 468.49 162 555.5 c 0,28,29
 260.052 631 260.052 631 404 631 c 2,30,-1
 907 631 l 2,31,32
 933 631 933 631 933 607 c 2,33,-1
 936 467 l 2,34,35
 936 447 936 447 909 447 c 128,-1,36
 882 447 882 447 878 465 c 1,37,38
 867.707 534.989 867.707 534.989 853.354 555.495 c 0,39,40
 829.842 589.083 829.842 589.083 780 591 c 1,41,-1
 646 591 l 1,42,-1
 646 337 l 1,43,-1
 827 337 l 1,44,45
 842 335.125 842 335.125 842 314 c 256,0,1
403 591 m 2,46,47
 238.981 591 238.981 591 186 446 c 0,48,49
 167 394 167 394 167 324.5 c 128,-1,50
 167 255 167 255 184.5 204 c 128,-1,51
 202 153 202 153 234 116.5 c 0,52,53
 301.068 40 301.068 40 411 40 c 2,54,-1
 482 40 l 2,55,56
 524.909 40 524.909 40 534.455 57.5 c 0,57,58
 547 80.5 547 80.5 547 117 c 2,59,-1
 547 514 l 2,60,61
 547 570.5 547 570.5 519 584.5 c 0,62,63
 506 591 506 591 482 591 c 2,64,-1
 403 591 l 2,46,47
EndSplineSet
Validated: 540705
EndChar

StartChar: questiondown
Encoding: 191 191 128
Width: 432
Flags: HW
HStem: -234 38<150.489 270.191> 225 41<170.83 250.358> 338 127<172.565 263.435>
VStem: 41 76<-164.912 -45.5448> 154 128<357.08 446.951> 260 62<126.831 212.822>
LayerCount: 2
Fore
SplineSet
99 193.5 m 128,-1,1
 90 206 90 206 107.5 224 c 0,2,3
 148.333 266 148.333 266 204 266 c 0,4,5
 251.469 266 251.469 266 276.734 241.5 c 0,6,7
 322 197.606 322 197.606 322 143 c 0,8,9
 322 84.8421 322 84.8421 255 39 c 1,10,-1
 180 -10 l 2,11,12
 117 -52 117 -52 117 -96.5 c 128,-1,13
 117 -141 117 -141 141.5 -168.5 c 128,-1,14
 166 -196 166 -196 195 -196 c 128,-1,15
 224 -196 224 -196 241 -191 c 128,-1,16
 258 -186 258 -186 271.5 -176.5 c 0,17,18
 302 -155.037 302 -155.037 302 -128.019 c 128,-1,19
 302 -101 302 -101 291 -89 c 128,-1,20
 280 -77 280 -77 272.5 -71 c 128,-1,21
 265 -65 265 -65 265 -61.5 c 128,-1,22
 265 -58 265 -58 278.5 -46.5 c 128,-1,23
 292 -35 292 -35 315 -35 c 128,-1,24
 338 -35 338 -35 354 -44.5 c 128,-1,25
 370 -54 370 -54 380 -69 c 0,26,27
 399.917 -98.875 399.917 -98.875 391.458 -134.438 c 128,-1,28
 383 -170 383 -170 359.5 -189 c 128,-1,29
 336 -208 336 -208 308.5 -218 c 0,30,31
 264.5 -234 264.5 -234 211.25 -234 c 128,-1,32
 158 -234 158 -234 124 -219 c 128,-1,33
 90 -204 90 -204 71.5 -182 c 0,34,35
 41 -145.73 41 -145.73 41 -106.365 c 128,-1,36
 41 -67 41 -67 51.5 -44.5 c 128,-1,37
 62 -22 62 -22 79.5 -2.5 c 0,38,39
 104.447 25.2979 104.447 25.2979 142.223 50.6489 c 128,-1,40
 180 76 180 76 197.5 89 c 128,-1,41
 215 102 215 102 229 116 c 0,42,43
 260 147 260 147 260 182 c 256,44,45
 260 201 260 201 247.5 213 c 128,-1,46
 235 225 235 225 219.5 225 c 0,47,48
 191 225 191 225 171 205 c 0,49,50
 143.667 177.667 143.667 177.667 125.833 179.333 c 128,-1,0
 108 181 108 181 99 193.5 c 128,-1,1
172 447.5 m 128,-1,52
 190 465 190 465 218 465 c 128,-1,53
 246 465 246 465 264 447.5 c 128,-1,54
 282 430 282 430 282 402.5 c 128,-1,55
 282 375 282 375 264 356.5 c 128,-1,56
 246 338 246 338 218 338 c 256,57,58
 190 338 190 338 172 356.5 c 128,-1,59
 154 375 154 375 154 402.5 c 128,-1,51
 154 430 154 430 172 447.5 c 128,-1,52
EndSplineSet
Validated: 540705
EndChar

StartChar: exclamdown
Encoding: 161 161 129
Width: 242
Flags: HW
HStem: 338 127<75.5649 166.435>
VStem: 57 128<357.08 446.951> 67 108<-217.547 121.488> 97 48<19.2758 245.969>
LayerCount: 2
Fore
SplineSet
75 447.5 m 128,-1,1
 93 465 93 465 121 465 c 128,-1,2
 149 465 149 465 167 447.5 c 128,-1,3
 185 430 185 430 185 402.5 c 128,-1,4
 185 375 185 375 167 356.5 c 128,-1,5
 149 338 149 338 121 338 c 256,6,7
 93 338 93 338 75 356.5 c 128,-1,8
 57 375 57 375 57 402.5 c 128,-1,0
 57 430 57 430 75 447.5 c 128,-1,1
121 -234 m 256,9,10
 67 -234 67 -234 67 -117 c 0,11,12
 67 -51.25 67 -51.25 77.5 31.875 c 0,13,14
 97 186.25 97 186.25 97 232 c 0,15,16
 97 246 97 246 121 246 c 128,-1,17
 145 246 145 246 145 232 c 0,18,19
 145 186.25 145 186.25 155.5 103.125 c 0,20,21
 175 -51.25 175 -51.25 175 -117 c 0,22,23
 175 -234 175 -234 121 -234 c 256,9,10
EndSplineSet
Validated: 540673
EndChar

StartChar: onesuperior
Encoding: 185 185 130
Width: 335
Flags: HW
HStem: 261 36<48.0664 126.717 225.503 307.934> 565 40<52.0352 133.965>
VStem: 144 68<307.945 554.163>
LayerCount: 2
Fore
SplineSet
65 261 m 0,0,1
 48 261 48 261 48 281 c 1,2,3
 49 293 49 293 53.5 295 c 128,-1,4
 58 297 58 297 73 297 c 128,-1,5
 88 297 88 297 103 298 c 128,-1,6
 118 299 118 299 127 305 c 0,7,8
 144 316.333 144 316.333 144 356 c 2,9,-1
 144 502 l 1,10,11
 145.828 545.879 145.828 545.879 134.414 554.439 c 0,12,13
 120.333 565 120.333 565 68 565 c 0,14,15
 52 565 52 565 52 582.5 c 128,-1,16
 52 600 52 600 57.5 602.5 c 128,-1,17
 63 605 63 605 76 605 c 128,-1,18
 89 605 89 605 106 608.5 c 128,-1,19
 123 612 123 612 138.5 616.5 c 128,-1,20
 154 621 154 621 166.5 626 c 128,-1,21
 179 631 179 631 187 634 c 128,-1,22
 195 637 195 637 203.5 633 c 128,-1,23
 212 629 212 629 212 618 c 2,24,-1
 212 356 l 2,25,26
 212 316.333 212 316.333 225 307.667 c 0,27,28
 241 297 241 297 269.5 297 c 128,-1,29
 298 297 298 297 302.5 295 c 128,-1,30
 307 293 307 293 308 281 c 1,31,32
 308 261 308 261 291 261 c 0,33,34
 279 261 279 261 263 261.5 c 2,35,-1
 231.5 262.5 l 2,36,37
 216 263 216 263 201.5 263 c 0,38,39
 178.25 263 178.25 263 159.625 263 c 128,-1,40
 141 263 141 263 125 262.5 c 128,-1,41
 109 262 109 262 93 261.5 c 128,-1,42
 77 261 77 261 65 261 c 0,0,1
EndSplineSet
Validated: 540705
EndChar

StartChar: twosuperior
Encoding: 178 178 131
Width: 379
Flags: HW
HStem: 263 57<123 332.547> 600 33<133.187 225.254>
VStem: 58 64<508.516 591.414> 241 73<459.213 588.879>
LayerCount: 2
Fore
SplineSet
109 495 m 0,0,1
 58 495 58 495 58 545 c 0,2,3
 58 609.136 58 609.136 141 628 c 0,4,5
 163 633 163 633 185.5 633 c 128,-1,6
 208 633 208 633 231 627 c 128,-1,7
 254 621 254 621 272.5 608.5 c 0,8,9
 314 580.459 314 580.459 314 533.73 c 128,-1,10
 314 487 314 487 294 458 c 128,-1,11
 274 429 274 429 245 405.5 c 128,-1,12
 216 382 216 382 183 361.5 c 128,-1,13
 150 341 150 341 123 320 c 1,14,-1
 296 320 l 2,15,16
 310 320 310 320 321.5 316.5 c 128,-1,17
 333 313 333 313 333 291 c 0,18,19
 333 263 333 263 304 263 c 2,20,-1
 76 263 l 2,21,22
 48 263 48 263 48 291 c 0,23,24
 48 315.786 48 315.786 77 334.393 c 128,-1,25
 106 353 106 353 134 373 c 128,-1,26
 162 393 162 393 186 417 c 0,27,28
 241 472 241 472 241 536 c 128,-1,29
 241 600 241 600 178 600 c 0,30,31
 154 600 154 600 138 588 c 128,-1,32
 122 576 122 576 122 561 c 128,-1,33
 122 546 122 546 125.5 540 c 128,-1,34
 129 534 129 534 133 530 c 128,-1,35
 137 526 137 526 140.5 523 c 128,-1,36
 144 520 144 520 144 516 c 128,-1,37
 144 512 144 512 134 503.5 c 128,-1,38
 124 495 124 495 109 495 c 0,0,1
EndSplineSet
Validated: 540673
EndChar

StartChar: brokenbar
Encoding: 166 166 132
Width: 376
Flags: HW
HStem: 553 108<54.5327 131.983 244.533 322.498>
VStem: 37 112<569.502 645.014> 227 112<569.502 645.014>
LayerCount: 2
Fore
SplineSet
94 661 m 256,0,1
 117 661 117 661 133 645.5 c 128,-1,2
 149 630 149 630 149 607.5 c 128,-1,3
 149 585 149 585 132.5 569 c 128,-1,4
 116 553 116 553 93 553 c 256,5,6
 70 553 70 553 53.5 569 c 128,-1,7
 37 585 37 585 37 607.5 c 128,-1,8
 37 630 37 630 54 645.5 c 128,-1,9
 71 661 71 661 94 661 c 256,0,1
284 661 m 256,10,11
 307 661 307 661 323 645.5 c 128,-1,12
 339 630 339 630 339 607.5 c 128,-1,13
 339 585 339 585 323 569 c 128,-1,14
 307 553 307 553 283.5 553 c 128,-1,15
 260 553 260 553 243.5 569 c 128,-1,16
 227 585 227 585 227 607.5 c 128,-1,17
 227 630 227 630 244 645.5 c 128,-1,18
 261 661 261 661 284 661 c 256,10,11
EndSplineSet
Validated: 16385
EndChar

StartChar: registered
Encoding: 174 174 133
Width: 828
Flags: HW
HStem: -51 42<299.057 528.099> 121 33<238.127 280.39 357.16 405.983 575.219 610.346> 287 32<352 403.597> 472 31<233.6 272.209 359.739 455.093> 641 42<299.711 527.867>
VStem: 47 43<197.677 434.41> 287 65<167.407 287 319 462.745> 485 72<345.993 450.597> 738 43<197.535 434.552>
LayerCount: 2
Fore
SplineSet
401 319 m 2,0,1
 485 319 485 319 485 397 c 0,2,3
 485 448.806 485 448.806 436 466.5 c 0,4,5
 418 473 418 473 392.5 472 c 128,-1,6
 367 471 367 471 359.5 463 c 128,-1,7
 352 455 352 455 352 428 c 2,8,-1
 352 319 l 1,9,-1
 401 319 l 2,0,1
47 316 m 256,10,11
 47 466 47 466 156 575 c 0,12,13
 264 683 264 683 414 683 c 256,14,15
 562.42 683 562.42 683 671.5 575 c 0,16,17
 781 466.584 781 466.584 781 316 c 256,18,19
 781 165.416 781 165.416 671.5 57 c 0,20,21
 562.42 -51 562.42 -51 414 -51 c 256,22,23
 264 -51 264 -51 156 57 c 0,24,25
 47 166 47 166 47 316 c 256,10,11
90 316 m 256,26,27
 90 181.568 90 181.568 184 86.5 c 0,28,29
 278.427 -9 278.427 -9 414 -9 c 256,30,31
 549.573 -9 549.573 -9 644 86.5 c 0,32,33
 738 181.568 738 181.568 738 316 c 256,34,35
 738 451 738 451 644 545 c 0,36,37
 548 641 548 641 414 641 c 256,38,39
 280 641 280 641 184 545 c 0,40,41
 90 451 90 451 90 316 c 256,26,27
238 473 m 128,-1,43
 234 475 234 475 233.5 489.5 c 128,-1,44
 233 504 233 504 250 503.5 c 128,-1,45
 267 503 267 503 283.5 503 c 2,46,-1
 419 503 l 1,47,48
 523.595 500.173 523.595 500.173 549.5 438 c 0,49,50
 557 420 557 420 557 395 c 128,-1,51
 557 370 557 370 532 342 c 128,-1,52
 507 314 507 314 462 301 c 1,53,-1
 512 226 l 2,54,55
 554 164 554 164 575 158 c 0,56,57
 582 156 582 156 591 154.5 c 128,-1,58
 600 153 600 153 605 151.5 c 128,-1,59
 610 150 610 150 610.5 135 c 128,-1,60
 611 120 611 120 596.625 120 c 2,61,-1
 568.5 120 l 2,62,63
 560 120 560 120 538.5 123.5 c 0,64,65
 501.089 129.59 501.089 129.59 475.545 163.795 c 128,-1,66
 450 198 450 198 436 220.5 c 2,67,-1
 408 266 l 1,68,69
 393.3 287 393.3 287 365 287 c 2,70,-1
 352 287 l 1,71,-1
 352 196 l 2,72,73
 352 180 352 180 357 167 c 128,-1,74
 362 154 362 154 384 154 c 128,-1,75
 406 154 406 154 406 137 c 128,-1,76
 406 120 406 120 388.5 121 c 128,-1,77
 371 122 371 122 353 122 c 0,78,79
 318 122 318 122 292.5 122 c 128,-1,80
 267 122 267 122 250 121 c 128,-1,81
 233 120 233 120 233 137 c 1,82,83
 234 150 234 150 238 152 c 128,-1,84
 242 154 242 154 253 154 c 128,-1,85
 264 154 264 154 270.5 157 c 128,-1,86
 277 160 277 160 280.5 165.5 c 0,87,88
 284.467 171.733 284.467 171.733 287 192 c 1,89,-1
 287 433 l 1,90,91
 283.077 460.461 283.077 460.461 272.538 465.731 c 128,-1,92
 262 471 262 471 252 471 c 128,-1,42
 242 471 242 471 238 473 c 128,-1,43
EndSplineSet
Validated: 540705
EndChar

StartChar: fraction
Encoding: 8260 8260 134
Width: 350
Flags: W
LayerCount: 2
Fore
SplineSet
51 14 m 1,0,1
 38.2041 -7.32653 38.2041 -7.32653 21.602 -1.16326 c 0,2,3
 -9.97613 10.5597 -9.97613 10.5597 -1 33 c 1,4,-1
 297 617 l 2,5,6
 308.538 638.154 308.538 638.154 326.269 632.077 c 0,7,8
 361.26 620.085 361.26 620.085 351 597 c 1,9,-1
 51 14 l 1,0,1
EndSplineSet
Validated: 524321
EndChar

StartChar: Oslash
Encoding: 216 216 135
Width: 735
Flags: HW
HStem: -20 44<278.267 450.144> 608 43<278.346 452.54>
VStem: 47 117<182.536 437.241> 569 119<195.282 446.406>
LayerCount: 2
Fore
SplineSet
570 580 m 1,0,-1
 627 644 l 2,1,2
 640.846 660.154 640.846 660.154 651.423 650.077 c 0,3,4
 670.194 632.194 670.194 632.194 658 620 c 2,5,-1
 599 554 l 1,6,7
 688 458.791 688 458.791 688 325 c 0,8,9
 688 169.828 688 169.828 582.5 70 c 0,10,11
 487.386 -20 487.386 -20 366.707 -20 c 128,-1,12
 246.029 -20 246.029 -20 157 56 c 1,13,-1
 103 -5 l 2,14,15
 89.1538 -21.1538 89.1538 -21.1538 78.5769 -11.0769 c 0,16,17
 59.8063 6.80633 59.8063 6.80633 72 19 c 1,18,-1
 129 84 l 1,19,20
 47 176.25 47 176.25 47 307 c 0,21,22
 47 462.522 47 462.522 151 562 c 0,23,24
 244.045 651 244.045 651 363.992 651 c 128,-1,25
 483.939 651 483.939 651 570 580 c 1,0,-1
210 115 m 1,26,27
 264.167 24 264.167 24 365 24 c 0,28,29
 465.482 24 465.482 24 520 114.5 c 0,30,31
 569 195.84 569 195.84 569 325 c 0,32,33
 569 417.188 569 417.188 538 485 c 1,34,-1
 210 115 l 1,26,27
519 522 m 1,35,36
 463.1 608 463.1 608 365 608 c 0,37,38
 264.683 608 264.683 608 211.5 519 c 0,39,40
 164 439.51 164 439.51 164 330.755 c 128,-1,41
 164 222 164 222 191 153 c 1,42,-1
 519 522 l 1,35,36
EndSplineSet
Validated: 540705
EndChar

StartChar: Thorn
Encoding: 222 222 136
Width: 606
Flags: HW
HStem: -3 43<42.6119 121.391 243.059 320.849> 135 46<232.025 396.931> 476 46<231 398.011> 591 43<42.6119 121.261 241.705 320.849>
VStem: 133 98<64.4162 152 184.164 476 522 569.016> 469 111<250.203 413.651>
LayerCount: 2
Fore
SplineSet
421 148.5 m 128,-1,1
 376 135 376 135 325.222 135 c 128,-1,2
 274.444 135 274.444 135 231 152 c 1,3,-1
 231 117 l 2,4,5
 231 60.5 231 60.5 259 46.5 c 0,6,7
 272 40 272 40 289.5 40 c 128,-1,8
 307 40 307 40 313.5 38 c 128,-1,9
 320 36 320 36 321 16.5 c 128,-1,10
 322 -3 322 -3 304 -3 c 0,11,12
 239 0 239 0 173.5 0 c 128,-1,13
 108 0 108 0 60 -3 c 1,14,15
 42 -3 42 -3 42.5 16.5 c 128,-1,16
 43 36 43 36 50 38 c 128,-1,17
 57 40 57 40 74 40 c 128,-1,18
 91 40 91 40 104 46.5 c 128,-1,19
 117 53 117 53 123 64 c 0,20,21
 130.151 77.1096 130.151 77.1096 133 117 c 1,22,-1
 133 514 l 1,23,24
 130.151 553.891 130.151 553.891 123.575 565.945 c 0,25,26
 109.909 591 109.909 591 67 591 c 0,27,28
 57 591 57 591 50 593 c 128,-1,29
 43 595 43 595 42.5 614.5 c 128,-1,30
 42 634 42 634 60 634 c 1,31,32
 108 631 108 631 173.5 631 c 128,-1,33
 239 631 239 631 304 634 c 0,34,35
 322 634 322 634 321 614.5 c 128,-1,36
 320 595 320 595 313.5 593 c 128,-1,37
 307 591 307 591 290.5 591 c 128,-1,38
 274 591 274 591 261 585 c 128,-1,39
 248 579 248 579 241.5 569.5 c 0,40,41
 231 554.154 231 554.154 231 522 c 1,42,-1
 331 522 l 2,43,44
 483.892 522 483.892 522 552 432 c 0,45,46
 580 395 580 395 580 341 c 128,-1,47
 580 287 580 287 558.5 250 c 128,-1,48
 537 213 537 213 501.5 187.5 c 128,-1,0
 466 162 466 162 421 148.5 c 128,-1,1
469 332 m 0,49,50
 469 468.783 469 468.783 303 476 c 1,51,-1
 231 476 l 1,52,-1
 231 191 l 1,53,54
 253 181 253 181 289 181 c 128,-1,55
 325 181 325 181 354 187 c 128,-1,56
 383 193 383 193 408.5 209.5 c 0,57,58
 469 248.647 469 248.647 469 332 c 0,49,50
EndSplineSet
Validated: 540673
EndChar

StartChar: dotlessi
Encoding: 305 305 137
Width: 296
Flags: HW
HStem: -3 38<37.1303 101.974 205.145 273.412>
VStem: 108 91<40.4889 394.978>
LayerCount: 2
Fore
SplineSet
108 357.5 m 2,0,1
 108 400 108 400 57 400 c 0,2,3
 48 400 48 400 40.5 402.5 c 128,-1,4
 33 405 33 405 33 415.5 c 0,5,6
 33 434 33 434 49 438 c 1,7,8
 109.286 446.866 109.286 446.866 140.643 457.933 c 0,9,10
 184.624 473.455 184.624 473.455 191.812 468.228 c 128,-1,11
 199 463 199 463 199 451 c 2,12,-1
 199 77.5 l 2,13,14
 199 35 199 35 251 35 c 0,15,16
 260 35 260 35 266.5 33.5 c 128,-1,17
 273 32 273 32 273.5 14.5 c 128,-1,18
 274 -3 274 -3 258 -3 c 1,19,20
 214.5 -3.72529e-09 214.5 -3.72529e-09 153 0 c 256,21,22
 92.5 0 92.5 0 66.75 -1.5 c 128,-1,23
 41 -3 41 -3 37 3 c 128,-1,24
 33 9 33 9 34 20.5 c 128,-1,25
 35 32 35 32 41 33.5 c 128,-1,26
 47 35 47 35 57 35 c 0,27,28
 108 35 108 35 108 77.5 c 2,29,-1
 108 357.5 l 2,0,1
EndSplineSet
Validated: 540705
EndChar

StartChar: oe
Encoding: 339 339 138
Width: 866
Flags: HW
HStem: -12 50<582.586 735.631> -12 37<211.616 337.702> 240 38<507 716.576> 428 37<209.661 337.58 563.002 684.84>
VStem: 41 102<119.426 326.945> 405 102<123.312 240 278 353.828> 724 94.5<285.049 376.23>
LayerCount: 2
Fore
SplineSet
456 379 m 1,0,1
 521.632 465 521.632 465 628 465 c 0,2,3
 759.516 465 759.516 465 803.5 364 c 0,4,5
 817 333 817 333 818.5 297.5 c 128,-1,6
 820 262 820 262 800.5 251 c 128,-1,7
 781 240 781 240 750 240 c 2,8,-1
 507 240 l 1,9,10
 507 96 507 96 593 53 c 0,11,12
 623 38 623 38 665 38 c 256,13,14
 707 38 707 38 737 56 c 128,-1,15
 767 74 767 74 795 119 c 1,16,17
 803 129 803 129 814 122 c 0,18,19
 835.298 108.447 835.298 108.447 825 93 c 0,20,21
 758.571 -12 758.571 -12 636.261 -12 c 128,-1,22
 513.951 -12 513.951 -12 451 77 c 1,23,24
 382.025 -12 382.025 -12 274 -12 c 0,25,26
 173.781 -12 173.781 -12 105 59 c 0,27,28
 41 125.065 41 125.065 41 220 c 0,29,30
 41 331.209 41 331.209 117.5 402 c 0,31,32
 185.581 465 185.581 465 285.711 465 c 128,-1,33
 385.842 465 385.842 465 456 379 c 1,0,1
274 25 m 256,34,35
 405 25 405 25 405 233 c 0,36,37
 405 368.48 405 368.48 334 412.5 c 0,38,39
 309 428 309 428 273 428 c 128,-1,40
 237 428 237 428 212 411.5 c 128,-1,41
 187 395 187 395 171.5 366.5 c 0,42,43
 143 314.097 143 314.097 143 248.548 c 128,-1,44
 143 183 143 183 150 147.5 c 128,-1,45
 157 112 157 112 172.5 84.5 c 0,46,47
 206.036 25 206.036 25 274 25 c 256,34,35
670 278 m 2,48,49
 720.348 278 720.348 278 724 320 c 1,50,51
 724 394 724 394 670 421 c 0,52,53
 652 430 652 430 614.5 430 c 128,-1,54
 577 430 577 430 542 390 c 128,-1,55
 507 350 507 350 503 278 c 1,56,-1
 670 278 l 2,48,49
EndSplineSet
Validated: 540705
EndChar

StartChar: guilsinglleft
Encoding: 8249 8249 139
Width: 426
Flags: W
LayerCount: 2
Fore
SplineSet
43 264 m 2,0,1
 29 273 29 273 29 290.5 c 128,-1,2
 29 308 29 308 43 317 c 2,3,-1
 343 503 l 1,4,5
 358 511 358 511 367 501.5 c 128,-1,6
 376 492 376 492 377 480.5 c 0,7,8
 379.041 457.026 379.041 457.026 363 447 c 2,9,-1
 107 290 l 1,10,-1
 363 133 l 1,11,12
 379.526 124.737 379.526 124.737 377.763 106.368 c 128,-1,13
 376 88 376 88 366.5 78 c 128,-1,14
 357 68 357 68 343 77 c 2,15,-1
 43 264 l 2,0,1
EndSplineSet
Validated: 524321
EndChar

StartChar: uni00AD
Encoding: 173 173 140
Width: 456
Flags: HW
HStem: 209 54<62.2751 393.725>
VStem: 62 332<209.026 262.974>
LayerCount: 2
Fore
SplineSet
394 236 m 128,-1,1
 394 209 394 209 371 209 c 2,2,-1
 85 209 l 2,3,4
 62 209 62 209 62 236 c 128,-1,5
 62 263 62 263 85 263 c 2,6,-1
 371 263 l 2,7,0
 394 263 394 263 394 236 c 128,-1,1
EndSplineSet
Validated: 16385
EndChar

StartChar: guilsinglright
Encoding: 8250 8250 141
Width: 426
Flags: W
LayerCount: 2
Fore
SplineSet
83 77 m 2,0,1
 69 68 69 68 59.5 78 c 128,-1,2
 50 88 50 88 49 99.5 c 0,3,4
 46.7917 124.896 46.7917 124.896 63 133 c 1,5,-1
 319 290 l 1,6,-1
 63 447 l 2,7,8
 46.6883 457.195 46.6883 457.195 48.3442 474.597 c 128,-1,9
 50 492 50 492 59 501.5 c 128,-1,10
 68 511 68 511 83 503 c 1,11,-1
 383 317 l 2,12,13
 397 308 397 308 397 290.5 c 128,-1,14
 397 273 397 273 383 264 c 2,15,-1
 83 77 l 2,0,1
EndSplineSet
Validated: 524321
EndChar

StartChar: cent
Encoding: 162 162 142
Width: 490
Flags: HW
HStem: -11 49<272 355.035> 428 36<272 331.83>
VStem: 44 102<116.995 327.872> 229 43<-76.9939 -11 51 419 464 509.994>
LayerCount: 2
Fore
SplineSet
272 464 m 1,0,-1
 279 465 l 1,1,2
 411.867 465 411.867 465 434 382 c 1,3,4
 442.444 346.111 442.444 346.111 429.222 323.556 c 0,5,6
 405.448 283 405.448 283 375.724 283 c 128,-1,7
 346 283 346 283 334 294 c 128,-1,8
 322 305 322 305 322 308 c 128,-1,9
 322 311 322 311 327 315 c 128,-1,10
 332 319 332 319 338.5 326 c 0,11,12
 355 343.769 355 343.769 355 370.385 c 128,-1,13
 355 397 355 397 332 412 c 128,-1,14
 309 427 309 427 280 428 c 1,15,-1
 272 428 l 1,16,-1
 272 38 l 1,17,-1
 285 38 l 2,18,19
 364.658 38 364.658 38 414 113 c 0,20,21
 421 123 421 123 431.5 117 c 0,22,23
 453.362 104.507 453.362 104.507 443 90 c 0,24,25
 374.206 -6.7414 374.206 -6.7414 272 -11 c 1,26,-1
 272 -52 l 2,27,28
 272 -77 272 -77 250.5 -77 c 128,-1,29
 229 -77 229 -77 229 -52 c 2,30,-1
 229 -10 l 1,31,32
 141 1 141 1 92.5 64 c 128,-1,33
 44 127 44 127 44 227 c 1,34,35
 46.9886 361.486 46.9886 361.486 156.5 428.5 c 0,36,37
 190 449 190 449 229 458 c 1,38,-1
 229 485 l 2,39,40
 229 510 229 510 250.5 510 c 128,-1,41
 272 510 272 510 272 485 c 2,42,-1
 272 464 l 1,0,-1
229 419 m 1,43,44
 146 388.259 146 388.259 146 230 c 0,45,46
 146 94.575 146 94.575 229 51 c 1,47,-1
 229 419 l 1,43,44
EndSplineSet
Validated: 540705
EndChar

StartChar: oslash
Encoding: 248 248 143
Width: 547
Flags: HW
HStem: -12 37<210.405 340.236> 428 37<208.672 337.051>
VStem: 41 102<122.642 323.285> 405 102<130.231 327.166>
LayerCount: 2
Fore
SplineSet
418 417 m 1,0,-1
 465 470 l 2,1,2
 478.846 486.154 478.846 486.154 489.423 476.077 c 0,3,4
 508.194 458.194 508.194 458.194 496 446 c 2,5,-1
 446 390 l 1,6,7
 507 322.69 507 322.69 507 248.345 c 128,-1,8
 507 174 507 174 485 128 c 128,-1,9
 463 82 463 82 429.5 51 c 0,10,11
 361.419 -12 361.419 -12 277.028 -12 c 128,-1,12
 192.636 -12 192.636 -12 132 34 c 1,13,-1
 97 -5 l 2,14,15
 83.1538 -21.1538 83.1538 -21.1538 72.5769 -11.0769 c 0,16,17
 53.8063 6.80633 53.8063 6.80633 66 19 c 1,18,-1
 103 61 l 1,19,20
 41 127.133 41 127.133 41 203.067 c 128,-1,21
 41 279 41 279 62.5 325 c 128,-1,22
 84 371 84 371 117.5 402 c 0,23,24
 185.581 465 185.581 465 271.529 465 c 128,-1,25
 357.478 465 357.478 465 418 417 c 1,0,-1
375 369 m 1,26,27
 340.037 428 340.037 428 274 428 c 0,28,29
 143 428 143 428 143 222 c 0,30,31
 143 163.714 143 163.714 156 121 c 1,32,-1
 375 369 l 1,26,27
174 82 m 1,33,34
 209.077 25 209.077 25 274 25 c 0,35,36
 405 25 405 25 405 233 c 0,37,38
 405 289 405 289 392 328 c 1,39,-1
 174 82 l 1,33,34
EndSplineSet
Validated: 540705
EndChar

StartChar: quotedblbase
Encoding: 8222 8222 144
Width: 437
Flags: HW
HStem: -120 267
VStem: 120 76<-40.6511 38.8192> 320 76<-40.6511 38.8192>
LayerCount: 2
Fore
SplineSet
56.5 69.5 m 128,-1,1
 45 80 45 80 45 98 c 128,-1,2
 45 116 45 116 59.5 131.5 c 128,-1,3
 74 147 74 147 95.5 147 c 128,-1,4
 117 147 117 147 135.5 136.5 c 128,-1,5
 154 126 154 126 167.5 108.5 c 0,6,7
 196 71.5556 196 71.5556 196 34.2778 c 128,-1,8
 196 -3 196 -3 182.5 -27.5 c 128,-1,9
 169 -52 169 -52 148 -70 c 0,10,11
 108.748 -103.645 108.748 -103.645 48 -120 c 1,12,13
 33.009 -125.622 33.009 -125.622 28.5045 -114.811 c 0,14,15
 20.0811 -94.5946 20.0811 -94.5946 35 -89 c 0,16,17
 120 -56.619 120 -56.619 120 0 c 0,18,19
 120 24.931 120 24.931 94 41.9655 c 128,-1,0
 68 59 68 59 56.5 69.5 c 128,-1,1
256.5 69.5 m 128,-1,21
 245 80 245 80 245 98 c 128,-1,22
 245 116 245 116 259.5 131.5 c 128,-1,23
 274 147 274 147 295.5 147 c 128,-1,24
 317 147 317 147 335.5 136.5 c 128,-1,25
 354 126 354 126 367.5 108.5 c 0,26,27
 396 71.5556 396 71.5556 396 34.2778 c 128,-1,28
 396 -3 396 -3 382.5 -27.5 c 128,-1,29
 369 -52 369 -52 348 -70 c 0,30,31
 308.748 -103.645 308.748 -103.645 248 -120 c 1,32,33
 233.009 -125.622 233.009 -125.622 228.505 -114.811 c 0,34,35
 220.081 -94.5946 220.081 -94.5946 235 -89 c 0,36,37
 320 -56.619 320 -56.619 320 0 c 0,38,39
 320 24.931 320 24.931 294 41.9655 c 128,-1,20
 268 59 268 59 256.5 69.5 c 128,-1,21
EndSplineSet
Validated: 540673
EndChar

StartChar: plusminus
Encoding: 177 177 145
Width: 586
Flags: HW
HStem: 0 54<46.2751 539.725> 237 54<46.2632 262 325 539.737>
VStem: 262 63<81.3398 237 291 502.66>
LayerCount: 2
Fore
SplineSet
46 264 m 256,0,1
 46 291 46 291 68 291 c 2,2,-1
 262 291 l 1,3,-1
 262 479 l 2,4,5
 262 490 262 490 272 497 c 128,-1,6
 282 504 282 504 293.5 504 c 128,-1,7
 305 504 305 504 315 497 c 128,-1,8
 325 490 325 490 325 479 c 2,9,-1
 325 291 l 1,10,-1
 518 291 l 2,11,12
 540 291 540 291 540 264 c 256,13,14
 540 237 540 237 518 237 c 2,15,-1
 325 237 l 1,16,-1
 325 105 l 2,17,18
 325 94 325 94 315 87 c 128,-1,19
 305 80 305 80 293.5 80 c 128,-1,20
 282 80 282 80 272 87 c 128,-1,21
 262 94 262 94 262 105 c 2,22,-1
 262 237 l 1,23,-1
 68 237 l 2,24,25
 46 237 46 237 46 264 c 256,0,1
540 27 m 128,-1,27
 540 0 540 0 517 0 c 2,28,-1
 69 0 l 2,29,30
 46 0 46 0 46 27 c 128,-1,31
 46 54 46 54 69 54 c 2,32,-1
 517 54 l 2,33,26
 540 54 540 54 540 27 c 128,-1,27
EndSplineSet
Validated: 16385
EndChar

StartChar: yen
Encoding: 165 165 146
Width: 633
Flags: HW
HStem: -3 38<193.588 262.834 370.285 437.424> 103 39<156.042 272 359 474.958> 203 39<156.042 261 368 474.958> 519.5 36.5<37.0641 104.11 381.542 444.623 515.583 595.449>
VStem: 272 87<56.9096 103 142 203>
LayerCount: 2
Fore
SplineSet
475 121 m 256,0,1
 475 103 475 103 456 103 c 2,2,-1
 359 103 l 1,3,-1
 359 102 l 2,4,5
 359 54.6364 359 54.6364 384 41 c 0,6,7
 395 35 395 35 410 35 c 128,-1,8
 425 35 425 35 431 33.5 c 128,-1,9
 437 32 437 32 437.5 14.5 c 128,-1,10
 438 -3 438 -3 423 -3 c 1,11,12
 330.373 3.38806 330.373 3.38806 209 -3 c 0,13,14
 193 -3 193 -3 193.5 14.5 c 128,-1,15
 194 32 194 32 200.5 33.5 c 128,-1,16
 207 35 207 35 221.5 35 c 128,-1,17
 236 35 236 35 247.5 41 c 128,-1,18
 259 47 259 47 264.5 56.5 c 0,19,20
 272 69.4545 272 69.4545 272 102 c 2,21,-1
 272 103 l 1,22,-1
 175 103 l 2,23,24
 156 103 156 103 156 121 c 256,25,26
 156 139.75 156 139.75 174 142 c 1,27,-1
 272 142 l 1,28,-1
 272 203 l 1,29,-1
 175 203 l 2,30,31
 156 203 156 203 156 221 c 256,32,33
 156 239.75 156 239.75 174 242 c 1,34,-1
 261 242 l 1,35,36
 224.698 315.316 224.698 315.316 205.849 350.158 c 2,37,-1
 149 452 l 2,38,39
 118.64 507.661 118.64 507.661 59 520 c 0,40,41
 46 522 46 522 41.5 524 c 128,-1,42
 37 526 37 526 37 540.5 c 128,-1,43
 37 555 37 555 47.5 556.5 c 128,-1,44
 58 558 58 558 95.5 558 c 0,45,46
 189.889 558 189.889 558 241 466 c 2,47,-1
 341 283 l 1,48,-1
 344 283 l 1,49,-1
 442 475 l 2,50,51
 457 505 457 505 445 511.5 c 128,-1,52
 433 518 433 518 413.5 518 c 128,-1,53
 394 518 394 518 388 519.5 c 128,-1,54
 382 521 382 521 381.5 538.5 c 128,-1,55
 381 556 381 556 396 556 c 1,56,57
 439.5 553 439.5 553 472.25 553 c 2,58,-1
 515 553 l 2,59,60
 538 553 538 553 580 556 c 1,61,62
 596 556 596 556 595.5 538.5 c 128,-1,63
 595 521 595 521 589 519.5 c 128,-1,64
 583 518 583 518 561.5 518 c 0,65,66
 514.355 518 514.355 518 482 459 c 2,67,-1
 383 272 l 2,68,69
 378 262 378 262 374 255 c 128,-1,70
 370 248 370 248 368 242 c 1,71,-1
 457 242 l 1,72,73
 475 239.75 475 239.75 475 221 c 256,74,75
 475 203 475 203 456 203 c 2,76,-1
 359 203 l 1,77,-1
 359 142 l 1,78,-1
 457 142 l 1,79,80
 475 139.75 475 139.75 475 121 c 256,0,1
EndSplineSet
Validated: 540705
EndChar

StartChar: multiply
Encoding: 215 215 147
Width: 518
Flags: W
LayerCount: 2
Fore
SplineSet
425 463 m 2,0,1
 437 475 437 475 451.5 462 c 0,2,3
 477.062 439.082 477.062 439.082 465 423 c 1,4,-1
 298 256 l 1,5,-1
 465 91 l 1,6,7
 477.562 74.25 477.562 74.25 457.281 56.625 c 128,-1,8
 437 39 437 39 425 51 c 2,9,-1
 259 217 l 1,10,-1
 93 51 l 2,11,12
 81 39 81 39 66.5 52 c 0,13,14
 40.9381 74.9175 40.9381 74.9175 53 91 c 1,15,-1
 220 256 l 1,16,-1
 53 423 l 1,17,18
 40.4375 439.75 40.4375 439.75 60.7188 457.375 c 128,-1,19
 81 475 81 475 93 463 c 2,20,-1
 259 296 l 1,21,-1
 425 463 l 2,0,1
EndSplineSet
Validated: 524321
EndChar

StartChar: threesuperior
Encoding: 179 179 148
Width: 359
Flags: HW
HStem: 247 34<117.564 218.995> 431 37<134.003 208.805> 600 33<125.012 215.171>
VStem: 46 63<287.795 365.26> 53 64<525.372 594.121> 228 70<482.825 591.588> 240 75<298.306 415.264>
LayerCount: 2
Fore
SplineSet
240 358 m 0,0,1
 240 427.229 240 427.229 174 431 c 1,2,-1
 148 431 l 2,3,4
 134 431 134 431 134 449 c 256,5,6
 134 468 134 468 148 468 c 2,7,-1
 174 468 l 1,8,9
 199 471 199 471 213.5 491.5 c 128,-1,10
 228 512 228 512 228 540 c 0,11,12
 228 600 228 600 172.5 600 c 128,-1,13
 117 600 117 600 117 559 c 0,14,15
 117 543 117 543 129 534 c 128,-1,16
 141 525 141 525 141 521 c 128,-1,17
 141 517 141 517 130.5 509 c 128,-1,18
 120 501 120 501 99.5 501 c 128,-1,19
 79 501 79 501 66 516 c 128,-1,20
 53 531 53 531 53 552.5 c 128,-1,21
 53 574 53 574 63.5 589 c 128,-1,22
 74 604 74 604 91.5 614 c 0,23,24
 124.75 633 124.75 633 159.875 633 c 128,-1,25
 195 633 195 633 217.5 628.5 c 128,-1,26
 240 624 240 624 258 613 c 0,27,28
 298 588.556 298 588.556 298 534.55 c 128,-1,29
 298 480.545 298 480.545 233 451 c 1,30,31
 315 434.6 315 434.6 315 359 c 0,32,33
 315 247 315 247 169 247 c 0,34,35
 89.7742 247 89.7742 247 57.5 290.5 c 0,36,37
 46 306 46 306 46 327.5 c 0,38,39
 46 381 46 381 96 381 c 0,40,41
 114 381 114 381 123 371 c 128,-1,42
 132 361 132 361 131 356 c 128,-1,43
 130 351 130 351 119.5 342 c 128,-1,44
 109 333 109 333 109 322 c 0,45,46
 109 281 109 281 171 281 c 0,47,48
 200 281 200 281 220 298.5 c 128,-1,49
 240 316 240 316 240 358 c 0,0,1
EndSplineSet
Validated: 540673
EndChar

StartChar: foursuperior
Encoding: 8308 8308 149
Width: 359
Flags: HW
HStem: 372 40<71 204 272 329.352> 613 20G<233.8 255.571>
VStem: 204 68<255.813 372 412 562>
LayerCount: 2
Fore
SplineSet
238 255 m 256,0,1
 206.125 255 206.125 255 204 272 c 1,2,-1
 204 372 l 1,3,-1
 46 372 l 2,4,5
 16 372 16 372 16 396 c 0,6,7
 16 403 16 403 18 407 c 1,8,-1
 217 625 l 1,9,10
 226.6 633 226.6 633 241 633 c 0,11,12
 270.143 633 270.143 633 272 607 c 1,13,-1
 272 412 l 1,14,-1
 309 412 l 2,15,16
 318 412 318 412 323.5 409.5 c 128,-1,17
 329 407 329 407 329.5 389.5 c 128,-1,18
 330 372 330 372 313 372 c 2,19,-1
 272 372 l 1,20,-1
 272 272 l 2,21,22
 272 255 272 255 238 255 c 256,0,1
204 412 m 1,23,-1
 204 562 l 1,24,-1
 71 412 l 1,25,-1
 204 412 l 1,23,-1
EndSplineSet
Validated: 540673
EndChar

